<svg viewBox="0 0 330 200" xmlns="http://www.w3.org/2000/svg"><g><g><g><g><g><line x1="50" y1="178" x2="45" y2="178" style="visibility: inherit;" fill="rgb(0, 0, 0)" stroke="rgb(204, 204, 204)" stroke-width="1px"></line><line x1="50" y1="163.16666666666674" x2="45" y2="163.16666666666674" style="visibility: inherit;" fill="rgb(0, 0, 0)" stroke="rgb(204, 204, 204)" stroke-width="1px"></line><line x1="50" y1="148.3333333333334" x2="45" y2="148.3333333333334" style="visibility: inherit;" fill="rgb(0, 0, 0)" stroke="rgb(204, 204, 204)" stroke-width="1px"></line><line x1="50" y1="133.50000000000003" x2="45" y2="133.50000000000003" style="visibility: inherit;" fill="rgb(0, 0, 0)" stroke="rgb(204, 204, 204)" stroke-width="1px"></line><line x1="50" y1="118.66666666666669" x2="45" y2="118.66666666666669" style="visibility: inherit;" fill="rgb(0, 0, 0)" stroke="rgb(204, 204, 204)" stroke-width="1px"></line><line x1="50" y1="103.83333333333336" x2="45" y2="103.83333333333336" style="visibility: inherit;" fill="rgb(0, 0, 0)" stroke="rgb(204, 204, 204)" stroke-width="1px"></line><line x1="50" y1="89" x2="45" y2="89" style="visibility: inherit;" fill="rgb(0, 0, 0)" stroke="rgb(204, 204, 204)" stroke-width="1px"></line><line x1="50" y1="74.16666666666674" x2="45" y2="74.16666666666674" style="visibility: inherit;" fill="rgb(0, 0, 0)" stroke="rgb(204, 204, 204)" stroke-width="1px"></line><line x1="50" y1="59.33333333333338" x2="45" y2="59.33333333333338" style="visibility: inherit;" fill="rgb(0, 0, 0)" stroke="rgb(204, 204, 204)" stroke-width="1px"></line><line x1="50" y1="44.50000000000004" x2="45" y2="44.50000000000004" style="visibility: inherit;" fill="rgb(0, 0, 0)" stroke="rgb(204, 204, 204)" stroke-width="1px"></line><line x1="50" y1="29.6666666666667" x2="45" y2="29.6666666666667" style="visibility: inherit;" fill="rgb(0, 0, 0)" stroke="rgb(204, 204, 204)" stroke-width="1px"></line><line x1="50" y1="14.83333333333334" x2="45" y2="14.83333333333334" style="visibility: inherit;" fill="rgb(0, 0, 0)" stroke="rgb(204, 204, 204)" stroke-width="1px"></line><line x1="50" y1="0" x2="45" y2="0" style="visibility: inherit;" fill="rgb(0, 0, 0)" stroke="rgb(204, 204, 204)" stroke-width="1px"></line></g><g transform="translate(40, 0)"><text x="0" y="178" dx="0em" dy="0.3em" style="text-anchor: end; visibility: hidden; font-family: Roboto, sans-serif; font-size: 12px; font-weight: 200;" fill="rgb(50, 49, 63)" stroke="none" stroke-width="1px">0.68</text><text x="0" y="163.16666666666674" dx="0em" dy="0.3em" style="text-anchor: end; visibility: inherit; font-family: Roboto, sans-serif; font-size: 12px; font-weight: 200;" fill="rgb(50, 49, 63)" stroke="none" stroke-width="1px">0.7</text><text x="0" y="148.3333333333334" dx="0em" dy="0.3em" style="text-anchor: end; visibility: hidden; font-family: Roboto, sans-serif; font-size: 12px; font-weight: 200;" fill="rgb(50, 49, 63)" stroke="none" stroke-width="1px">0.72</text><text x="0" y="133.50000000000003" dx="0em" dy="0.3em" style="text-anchor: end; visibility: inherit; font-family: Roboto, sans-serif; font-size: 12px; font-weight: 200;" fill="rgb(50, 49, 63)" stroke="none" stroke-width="1px">0.74</text><text x="0" y="118.66666666666669" dx="0em" dy="0.3em" style="text-anchor: end; visibility: hidden; font-family: Roboto, sans-serif; font-size: 12px; font-weight: 200;" fill="rgb(50, 49, 63)" stroke="none" stroke-width="1px">0.76</text><text x="0" y="103.83333333333336" dx="0em" dy="0.3em" style="text-anchor: end; visibility: inherit; font-family: Roboto, sans-serif; font-size: 12px; font-weight: 200;" fill="rgb(50, 49, 63)" stroke="none" stroke-width="1px">0.78</text><text x="0" y="89" dx="0em" dy="0.3em" style="text-anchor: end; visibility: hidden; font-family: Roboto, sans-serif; font-size: 12px; font-weight: 200;" fill="rgb(50, 49, 63)" stroke="none" stroke-width="1px">0.8</text><text x="0" y="74.16666666666674" dx="0em" dy="0.3em" style="text-anchor: end; visibility: inherit; font-family: Roboto, sans-serif; font-size: 12px; font-weight: 200;" fill="rgb(50, 49, 63)" stroke="none" stroke-width="1px">0.82</text><text x="0" y="59.33333333333338" dx="0em" dy="0.3em" style="text-anchor: end; visibility: hidden; font-family: Roboto, sans-serif; font-size: 12px; font-weight: 200;" fill="rgb(50, 49, 63)" stroke="none" stroke-width="1px">0.84</text><text x="0" y="44.50000000000004" dx="0em" dy="0.3em" style="text-anchor: end; visibility: inherit; font-family: Roboto, sans-serif; font-size: 12px; font-weight: 200;" fill="rgb(50, 49, 63)" stroke="none" stroke-width="1px">0.86</text><text x="0" y="29.6666666666667" dx="0em" dy="0.3em" style="text-anchor: end; visibility: hidden; font-family: Roboto, sans-serif; font-size: 12px; font-weight: 200;" fill="rgb(50, 49, 63)" stroke="none" stroke-width="1px">0.88</text><text x="0" y="14.83333333333334" dx="0em" dy="0.3em" style="text-anchor: end; visibility: inherit; font-family: Roboto, sans-serif; font-size: 12px; font-weight: 200;" fill="rgb(50, 49, 63)" stroke="none" stroke-width="1px">0.9</text><text x="0" y="0" dx="0em" dy="0.3em" style="text-anchor: end; visibility: hidden; font-family: Roboto, sans-serif; font-size: 12px; font-weight: 200;" fill="rgb(50, 49, 63)" stroke="none" stroke-width="1px">0.92</text></g><line x1="50" y1="0" x2="50" y2="178" fill="rgb(0, 0, 0)" stroke="rgb(204, 204, 204)" stroke-width="1px"></line></g></g><g transform="translate(50, 0)" clip-path="url(#clip_0)"><clipPath id="clip_0"><rect width="280" height="178"></rect></clipPath><g><g><g><line x1="0" y1="0" x2="0" y2="178" fill="rgb(0, 0, 0)" stroke="rgb(60, 60, 60)" stroke-width="1px" opacity="0.25"></line><line x1="23.333333333333332" y1="0" x2="23.333333333333332" y2="178" fill="rgb(0, 0, 0)" stroke="rgb(60, 60, 60)" stroke-width="1px" opacity="0.25"></line><line x1="46.666666666666664" y1="0" x2="46.666666666666664" y2="178" fill="rgb(0, 0, 0)" stroke="rgb(60, 60, 60)" stroke-width="1px" opacity="0.25"></line><line x1="70" y1="0" x2="70" y2="178" fill="rgb(0, 0, 0)" stroke="rgb(60, 60, 60)" stroke-width="1px" opacity="0.25"></line><line x1="93.33333333333333" y1="0" x2="93.33333333333333" y2="178" fill="rgb(0, 0, 0)" stroke="rgb(60, 60, 60)" stroke-width="1px" opacity="0.25"></line><line x1="116.66666666666667" y1="0" x2="116.66666666666667" y2="178" fill="rgb(0, 0, 0)" stroke="rgb(60, 60, 60)" stroke-width="1px" opacity="0.25"></line><line x1="140" y1="0" x2="140" y2="178" fill="rgb(0, 0, 0)" stroke="rgb(60, 60, 60)" stroke-width="1px" opacity="0.25"></line><line x1="163.33333333333334" y1="0" x2="163.33333333333334" y2="178" fill="rgb(0, 0, 0)" stroke="rgb(60, 60, 60)" stroke-width="1px" opacity="0.25"></line><line x1="186.66666666666666" y1="0" x2="186.66666666666666" y2="178" fill="rgb(0, 0, 0)" stroke="rgb(60, 60, 60)" stroke-width="1px" opacity="0.25"></line><line x1="210" y1="0" x2="210" y2="178" fill="rgb(0, 0, 0)" stroke="rgb(60, 60, 60)" stroke-width="1px" opacity="0.25"></line><line x1="233.33333333333334" y1="0" x2="233.33333333333334" y2="178" fill="rgb(0, 0, 0)" stroke="rgb(60, 60, 60)" stroke-width="1px" opacity="0.25"></line><line x1="256.66666666666663" y1="0" x2="256.66666666666663" y2="178" fill="rgb(0, 0, 0)" stroke="rgb(60, 60, 60)" stroke-width="1px" opacity="0.25"></line><line x1="280" y1="0" x2="280" y2="178" fill="rgb(0, 0, 0)" stroke="rgb(60, 60, 60)" stroke-width="1px" opacity="0.25"></line></g><g><line x1="0" y1="178" x2="280" y2="178" fill="rgb(0, 0, 0)" stroke="rgb(60, 60, 60)" stroke-width="1px" opacity="0.25"></line><line x1="0" y1="163.16666666666674" x2="280" y2="163.16666666666674" fill="rgb(0, 0, 0)" stroke="rgb(60, 60, 60)" stroke-width="1px" opacity="0.25"></line><line x1="0" y1="148.3333333333334" x2="280" y2="148.3333333333334" fill="rgb(0, 0, 0)" stroke="rgb(60, 60, 60)" stroke-width="1px" opacity="0.25"></line><line x1="0" y1="133.50000000000003" x2="280" y2="133.50000000000003" fill="rgb(0, 0, 0)" stroke="rgb(60, 60, 60)" stroke-width="1px" opacity="0.25"></line><line x1="0" y1="118.66666666666669" x2="280" y2="118.66666666666669" fill="rgb(0, 0, 0)" stroke="rgb(60, 60, 60)" stroke-width="1px" opacity="0.25"></line><line x1="0" y1="103.83333333333336" x2="280" y2="103.83333333333336" fill="rgb(0, 0, 0)" stroke="rgb(60, 60, 60)" stroke-width="1px" opacity="0.25"></line><line x1="0" y1="89" x2="280" y2="89" fill="rgb(0, 0, 0)" stroke="rgb(60, 60, 60)" stroke-width="1px" opacity="0.25"></line><line x1="0" y1="74.16666666666674" x2="280" y2="74.16666666666674" fill="rgb(0, 0, 0)" stroke="rgb(60, 60, 60)" stroke-width="1px" opacity="0.25"></line><line x1="0" y1="59.33333333333338" x2="280" y2="59.33333333333338" fill="rgb(0, 0, 0)" stroke="rgb(60, 60, 60)" stroke-width="1px" opacity="0.25"></line><line x1="0" y1="44.50000000000004" x2="280" y2="44.50000000000004" fill="rgb(0, 0, 0)" stroke="rgb(60, 60, 60)" stroke-width="1px" opacity="0.25"></line><line x1="0" y1="29.6666666666667" x2="280" y2="29.6666666666667" fill="rgb(0, 0, 0)" stroke="rgb(60, 60, 60)" stroke-width="1px" opacity="0.25"></line><line x1="0" y1="14.83333333333334" x2="280" y2="14.83333333333334" fill="rgb(0, 0, 0)" stroke="rgb(60, 60, 60)" stroke-width="1px" opacity="0.25"></line><line x1="0" y1="0" x2="280" y2="0" fill="rgb(0, 0, 0)" stroke="rgb(60, 60, 60)" stroke-width="1px" opacity="0.25"></line></g></g></g><g><g><line x1="0" y1="682.3333333333334" x2="280" y2="682.3333333333334" fill="rgb(0, 0, 0)" stroke="rgb(153, 153, 153)" stroke-width="1.5px"></line></g></g><g><g><line x1="23.333333333333332" y1="0" x2="23.333333333333332" y2="178" fill="rgb(0, 0, 0)" stroke="rgb(153, 153, 153)" stroke-width="1.5px"></line></g></g><g><g><g><g><g><path stroke="rgb(255, 112, 67)" stroke-width="2px" d="M31.5,-22.552298816850737L32.666666666666664,2.59694613386164L33.833333333333336,21.756320391400894L35,35.330857648725036L36.16666666666667,46.206386675916356L37.333333333333336,55.25289419074866L38.5,62.01985211811392L39.666666666666664,68.31730645329405L40.833333333333336,75.00368722066197L42,82.1957543236276L43.16666666666667,89.09289620337722L44.33333333333333,94.87125809366437L45.5,100.73419790312518L46.666666666666664,103.49217633804774L47.833333333333336,109.09900961915788L49,115.20623838717152L50.166666666666664,119.23311281036908L51.33333333333333,124.61469509647993L52.5,128.94581763326022L53.66666666666667,133.05712014641614L54.833333333333336,135.53786831175822L56,137.38241080700857L57.166666666666664,139.22455999405125L58.333333333333336,140.67977246563797L59.5,142.51229308479876L60.66666666666667,144.11694740030845L61.83333333333333,145.6469836520854L63,146.94058616921077L64.16666666666666,147.39562962503564L65.33333333333333,147.59426452869715L66.5,148.23883418970956L67.66666666666667,148.95436831912068L68.83333333333333,150.36048176834592L70,150.95910282351664L71.16666666666666,150.77937714698066L72.33333333333334,151.45264014686003L73.5,152.0989395048438L74.66666666666667,152.68038017355792L75.83333333333333,153.26336367215416L77,153.61356047364805L78.16666666666667,153.7182011817284L79.33333333333333,154.2225229073267L80.5,153.4809872068127L81.66666666666667,153.18306216540756L82.83333333333333,153.50720344946564L84,153.80965885499634L85.16666666666666,153.65963430988492L86.33333333333334,153.21914824518157L87.5,152.96044434312523L88.66666666666666,152.56905170999087L89.83333333333334,152.49212274187084L91,152.46794497112407L92.16666666666667,151.6639229325849L93.33333333333333,151.1621648233175L94.5,151.2271420813227L95.66666666666667,151.512006536521L96.83333333333333,151.56911927982014L98,150.59331509187135L99.16666666666667,149.94146936365547L100.33333333333333,149.65753683981447L101.5,149.77415004692762L102.66666666666666,149.63273884051424L103.83333333333334,149.436685545405L105,149.20574275443573L106.16666666666666,148.1402493543801L107.33333333333334,148.69184855385885L108.5,148.67923299331028L109.66666666666667,148.11435764546326L110.83333333333333,148.10885764071426L112,146.92056842392128L113.16666666666667,146.76228386409352L114.33333333333333,147.00185234296688L115.5,146.23475697208468L116.66666666666667,146.08787275891916L117.83333333333333,146.05167635405905L119,145.90128142113397L120.16666666666666,145.13637829507337L121.33333333333334,144.34150027047556L122.5,143.2683654793757L123.66666666666666,143.43999356639335L124.83333333333334,143.78189921346478L126,144.27535920918294L127.16666666666667,144.53391249327052L128.33333333333331,142.8299018821013L129.5,142.35106206025034L130.66666666666666,142.92234221350367L131.83333333333334,143.19123193771372L133,143.20413709372718L134.16666666666669,142.8218349418468L135.33333333333334,141.82709285824058L136.5,141.1278823924575L137.66666666666666,141.29574041639847L138.83333333333334,141.74296564107192L140,141.9597026243511L141.16666666666666,141.72977786072317L142.33333333333331,140.94962229415714L143.5,140.6503988469736L144.66666666666669,140.77481290291325L145.83333333333334,141.70707283372028L147,142.20305395496496L148.16666666666666,141.9386860631263L149.33333333333334,142.06459783528385L150.5,141.75220389573258L151.66666666666666,140.81728396063144L152.83333333333331,140.73279265510098L154,141.54961168734457L155.16666666666669,141.86289367656846L156.33333333333334,141.22576987890963L157.5,141.29956808973492L158.66666666666666,141.2908872959364L159.83333333333331,140.41820036951793L161,140.80118082116505L162.16666666666669,141.08325686941816L163.33333333333334,140.93676000569425L164.5,141.34236867666743L165.66666666666666,141.34146490558285L166.83333333333334,141.1769154957789L168,140.43663940182472L169.16666666666666,139.5602552335529L170.33333333333331,139.12644556210847L171.5,139.3945545378114L172.66666666666669,140.3362177226614L173.83333333333334,140.27215317966565L175,139.9460697894217L176.16666666666666,139.27372922449834L177.33333333333331,139.08564726084194L178.5,138.66020311258075L179.66666666666669,139.62674124245945L180.83333333333334,139.73892104151912L182,139.26451906078898L183.16666666666666,138.55510378190183L184.33333333333334,139.13577771370595L185.5,139.92945042561476L186.66666666666666,140.03261957552627L187.83333333333331,139.5419540205792L189,140.12429887846287L190.16666666666669,140.29594149666144L191.33333333333334,140.40787451948992L192.5,140.84886453242862L193.66666666666666,140.30710922295904L194.83333333333331,140.16961655586007L196,139.51840959530503L197.16666666666669,139.1537851008262L198.33333333333334,137.9989053515088L199.5,138.44440813705273L200.66666666666666,139.11857131229812L201.83333333333334,139.10711879992672L203,138.78068533419085L204.16666666666666,138.46562609798815L205.33333333333331,138.09366290804013L206.5,137.70760954044022L207.66666666666669,137.3865030007864L208.83333333333334,137.73899706586033L210,137.11719573567606L211.16666666666666,138.32487859545327L212.33333333333331,138.84617249698343L213.5,138.74812640665513L214.66666666666669,138.9517986014597L215.83333333333334,138.98245852202845L217,139.3427673797449L218.16666666666666,139.52100559596067L219.33333333333334,138.9542372257939L220.5,138.84604959675258L221.66666666666666,139.16278297695675L222.83333333333331,139.0847531020234L224,138.65839346207716L225.16666666666669,138.66387510274376L226.33333333333334,138.8413211105736L227.5,138.20907576869763L228.66666666666666,137.92503837738934L229.83333333333331,137.84370144204993L231,138.11856362817701L232.16666666666669,138.4393363571049L233.33333333333334,138.28864929929657L234.5,138.1155173412281L235.66666666666666,137.61379484522246L236.83333333333334,137.8579723846191L238,138.01266600358136L239.16666666666666,138.01735154192238L240.33333333333331,138.3556215806837L241.5,138.66071894431326L242.66666666666669,138.8257763624045L243.83333333333334,138.57727480569602L245,138.7356408554661L246.16666666666666,138.4168319931635L247.33333333333331,138.01133831129525L248.5,137.37780234686173L249.66666666666669,137.45898734016208L250.83333333333334,137.71752138823067L252,137.8190455191719L253.16666666666666,137.40077620466872L254.33333333333334,138.015100409907L255.5,138.65144654730273" style="fill: none;" fill="none"></path></g></g></g></g><g opacity="0.2"><g><g><g><path stroke="rgb(255, 112, 67)" stroke-width="2px" d="M29.166666666666668,-9.717413743336982L30.333333333333336,18.567276537418405L31.5,34.389457146326734L32.666666666666664,39.68719744682316L33.833333333333336,50.20575825373335L35,55.56954348087315L36.16666666666667,62.460496068000836L37.333333333333336,68.79311704635624L38.5,72.15703183412556L39.666666666666664,77.75608553489052L40.833333333333336,85.02854261795683L42,92.98081153631215L43.16666666666667,99.43685783942543L44.33333333333333,103.53792065382008L45.5,109.52807172139488L46.666666666666664,107.62899273633961L47.833333333333336,117.50907504558567L49,124.36696096261345L50.166666666666664,125.27337674299879L51.33333333333333,132.68703027566278L52.5,135.44248296817148L53.66666666666667,139.2240633964539L54.833333333333336,139.25898675123852L56,140.1492228507996L57.166666666666664,141.98778275648755L58.333333333333336,142.86259069045389L59.5,145.26107364892962L60.66666666666667,146.5239286820094L61.83333333333333,147.94203792015713L63,148.88098988930386L64.16666666666666,148.07819479703906L65.33333333333333,147.89221688111627L66.5,149.2056886752447L67.66666666666667,150.02766950925195L68.83333333333333,152.46965193748477L70,151.85703440507257L71.16666666666666,150.5097886323929L72.33333333333334,152.4625346461932L73.5,153.06838854153955L74.66666666666667,153.5525411764781L75.83333333333333,154.13783891995752L77,154.1388556758563L78.16666666666667,153.8751622438431L79.33333333333333,154.9790054957072L80.5,152.36868365605676L81.66666666666667,152.7361746033033L82.83333333333333,153.99341537555063L84,154.2633419632912L85.16666666666666,153.43459749221805L86.33333333333334,152.55841914812726L87.5,152.57238849004113L88.66666666666666,151.98196276028955L89.83333333333334,152.37672928969067L91,152.43167831500375L92.16666666666667,150.45788987477624L93.33333333333333,150.40952765941623L94.5,151.3246079683304L95.66666666666667,151.93930321931842L96.83333333333333,151.65478839476907L98,149.129608809948L99.16666666666667,148.96370077133182L100.33333333333333,149.231638054053L101.5,149.94906985759738L102.66666666666666,149.42062203089398L103.83333333333334,149.14260560274127L105,148.85932856798175L106.16666666666666,146.54200925429666L107.33333333333334,149.51924735307696L108.5,148.66030965248746L109.66666666666667,147.26704462369287L110.83333333333333,148.10060763359073L112,145.13813459873202L113.16666666666667,146.52485702435177L114.33333333333333,147.3612050612768L115.5,145.08411391576135L116.66666666666667,145.86754643917087L117.83333333333333,145.99738174676898L119,145.67568902174634L120.16666666666666,143.98902360598248L121.33333333333334,143.14918323357904L122.5,141.65866329272592L123.66666666666666,143.6974356969198L124.83333333333334,144.2947576840719L126,145.0155492027601L127.16666666666667,144.92174241940182L128.33333333333331,140.27388596534732L129.5,141.632802327474L130.66666666666666,143.77926244338357L131.83333333333334,143.5945665240288L133,143.22349482774737L134.16666666666669,142.24838171402615L135.33333333333334,140.33497973283136L136.5,140.07906669378283L137.66666666666666,141.54752745230996L138.83333333333334,142.41380347808206L140,142.2848080992699L141.16666666666666,141.3848907152812L142.33333333333331,139.77938894430798L143.5,140.20156367619836L144.66666666666669,140.96143398682278L145.83333333333334,143.1054627299309L147,142.94702563683194L148.16666666666666,141.54213422536853L149.33333333333334,142.25346549352014L150.5,141.28361298640573L151.66666666666666,139.4149040579796L152.83333333333331,140.60605569680536L154,142.77484023571017L155.16666666666669,142.33281666040423L156.33333333333334,140.27008418242139L157.5,141.41026540597284L158.66666666666666,141.27786610523862L159.83333333333331,139.10916997989023L161,141.37565149863565L162.16666666666669,141.5063709417979L163.33333333333334,140.71701471010846L164.5,141.9507816831271L165.66666666666666,141.34010924895608L166.83333333333334,140.93009138107303L168,139.32622526089352L169.16666666666666,138.24567898114526L170.33333333333331,138.47573105494183L171.5,139.7967180013657L172.66666666666669,141.74871249993646L173.83333333333334,140.1760563651721L175,139.45694470405581L176.16666666666666,138.26521837711337L177.33333333333331,138.80352431535724L178.5,138.02203689018887L179.66666666666669,141.0765484372775L180.83333333333334,139.90719074010852L182,138.55291608969372L183.16666666666666,137.4909808635712L184.33333333333334,140.00678861141208L185.5,141.11995949347818L186.66666666666666,140.18737330039346L187.83333333333331,138.8059556881587L189,140.99781616528833L190.16666666666669,140.55340542395913L191.33333333333334,140.57577405373257L192.5,141.51034955183667L193.66666666666666,139.49447625875476L194.83333333333331,139.96337755521142L196,138.54159915447238L197.16666666666669,138.606848359108L198.33333333333334,136.26658572753274L199.5,139.11266231536868L200.66666666666666,140.1298160751661L201.83333333333334,139.08994003136957L203,138.2910351355871L204.16666666666666,137.99303724368417L205.33333333333331,137.5357181231181L206.5,137.1285294890404L207.66666666666669,136.90484319130582L208.83333333333334,138.26773816347125L210,136.18449374039972L211.16666666666666,140.13640288511914L212.33333333333331,139.6281133492788L213.5,138.6010572711627L214.66666666666669,139.25730689366662L215.83333333333334,139.02844840288165L217,139.88323066631955L218.16666666666666,139.7883629202843L219.33333333333334,138.1040846705437L220.5,138.68376815319064L221.66666666666666,139.63788304726285L222.83333333333331,138.9677082896233L224,138.01885400215787L225.16666666666669,138.67209756374362L226.33333333333334,139.1074901223183L227.5,137.26070775588357L228.66666666666666,137.4989822904269L229.83333333333331,137.72169603904092L231,138.53085690736773L232.16666666666669,138.9204954504967L233.33333333333334,138.0626187125842L234.5,137.85581940412524L235.66666666666666,136.8612111012141L236.83333333333334,138.22423869371417L238,138.24470643202466L239.16666666666666,138.02437984943393L240.33333333333331,138.86302663882577L241.5,139.11836498975757L242.66666666666669,139.0733624895414L243.83333333333334,138.2045224706332L245,138.97318993012112L246.16666666666666,137.9386186997096L247.33333333333331,137.40309778849286L248.5,136.42749840021136L249.66666666666669,137.58076483011249L250.83333333333334,138.10532246033353L252,137.97133171558383L253.16666666666666,136.773372232914L254.33333333333334,138.93658671776456L255.5,139.6059657533964" style="fill: none;" fill="none"></path></g></g></g></g></g></g><g transform="translate(50, 178)" clip-path="url(#clip_1)"><clipPath id="clip_1"><rect width="280" height="22"></rect></clipPath><g><g><line x1="0" y1="0" x2="0" y2="5" style="visibility: inherit;" fill="rgb(0, 0, 0)" stroke="rgb(204, 204, 204)" stroke-width="1px"></line><line x1="23.333333333333332" y1="0" x2="23.333333333333332" y2="5" style="visibility: inherit;" fill="rgb(0, 0, 0)" stroke="rgb(204, 204, 204)" stroke-width="1px"></line><line x1="46.666666666666664" y1="0" x2="46.666666666666664" y2="5" style="visibility: inherit;" fill="rgb(0, 0, 0)" stroke="rgb(204, 204, 204)" stroke-width="1px"></line><line x1="70" y1="0" x2="70" y2="5" style="visibility: inherit;" fill="rgb(0, 0, 0)" stroke="rgb(204, 204, 204)" stroke-width="1px"></line><line x1="93.33333333333333" y1="0" x2="93.33333333333333" y2="5" style="visibility: inherit;" fill="rgb(0, 0, 0)" stroke="rgb(204, 204, 204)" stroke-width="1px"></line><line x1="116.66666666666667" y1="0" x2="116.66666666666667" y2="5" style="visibility: inherit;" fill="rgb(0, 0, 0)" stroke="rgb(204, 204, 204)" stroke-width="1px"></line><line x1="140" y1="0" x2="140" y2="5" style="visibility: inherit;" fill="rgb(0, 0, 0)" stroke="rgb(204, 204, 204)" stroke-width="1px"></line><line x1="163.33333333333334" y1="0" x2="163.33333333333334" y2="5" style="visibility: inherit;" fill="rgb(0, 0, 0)" stroke="rgb(204, 204, 204)" stroke-width="1px"></line><line x1="186.66666666666666" y1="0" x2="186.66666666666666" y2="5" style="visibility: inherit;" fill="rgb(0, 0, 0)" stroke="rgb(204, 204, 204)" stroke-width="1px"></line><line x1="210" y1="0" x2="210" y2="5" style="visibility: inherit;" fill="rgb(0, 0, 0)" stroke="rgb(204, 204, 204)" stroke-width="1px"></line><line x1="233.33333333333334" y1="0" x2="233.33333333333334" y2="5" style="visibility: inherit;" fill="rgb(0, 0, 0)" stroke="rgb(204, 204, 204)" stroke-width="1px"></line><line x1="256.66666666666663" y1="0" x2="256.66666666666663" y2="5" style="visibility: inherit;" fill="rgb(0, 0, 0)" stroke="rgb(204, 204, 204)" stroke-width="1px"></line><line x1="280" y1="0" x2="280" y2="5" style="visibility: inherit;" fill="rgb(0, 0, 0)" stroke="rgb(204, 204, 204)" stroke-width="1px"></line></g><g transform="translate(0, 8)"><text x="0" y="0" dx="0em" dy="0.95em" style="text-anchor: middle; visibility: hidden; font-family: Roboto, sans-serif; font-size: 12px; font-weight: 200;" fill="rgb(50, 49, 63)" stroke="none" stroke-width="1px">-20</text><text x="23.333333333333332" y="0" dx="0em" dy="0.95em" style="text-anchor: middle; visibility: inherit; font-family: Roboto, sans-serif; font-size: 12px; font-weight: 200;" fill="rgb(50, 49, 63)" stroke="none" stroke-width="1px">0</text><text x="46.666666666666664" y="0" dx="0em" dy="0.95em" style="text-anchor: middle; visibility: hidden; font-family: Roboto, sans-serif; font-size: 12px; font-weight: 200;" fill="rgb(50, 49, 63)" stroke="none" stroke-width="1px">20</text><text x="70" y="0" dx="0em" dy="0.95em" style="text-anchor: middle; visibility: inherit; font-family: Roboto, sans-serif; font-size: 12px; font-weight: 200;" fill="rgb(50, 49, 63)" stroke="none" stroke-width="1px">40</text><text x="93.33333333333333" y="0" dx="0em" dy="0.95em" style="text-anchor: middle; visibility: hidden; font-family: Roboto, sans-serif; font-size: 12px; font-weight: 200;" fill="rgb(50, 49, 63)" stroke="none" stroke-width="1px">60</text><text x="116.66666666666667" y="0" dx="0em" dy="0.95em" style="text-anchor: middle; visibility: inherit; font-family: Roboto, sans-serif; font-size: 12px; font-weight: 200;" fill="rgb(50, 49, 63)" stroke="none" stroke-width="1px">80</text><text x="140" y="0" dx="0em" dy="0.95em" style="text-anchor: middle; visibility: hidden; font-family: Roboto, sans-serif; font-size: 12px; font-weight: 200;" fill="rgb(50, 49, 63)" stroke="none" stroke-width="1px">100</text><text x="163.33333333333334" y="0" dx="0em" dy="0.95em" style="text-anchor: middle; visibility: inherit; font-family: Roboto, sans-serif; font-size: 12px; font-weight: 200;" fill="rgb(50, 49, 63)" stroke="none" stroke-width="1px">120</text><text x="186.66666666666666" y="0" dx="0em" dy="0.95em" style="text-anchor: middle; visibility: hidden; font-family: Roboto, sans-serif; font-size: 12px; font-weight: 200;" fill="rgb(50, 49, 63)" stroke="none" stroke-width="1px">140</text><text x="210" y="0" dx="0em" dy="0.95em" style="text-anchor: middle; visibility: inherit; font-family: Roboto, sans-serif; font-size: 12px; font-weight: 200;" fill="rgb(50, 49, 63)" stroke="none" stroke-width="1px">160</text><text x="233.33333333333334" y="0" dx="0em" dy="0.95em" style="text-anchor: middle; visibility: hidden; font-family: Roboto, sans-serif; font-size: 12px; font-weight: 200;" fill="rgb(50, 49, 63)" stroke="none" stroke-width="1px">180</text><text x="256.66666666666663" y="0" dx="0em" dy="0.95em" style="text-anchor: middle; visibility: inherit; font-family: Roboto, sans-serif; font-size: 12px; font-weight: 200;" fill="rgb(50, 49, 63)" stroke="none" stroke-width="1px">200</text><text x="280" y="0" dx="0em" dy="0.95em" style="text-anchor: middle; visibility: hidden; font-family: Roboto, sans-serif; font-size: 12px; font-weight: 200;" fill="rgb(50, 49, 63)" stroke="none" stroke-width="1px">220</text></g><line x1="0" y1="0" x2="280" y2="0" fill="rgb(0, 0, 0)" stroke="rgb(204, 204, 204)" stroke-width="1px"></line></g></g></g></g></svg>