<svg viewBox="0 0 330 200" xmlns="http://www.w3.org/2000/svg"><g><g><g><g><g><line x1="40" y1="178" x2="35" y2="178" style="visibility: inherit;" fill="rgb(0, 0, 0)" stroke="rgb(204, 204, 204)" stroke-width="1px"></line><line x1="40" y1="155.75" x2="35" y2="155.75" style="visibility: inherit;" fill="rgb(0, 0, 0)" stroke="rgb(204, 204, 204)" stroke-width="1px"></line><line x1="40" y1="133.5" x2="35" y2="133.5" style="visibility: inherit;" fill="rgb(0, 0, 0)" stroke="rgb(204, 204, 204)" stroke-width="1px"></line><line x1="40" y1="111.25" x2="35" y2="111.25" style="visibility: inherit;" fill="rgb(0, 0, 0)" stroke="rgb(204, 204, 204)" stroke-width="1px"></line><line x1="40" y1="89" x2="35" y2="89" style="visibility: inherit;" fill="rgb(0, 0, 0)" stroke="rgb(204, 204, 204)" stroke-width="1px"></line><line x1="40" y1="66.75" x2="35" y2="66.75" style="visibility: inherit;" fill="rgb(0, 0, 0)" stroke="rgb(204, 204, 204)" stroke-width="1px"></line><line x1="40" y1="44.49999999999998" x2="35" y2="44.49999999999998" style="visibility: inherit;" fill="rgb(0, 0, 0)" stroke="rgb(204, 204, 204)" stroke-width="1px"></line><line x1="40" y1="22.25000000000002" x2="35" y2="22.25000000000002" style="visibility: inherit;" fill="rgb(0, 0, 0)" stroke="rgb(204, 204, 204)" stroke-width="1px"></line><line x1="40" y1="0" x2="35" y2="0" style="visibility: inherit;" fill="rgb(0, 0, 0)" stroke="rgb(204, 204, 204)" stroke-width="1px"></line></g><g transform="translate(30, 0)"><text x="0" y="178" dx="0em" dy="0.3em" style="text-anchor: end; visibility: hidden; font-family: Roboto, sans-serif; font-size: 12px; font-weight: 200;" fill="rgb(50, 49, 63)" stroke="none" stroke-width="1px">1</text><text x="0" y="155.75" dx="0em" dy="0.3em" style="text-anchor: end; visibility: inherit; font-family: Roboto, sans-serif; font-size: 12px; font-weight: 200;" fill="rgb(50, 49, 63)" stroke="none" stroke-width="1px">1.2</text><text x="0" y="133.5" dx="0em" dy="0.3em" style="text-anchor: end; visibility: hidden; font-family: Roboto, sans-serif; font-size: 12px; font-weight: 200;" fill="rgb(50, 49, 63)" stroke="none" stroke-width="1px">1.4</text><text x="0" y="111.25" dx="0em" dy="0.3em" style="text-anchor: end; visibility: inherit; font-family: Roboto, sans-serif; font-size: 12px; font-weight: 200;" fill="rgb(50, 49, 63)" stroke="none" stroke-width="1px">1.6</text><text x="0" y="89" dx="0em" dy="0.3em" style="text-anchor: end; visibility: hidden; font-family: Roboto, sans-serif; font-size: 12px; font-weight: 200;" fill="rgb(50, 49, 63)" stroke="none" stroke-width="1px">1.8</text><text x="0" y="66.75" dx="0em" dy="0.3em" style="text-anchor: end; visibility: inherit; font-family: Roboto, sans-serif; font-size: 12px; font-weight: 200;" fill="rgb(50, 49, 63)" stroke="none" stroke-width="1px">2</text><text x="0" y="44.49999999999998" dx="0em" dy="0.3em" style="text-anchor: end; visibility: hidden; font-family: Roboto, sans-serif; font-size: 12px; font-weight: 200;" fill="rgb(50, 49, 63)" stroke="none" stroke-width="1px">2.2</text><text x="0" y="22.25000000000002" dx="0em" dy="0.3em" style="text-anchor: end; visibility: inherit; font-family: Roboto, sans-serif; font-size: 12px; font-weight: 200;" fill="rgb(50, 49, 63)" stroke="none" stroke-width="1px">2.4</text><text x="0" y="0" dx="0em" dy="0.3em" style="text-anchor: end; visibility: hidden; font-family: Roboto, sans-serif; font-size: 12px; font-weight: 200;" fill="rgb(50, 49, 63)" stroke="none" stroke-width="1px">2.6</text></g><line x1="40" y1="0" x2="40" y2="178" fill="rgb(0, 0, 0)" stroke="rgb(204, 204, 204)" stroke-width="1px"></line></g></g><g transform="translate(40, 0)" clip-path="url(#clip_0)"><clipPath id="clip_0"><rect width="290" height="178"></rect></clipPath><g><g><g><line x1="0" y1="0" x2="0" y2="178" fill="rgb(0, 0, 0)" stroke="rgb(60, 60, 60)" stroke-width="1px" opacity="0.25"></line><line x1="24.166666666666664" y1="0" x2="24.166666666666664" y2="178" fill="rgb(0, 0, 0)" stroke="rgb(60, 60, 60)" stroke-width="1px" opacity="0.25"></line><line x1="48.33333333333333" y1="0" x2="48.33333333333333" y2="178" fill="rgb(0, 0, 0)" stroke="rgb(60, 60, 60)" stroke-width="1px" opacity="0.25"></line><line x1="72.5" y1="0" x2="72.5" y2="178" fill="rgb(0, 0, 0)" stroke="rgb(60, 60, 60)" stroke-width="1px" opacity="0.25"></line><line x1="96.66666666666666" y1="0" x2="96.66666666666666" y2="178" fill="rgb(0, 0, 0)" stroke="rgb(60, 60, 60)" stroke-width="1px" opacity="0.25"></line><line x1="120.83333333333334" y1="0" x2="120.83333333333334" y2="178" fill="rgb(0, 0, 0)" stroke="rgb(60, 60, 60)" stroke-width="1px" opacity="0.25"></line><line x1="145" y1="0" x2="145" y2="178" fill="rgb(0, 0, 0)" stroke="rgb(60, 60, 60)" stroke-width="1px" opacity="0.25"></line><line x1="169.16666666666669" y1="0" x2="169.16666666666669" y2="178" fill="rgb(0, 0, 0)" stroke="rgb(60, 60, 60)" stroke-width="1px" opacity="0.25"></line><line x1="193.33333333333331" y1="0" x2="193.33333333333331" y2="178" fill="rgb(0, 0, 0)" stroke="rgb(60, 60, 60)" stroke-width="1px" opacity="0.25"></line><line x1="217.5" y1="0" x2="217.5" y2="178" fill="rgb(0, 0, 0)" stroke="rgb(60, 60, 60)" stroke-width="1px" opacity="0.25"></line><line x1="241.66666666666669" y1="0" x2="241.66666666666669" y2="178" fill="rgb(0, 0, 0)" stroke="rgb(60, 60, 60)" stroke-width="1px" opacity="0.25"></line><line x1="265.8333333333333" y1="0" x2="265.8333333333333" y2="178" fill="rgb(0, 0, 0)" stroke="rgb(60, 60, 60)" stroke-width="1px" opacity="0.25"></line><line x1="290" y1="0" x2="290" y2="178" fill="rgb(0, 0, 0)" stroke="rgb(60, 60, 60)" stroke-width="1px" opacity="0.25"></line></g><g><line x1="0" y1="178" x2="290" y2="178" fill="rgb(0, 0, 0)" stroke="rgb(60, 60, 60)" stroke-width="1px" opacity="0.25"></line><line x1="0" y1="155.75" x2="290" y2="155.75" fill="rgb(0, 0, 0)" stroke="rgb(60, 60, 60)" stroke-width="1px" opacity="0.25"></line><line x1="0" y1="133.5" x2="290" y2="133.5" fill="rgb(0, 0, 0)" stroke="rgb(60, 60, 60)" stroke-width="1px" opacity="0.25"></line><line x1="0" y1="111.25" x2="290" y2="111.25" fill="rgb(0, 0, 0)" stroke="rgb(60, 60, 60)" stroke-width="1px" opacity="0.25"></line><line x1="0" y1="89" x2="290" y2="89" fill="rgb(0, 0, 0)" stroke="rgb(60, 60, 60)" stroke-width="1px" opacity="0.25"></line><line x1="0" y1="66.75" x2="290" y2="66.75" fill="rgb(0, 0, 0)" stroke="rgb(60, 60, 60)" stroke-width="1px" opacity="0.25"></line><line x1="0" y1="44.49999999999998" x2="290" y2="44.49999999999998" fill="rgb(0, 0, 0)" stroke="rgb(60, 60, 60)" stroke-width="1px" opacity="0.25"></line><line x1="0" y1="22.25000000000002" x2="290" y2="22.25000000000002" fill="rgb(0, 0, 0)" stroke="rgb(60, 60, 60)" stroke-width="1px" opacity="0.25"></line><line x1="0" y1="0" x2="290" y2="0" fill="rgb(0, 0, 0)" stroke="rgb(60, 60, 60)" stroke-width="1px" opacity="0.25"></line></g></g></g><g><g><line x1="0" y1="289.25" x2="290" y2="289.25" fill="rgb(0, 0, 0)" stroke="rgb(153, 153, 153)" stroke-width="1.5px"></line></g></g><g><g><line x1="24.166666666666664" y1="0" x2="24.166666666666664" y2="178" fill="rgb(0, 0, 0)" stroke="rgb(153, 153, 153)" stroke-width="1.5px"></line></g></g><g><g><g><g><g><path stroke="rgb(255, 112, 67)" stroke-width="2px" d="M25.133333333333333,180.36816044668763L25.616666666666667,149.155514183509L26.099999999999998,123.44323516752388L26.583333333333332,102.38952128549938L27.066666666666666,85.4041741108332L27.55,84.53619005405879L28.03333333333333,87.90168865836404L28.516666666666666,96.605313564827L29,100.239134390355L29.483333333333334,97.79249367851978L29.966666666666665,90.68369289930521L30.45,84.09614065759197L30.933333333333334,84.4915944721218L31.416666666666668,81.63361934923142L31.9,79.5840877714749L32.38333333333333,76.90113128133584L32.86666666666667,71.43343481229964L33.35,71.96143128601332L33.833333333333336,71.81055012239898L34.31666666666666,69.49169143607635L34.8,68.33913546499207L35.28333333333334,68.19797939945441L35.766666666666666,66.12290924262983L36.25,61.672219775528745L36.733333333333334,62.38695376497719L37.21666666666666,56.42363817092328L37.7,49.389563964444115L38.18333333333333,42.23202564233734L38.666666666666664,41.166830457504474L39.150000000000006,42.38191561669058L39.63333333333333,40.7723819963649L40.11666666666667,36.136940403242036L40.6,31.917285967921703L41.083333333333336,30.85035392677338L41.56666666666667,27.09228001316543L42.05,31.209588151247036L42.53333333333333,32.82569648451296L43.01666666666667,37.07092460738871L43.5,38.743562990262056L43.983333333333334,41.36026550289785L44.46666666666666,42.52411866791947L44.95,38.81206176579005L45.43333333333334,39.73614140698987L45.916666666666664,39.54908237664538L46.4,40.0500939954029L46.88333333333333,39.75510834864349L47.36666666666667,41.59922964105454L47.85,43.42478048045588L48.33333333333333,40.90923060916128L48.81666666666667,36.41843641960663L49.300000000000004,29.751121504080793L49.78333333333333,27.362228764872725L50.266666666666666,24.25638094769581L50.75,20.29708902374754L51.233333333333334,17.8099005957589L51.71666666666667,16.23220126272095L52.199999999999996,6.555662467722421L52.68333333333334,3.5583620277906256L53.166666666666664,3.547449243537473L53.65,8.88045087604045L54.13333333333333,11.184629602124254L54.61666666666667,15.662951661878843L55.1,22.371937700351552L55.583333333333336,24.825046293878838L56.06666666666666,27.625915737714962L56.550000000000004,31.109257013658624L57.03333333333333,33.08237552109957L57.516666666666666,31.84585125126597L58,36.23932494448517L58.483333333333334,43.15889743403726L58.96666666666667,46.122797724223936L59.449999999999996,45.97766561306527L59.93333333333333,50.535098999720894L60.41666666666667,53.797812348593546L60.9,55.96744192003567L61.38333333333333,56.769283439870804L61.86666666666667,62.11134800085789L62.35,65.47489828329898L62.833333333333336,64.13010036028396L63.31666666666666,69.2735246841727L63.8,74.74671347288002L64.28333333333333,76.00165233223265L64.76666666666667,79.23488645081893L65.25,85.12793672278627L65.73333333333333,86.3757955681986L66.21666666666667,87.93407844613235L66.7,93.03058939641858L67.18333333333334,94.17482167164175L67.66666666666667,96.38616068172269L68.14999999999999,99.82642295961266L68.63333333333333,102.59342035654L69.11666666666667,104.5119207680393L69.6,105.99520842910819L70.08333333333333,108.57280130792269L70.56666666666668,109.03784881596928L71.05,112.35539485553007L71.53333333333333,113.16949523412647L72.01666666666667,117.00487893178142L72.5,118.23715211960125L72.98333333333333,119.25409569747713L73.46666666666667,120.40981415753046L73.95,120.79152909424592L74.43333333333332,121.82713901702576L74.91666666666667,122.58873771252641L75.4,124.29064644946105L75.88333333333333,125.79507080062298L76.36666666666666,125.63685822095913L76.85000000000001,126.03575575117137L77.33333333333333,127.26880782701889L77.81666666666666,127.44675323878717L78.30000000000001,129.50005809971682L78.78333333333333,129.65926982467766L79.26666666666667,130.13399553004143L79.75,130.08357205214045L80.23333333333333,131.1695674075004L80.71666666666667,131.73918403466445L81.2,132.01995926666197L81.68333333333334,132.2290327523228L82.16666666666667,133.18586311185814L82.64999999999999,134.35610564616L83.13333333333334,134.043403232495L83.61666666666666,133.56886034274103L84.1,133.45999978222846L84.58333333333334,134.3059920325184L85.06666666666666,135.30602259959602L85.55,135.7892183394779L86.03333333333335,136.05577869007286L86.51666666666667,136.4170431780177L87,136.59943728967653L87.48333333333333,136.1694219787368L87.96666666666667,136.8143609928756L88.45,137.0269710998338L88.93333333333332,137.0474117625118L89.41666666666667,137.74866532256368L89.9,138.43563951832155L90.38333333333333,138.94952261318025L90.86666666666667,139.33643267076766L91.35,139.40899400425886L91.83333333333333,139.62076235123237L92.31666666666668,140.18486041014052L92.8,140.39561116805467L93.28333333333333,141.31660596198316L93.76666666666667,141.58524678746747L94.25,142.0890267407887L94.73333333333333,142.54223256802518L95.21666666666665,142.56479800639127L95.7,143.1054235273455L96.18333333333334,143.12406122528637L96.66666666666666,143.4877168646045L97.15,143.52427343789262L97.63333333333334,144.18155957617475L98.11666666666666,143.89193392609425L98.60000000000001,143.8912545967988L99.08333333333333,143.81511017852375L99.56666666666666,144.00098924144118L100.05,143.7982064861298L100.53333333333333,143.75056550373083L101.01666666666667,143.55475197714233L101.5,143.23373939085997L101.98333333333333,143.26826272898316L102.46666666666667,143.43453020151497L102.94999999999999,143.77130444226287L103.43333333333334,143.96953891144764L103.91666666666667,144.23766155497177L104.39999999999999,144.45529133949245L104.88333333333334,144.80291564985254L105.36666666666667,144.80303228929125L105.85,144.7482770266204L106.33333333333333,144.78054045331888L106.81666666666668,144.90789390023L107.3,144.86440657624868L107.78333333333333,145.1064937177257L108.26666666666667,145.29912859576677L108.75,145.4820063851937L109.23333333333333,145.27024014846472L109.71666666666667,145.30990008149138L110.2,145.24124905844684L110.68333333333332,145.22551624405475L111.16666666666667,145.28907609241062L111.65,145.26950624142202L112.13333333333333,145.69587825867004L112.61666666666666,145.67921972949782L113.10000000000001,145.52026545214343L113.58333333333333,145.566441221283L114.06666666666666,145.47876168682942L114.55000000000001,145.57098598119478L115.03333333333333,145.51242621443785L115.51666666666667,145.73559763254L116,145.5816029561834L116.48333333333333,145.45191861708616L116.96666666666667,145.69360100936686L117.45,145.62451878614303L117.93333333333334,145.26941705600666L118.41666666666667,145.11334562812L118.89999999999999,145.3471423775777L119.38333333333334,145.17241530363708L119.86666666666666,144.9329004570541L120.35,145.11679029969554L120.83333333333334,145.06320016687027L121.31666666666666,144.83489530745095L121.8,144.74002730526297L122.28333333333335,144.8180662612782L122.76666666666667,144.47994054679074L123.25,144.50419070317747L123.73333333333333,144.79049577709674L124.21666666666667,145.02238766191385L124.7,144.89266954563846L125.18333333333332,144.72405209960215L125.66666666666667,144.90497038854167L126.15,145.10500817354324L126.63333333333333,145.09046364340665L127.11666666666667,144.7513584525197L127.6,144.76278271858743L128.08333333333334,144.75653438916714L128.56666666666666,145.0054801771099L129.05,145.09704640323247L129.53333333333333,145.13988585957486L130.01666666666665,145.0901126485383L130.5,145.0734948409388L130.98333333333332,144.97802647905286L131.46666666666667,145.06402847145043L131.95000000000002,145.0069128213766L132.43333333333334,145.13558077445285L132.91666666666666,145.24552815932427L133.4,145.00104830132958L133.88333333333333,145.2676849214258L134.36666666666667,144.98760609913006L134.85,145.22520197086416L135.33333333333334,145.3858223834806L135.81666666666666,145.25329723830066L136.29999999999998,145.3890673927965L136.78333333333333,145.3074701316656L137.26666666666665,145.69672118946917L137.75,145.38764246299866L138.23333333333335,145.34625273939972L138.71666666666667,145.60690274236802L139.2,145.29623575447917L139.68333333333334,145.32755571269345L140.16666666666666,145.23082476653664L140.65,145.27310552476652L141.13333333333335,145.1613551633287L141.61666666666667,145.2117269907432L142.1,145.1104808970712L142.58333333333331,145.2508387162937L143.06666666666666,145.2501392599734L143.55,145.31825247030213L144.03333333333333,145.37257870805712L144.51666666666668,145.53760381205348L145,145.33983048000016L145.48333333333335,145.37925522445488L145.96666666666667,145.3642910296848L146.45,145.4077930316407L146.93333333333334,145.22377587944737L147.41666666666666,145.25727456563993L147.9,145.23215024324824L148.38333333333335,144.99196589382032L148.86666666666665,144.93942697281562L149.35,144.94503731390787L149.83333333333334,144.967097680932L150.31666666666666,144.99375507901055L150.8,144.887897954404L151.28333333333333,144.73371911407688L151.76666666666665,144.6723935029577L152.25,144.57371748815004L152.73333333333332,144.9978970845343L153.21666666666667,144.72558912991292L153.70000000000002,144.7000021896291L154.1833333333333,144.37675865659284L154.66666666666666,144.29695620637634L155.15,144.47616318763195L155.63333333333333,144.30066497266827L156.11666666666667,144.29563232148013L156.60000000000002,144.41162621905997L157.08333333333331,144.43002580362912L157.56666666666666,144.2621501133344L158.05,144.4070746925772L158.53333333333333,144.0610558764518L159.01666666666668,144.14609522678737L159.5,143.72186060582567L159.98333333333332,143.624411272019L160.46666666666667,143.56994680584063L160.95000000000002,143.5179904342925L161.43333333333334,143.58979364879343L161.91666666666666,143.53713430552133L162.4,143.5215274071005L162.88333333333333,143.44095145316763L163.36666666666667,143.3678324022999L163.85,143.02889664167824L164.33333333333334,143.21167255160012L164.81666666666666,143.1435313625145L165.29999999999998,143.06403291243362L165.78333333333333,143.2211314679268L166.26666666666668,143.2508044982602L166.75,143.0477211919218L167.23333333333332,142.708230629372L167.71666666666667,142.73727436948263L168.2,142.6854515796211L168.68333333333334,142.63791828902401L169.16666666666669,142.36338759393595L169.64999999999998,142.55835143882695L170.13333333333333,142.5774241099278L170.61666666666667,142.46746705827235L171.1,142.7265293530054L171.58333333333334,142.37059863397045L172.0666666666667,142.45530333512164L172.54999999999998,142.58368252750122L173.03333333333333,142.20197100064684L173.51666666666668,142.13735616577583L174,142.13096784575532L174.48333333333335,142.1098040284142L174.96666666666667,141.91282182582768L175.45,141.83733625202507L175.93333333333334,141.81988987320145L176.41666666666666,142.13527551289485L176.9,142.1631291687255L177.38333333333335,141.79420264838726L177.86666666666665,141.7127664940273L178.35,141.5449019227454L178.83333333333334,141.5041381808537L179.31666666666666,141.2589360411416L179.8,141.24710341307227L180.28333333333333,141.25623656518877L180.76666666666665,141.10866198067438L181.25,140.98400206044062L181.73333333333335,141.0230314891025L182.21666666666667,141.05140914681462L182.7,140.95715667106455L183.18333333333334,140.65549628316012L183.66666666666666,140.63240312563568L184.15,140.58200767652505L184.63333333333335,140.4075166166801L185.11666666666665,140.47057609444732L185.6,140.1615724723689L186.08333333333334,139.91810911662296L186.56666666666666,140.0983620033676L187.05,139.94254622137635L187.53333333333333,139.74833426044037L188.01666666666665,139.80816560486346L188.5,139.83360862433548L188.98333333333332,139.47630678236268L189.46666666666667,139.35677043568955L189.95000000000002,139.36134245378892L190.4333333333333,139.36252604951332L190.91666666666666,139.42200292962713L191.4,139.22991098056983L191.88333333333333,138.9371408408329L192.36666666666667,138.6250389567283L192.85000000000002,138.76320160336897L193.33333333333331,138.70139449183705L193.81666666666666,138.6751108249698L194.3,138.33730662349905L194.78333333333333,138.5558262853864L195.26666666666668,138.68005773955838L195.75,138.4834941240207L196.23333333333332,138.4713975913558L196.71666666666667,138.3127190784951L197.20000000000002,138.06312598683476L197.68333333333334,138.1963500970485L198.16666666666666,138.15678303205263L198.65,138.16817657210407L199.13333333333333,137.9589741710304L199.61666666666667,137.95131507417435L200.1,137.89304551423118L200.58333333333334,137.91053246820283L201.06666666666666,137.7028111419935L201.54999999999998,137.72608184825532L202.03333333333333,137.84879294640513L202.51666666666668,137.5172538733881L203,137.57834585764414L203.48333333333332,137.42717352067476L203.96666666666667,137.31135713192847L204.45,137.53287875135555L204.93333333333334,137.379162046193L205.41666666666669,137.2734949307912L205.89999999999998,136.89416119559246L206.38333333333333,136.83742899360442L206.86666666666667,136.98403978742473L207.35,136.84061030386275L207.83333333333334,136.7507331480884L208.3166666666667,136.7773604458751L208.79999999999998,136.60904230273854L209.28333333333333,136.58699764965232L209.76666666666668,136.3486451873675L210.25,136.17500371751163L210.73333333333335,136.5215476096688L211.21666666666667,136.50719165450442L211.7,136.50724614647692L212.18333333333334,136.2208878814439L212.66666666666666,136.15683490152716L213.15,136.06503138611055L213.63333333333335,136.20022762816748L214.11666666666665,136.0510209858513L214.6,135.86424916148758L215.08333333333334,135.79608339763033L215.56666666666666,135.6302078407785L216.05,135.62446099768763L216.53333333333333,135.83431943804433L217.01666666666665,135.77152637571342L217.5,135.72397828060537L217.98333333333335,135.6086149332413L218.46666666666667,135.47015319570832L218.95,135.4277534622248L219.43333333333334,135.21693161358215L219.91666666666666,135.2454504563199L220.4,135.26723530255478L220.88333333333335,134.9142369530363L221.36666666666665,135.05984444032688L221.85,135.01952207452405L222.33333333333334,135.05116181591956L222.81666666666666,134.8922434390772L223.3,134.7918157065623L223.78333333333333,134.9192911079355L224.26666666666665,134.76404088084863L224.75,134.51314150896647L225.23333333333332,134.26194835667L225.71666666666667,134.12714690544715L226.20000000000002,134.1562348161847L226.6833333333333,133.96418987242643L227.16666666666666,134.02815419750368L227.65,134.09513104150864L228.13333333333333,134.05137378090723L228.61666666666667,133.89515680142702L229.10000000000002,133.60948785584247L229.58333333333331,133.60972903037717L230.06666666666666,133.49123158374218L230.55,133.76542872380486L231.03333333333333,133.61749880427882L231.51666666666668,133.39544150182465L232,133.1930747923187L232.48333333333332,133.23275133949113L232.96666666666667,133.20599178660862L233.45000000000002,132.970444096261L233.93333333333334,132.99718257971628L234.41666666666666,133.00830810778157L234.9,133.044817695098L235.38333333333333,133.02600369994454L235.86666666666667,132.83842043962846L236.35,132.78134291700582L236.83333333333334,132.83744268019237L237.31666666666666,132.97206905126117L237.79999999999998,132.77941887759889L238.28333333333333,132.43374310245352L238.76666666666668,132.47976979202173L239.25,132.33353115669573L239.73333333333332,132.38446640701108L240.21666666666667,132.41059803802378L240.7,132.24329808854228L241.18333333333334,132.01132161321144L241.66666666666669,132.06280133069697L242.14999999999998,131.86795874202932L242.63333333333333,131.78257969477585L243.11666666666667,131.68704646503218L243.6,131.60341465279632L244.08333333333334,131.82900628927453L244.5666666666667,131.56800683428708L245.04999999999998,131.90794830375827L245.53333333333333,131.97851834806156L246.01666666666668,131.69436502523632L246.5,131.4990518097127L246.98333333333335,131.15335904383926L247.46666666666667,131.00785586133162L247.95,130.99899092253779L248.43333333333334,130.83720118365727L248.91666666666666,130.8994627151611L249.4,131.0352133127286L249.88333333333335,131.0824635393759L250.36666666666665,130.78888577028158L250.85,130.77981951119926L251.33333333333334,130.70187356640352L251.81666666666666,130.6781448040572L252.3,130.63668854917094L252.78333333333333,130.37163406541944L253.26666666666665,130.14365471560362L253.75,130.2887012312329L254.23333333333335,130.07822990116574L254.71666666666667,130.21192539749802L255.2,130.1160016716615L255.68333333333334,129.96495010024879L256.1666666666667,130.01461025218114L256.65,129.8623875864741L257.1333333333333,129.88044984867557L257.6166666666667,129.71949612933625L258.1,129.84509478711027L258.58333333333337,129.6358878773626L259.06666666666666,129.75796589625932L259.55,129.54539997203983L260.0333333333333,129.4293665577402L260.51666666666665,129.46615576085034L261,129.494382866243L261.4833333333333,129.45133229972092L261.96666666666664,129.2467827968667L262.45,129.22662166195335L262.93333333333334,129.03669702671303L263.4166666666667,129.12685555018385L263.90000000000003,129.1346608626687L264.3833333333333,129.09193493293785L264.8666666666667,128.85880159954468L265.35,128.75772630942012" style="fill: none;" fill="none"></path></g></g></g></g><g opacity="0.2"><g><g><g><path stroke="rgb(255, 112, 67)" stroke-width="2px" d="M24.650000000000002,205.68605314195156L25.133333333333333,160.79828056693077L25.616666666666667,112.44944217801094L26.099999999999998,89.87328368425369L26.583333333333332,73.26465564966202L27.066666666666666,61.114855885505676L27.55,83.27066096663475L28.03333333333333,92.86514538526535L28.516666666666666,109.52918219566345L29,105.65690714120865L29.483333333333334,94.13584712147713L29.966666666666665,80.04370319843292L30.45,74.22771799564362L30.933333333333334,85.08431035280228L31.416666666666668,77.34867233037949L31.9,76.51065769791603L32.38333333333333,72.87737774848938L32.86666666666667,63.23272305727005L33.35,72.75337773561478L33.833333333333336,71.58423665165901L34.31666666666666,66.01347970962524L34.8,66.61032426357269L35.28333333333334,67.98624697327614L35.766666666666666,63.010318756103516L36.25,54.99620455503464L36.733333333333334,63.45905292034149L37.21666666666666,47.47867393493652L37.7,38.83845913410187L38.18333333333333,31.495722115039825L38.666666666666664,39.56903803348541L39.150000000000006,44.204543113708496L39.63333333333333,38.35808175802231L40.11666666666667,29.18377834558487L40.6,25.5878044962883L41.083333333333336,29.249955892562866L41.56666666666667,21.455169200897217L42.05,37.38555032014847L42.53333333333333,35.24985897541046L43.01666666666667,43.43876677751541L43.5,41.25252056121826L43.983333333333334,45.28531926870346L44.46666666666666,44.269898414611816L44.95,33.243976414203644L45.43333333333334,41.12226086854935L45.916666666666664,39.268493831157684L46.4,40.80161142349243L46.88333333333333,39.312629878520966L47.36666666666667,44.36541157960892L47.85,46.16310673952103L48.33333333333333,37.13590580224991L48.81666666666667,29.682245135307312L49.300000000000004,19.750149130821228L49.78333333333333,23.778889656066895L50.266666666666666,19.597609221935272L50.75,14.358151137828827L51.233333333333334,14.079117953777313L51.71666666666667,13.86565226316452L52.199999999999996,-7.959145724773407L52.68333333333334,-0.937588632106781L53.166666666666664,3.5310800671577454L53.65,16.87995332479477L54.13333333333333,14.640897691249847L54.61666666666667,22.38043475151062L55.1,32.435416758060455L55.583333333333336,28.50470918416977L56.06666666666666,31.827219903469086L56.550000000000004,36.33426892757416L57.03333333333333,36.042053282260895L57.516666666666666,29.991064846515656L58,42.829535484313965L58.483333333333334,53.53825616836548L58.96666666666667,50.56864815950394L59.449999999999996,45.75996744632721L59.93333333333333,57.371249079704285L60.41666666666667,58.691882371902466L60.9,59.22188627719879L61.38333333333333,57.972045719623566L61.86666666666667,70.12444484233856L62.35,70.52022370696068L62.833333333333336,62.112903475761414L63.31666666666666,76.9886611700058L63.8,82.95649665594101L64.28333333333333,77.8840606212616L64.76666666666667,84.08473762869835L65.25,93.9675121307373L65.73333333333333,88.24758383631706L66.21666666666667,90.27150276303291L66.7,100.67535582184792L67.18333333333334,95.89117008447647L67.66666666666667,99.7031691968441L68.14999999999999,104.98681637644768L68.63333333333333,106.743916451931L69.11666666666667,107.38967138528824L69.6,108.22013992071152L70.08333333333333,112.43919062614441L70.56666666666668,109.73542007803917L71.05,117.33171391487122L71.53333333333333,114.39064580202103L72.01666666666667,122.75795447826385L72.5,120.08556190133095L72.98333333333333,120.779511064291L73.46666666666667,122.14339184761047L73.95,121.36410149931908L74.43333333333332,123.38055390119553L74.91666666666667,123.73113575577736L75.4,126.84350955486298L75.88333333333333,128.05170732736588L76.36666666666666,125.39953935146332L76.85000000000001,126.63410204648972L77.33333333333333,129.11838594079018L77.81666666666666,127.71367135643959L78.30000000000001,132.58001539111137L78.78333333333333,129.8980874121189L79.26666666666667,130.84608408808708L79.75,130.007936835289L80.23333333333333,132.7985604405403L80.71666666666667,132.59360897541046L81.2,132.44112211465836L81.68333333333334,132.54264298081398L82.16666666666667,134.6211086511612L82.64999999999999,136.11146944761276L83.13333333333334,133.5743496119976L83.61666666666666,132.85704600811005L84.1,133.29670894145966L84.58333333333334,135.57498040795326L85.06666666666666,136.80606845021248L85.55,136.51401194930077L86.03333333333335,136.45561921596527L86.51666666666667,136.958939909935L87,136.87302845716476L87.48333333333333,135.5243990123272L87.96666666666667,137.78176951408386L88.45,137.34588626027107L88.93333333333332,137.07807275652885L89.41666666666667,138.80054566264153L89.9,139.4661008119583L90.38333333333333,139.72034725546837L90.86666666666667,139.91679775714874L91.35,139.51783600449562L91.83333333333333,139.93841487169266L92.31666666666668,141.03100749850273L92.8,140.71173730492592L93.28333333333333,142.6980981528759L93.76666666666667,141.9882080256939L94.25,142.84469667077065L94.73333333333333,143.22204130887985L95.21666666666665,142.59864616394043L95.7,143.91636180877686L96.18333333333334,143.15201777219772L96.66666666666666,144.0332003235817L97.15,143.57910829782486L97.63333333333334,145.16748878359795L98.11666666666666,143.4574954509735L98.60000000000001,143.89023560285568L99.08333333333333,143.70089355111122L99.56666666666666,144.27980783581734L100.05,143.49403235316277L100.53333333333333,143.6791040301323L101.01666666666667,143.26103168725967L101.5,142.75222051143646L101.98333333333333,143.3200477361679L102.46666666666667,143.68393141031265L102.94999999999999,144.27646580338478L103.43333333333334,144.26689061522484L103.91666666666667,144.63984552025795L104.39999999999999,144.7817360162735L104.88333333333334,145.32435211539268L105.36666666666667,144.80320724844933L105.85,144.66614413261414L106.33333333333333,144.82893559336662L106.81666666666668,145.0989240705967L107.3,144.79917559027672L107.78333333333333,145.46962442994118L108.26666666666667,145.58808091282845L108.75,145.75632306933403L109.23333333333333,144.9525907933712L109.71666666666667,145.36938998103142L110.2,145.13827252388L110.68333333333332,145.20191702246666L111.16666666666667,145.38441586494446L111.65,145.24015146493912L112.13333333333333,146.33543628454208L112.61666666666666,145.65423193573952L113.10000000000001,145.28183403611183L113.58333333333333,145.63570487499237L114.06666666666666,145.347242385149L114.55000000000001,145.70932242274284L115.03333333333333,145.42458656430244L115.51666666666667,146.07035475969315L116,145.35061094164848L116.48333333333333,145.2573921084404L116.96666666666667,146.05612459778786L117.45,145.5208954513073L117.93333333333334,144.73676446080208L118.41666666666667,144.87923848628998L118.89999999999999,145.6978375017643L119.38333333333334,144.91032469272614L119.86666666666666,144.57362818717957L120.35,145.39262506365776L120.83333333333334,144.9828149676323L121.31666666666666,144.492438018322L121.8,144.59772530198097L122.28333333333335,144.93512469530106L122.76666666666667,143.9727519750595L123.25,144.5405659377575L123.73333333333333,145.2199533879757L124.21666666666667,145.37022548913956L124.7,144.69809237122536L125.18333333333332,144.47112593054771L125.66666666666667,145.1763478219509L126.15,145.4050648510456L126.63333333333333,145.06864684820175L127.11666666666667,144.2427006661892L127.6,144.77991911768913L128.08333333333334,144.7471618950367L128.56666666666666,145.37889885902405L129.05,145.23439574241638L129.53333333333333,145.20414504408836L130.01666666666665,145.01545283198357L130.5,145.0485681295395L130.98333333333332,144.83482393622398L131.46666666666667,145.19303146004677L131.95000000000002,144.9212393462658L132.43333333333334,145.32858270406723L132.91666666666666,145.4104492366314L133.4,144.63432851433754L133.88333333333333,145.66763985157013L134.36666666666667,144.56748786568642L134.85,145.58159577846527L135.33333333333334,145.62675300240517L135.81666666666666,145.0545095205307L136.29999999999998,145.59272262454033L136.78333333333333,145.18507423996925L137.26666666666665,146.28059777617455L137.75,144.92402437329292L138.23333333333335,145.28416815400124L138.71666666666667,145.99787774682045L139.2,144.83023527264595L139.68333333333334,145.37453565001488L140.16666666666666,145.08572834730148L140.65,145.33652666211128L141.13333333333335,144.99372962117195L141.61666666666667,145.28728473186493L142.1,144.9586117565632L142.58333333333331,145.4613754451275L143.06666666666666,145.24909007549286L143.55,145.4204222857952L144.03333333333333,145.45406806468964L144.51666666666668,145.7851414680481L145,145.04317048192024L145.48333333333335,145.43839234113693L145.96666666666667,145.34184473752975L146.45,145.4730460345745L146.93333333333334,144.94775015115738L147.41666666666666,145.30752259492874L147.9,145.19446375966072L148.38333333333335,144.6316893696785L148.86666666666665,144.8606185913086L149.35,144.95345282554626L149.83333333333334,145.0001882314682L150.31666666666666,145.0337411761284L150.8,144.7291122674942L151.28333333333333,144.5024508535862L151.76666666666665,144.58040508627892L152.25,144.42570346593857L152.73333333333332,145.63416647911072L153.21666666666667,144.31712719798088L153.70000000000002,144.66162177920341L154.1833333333333,143.8918933570385L154.66666666666666,144.17725253105164L155.15,144.74497365951538L155.63333333333333,144.03741765022278L156.11666666666667,144.28808334469795L156.60000000000002,144.5856170654297L157.08333333333331,144.45762518048286L157.56666666666666,144.0103365778923L158.05,144.62446156144142L158.53333333333333,143.54202765226364L159.01666666666668,144.27365425229073L159.5,143.08550867438316L159.98333333333332,143.4782372713089L160.46666666666667,143.4882501065731L160.95000000000002,143.4400558769703L161.43333333333334,143.69749847054482L161.91666666666666,143.45814529061317L162.4,143.49811705946922L162.88333333333333,143.3200875222683L163.36666666666667,143.2581538259983L163.85,142.52049300074577L164.33333333333334,143.48583641648293L164.81666666666666,143.04131957888603L165.29999999999998,142.94478523731232L165.78333333333333,143.45677930116653L166.26666666666668,143.2953140437603L166.75,142.74309623241425L167.23333333333332,142.19899478554726L167.71666666666667,142.7808399796486L168.2,142.6077173948288L168.68333333333334,142.56661835312843L169.16666666666669,141.95159155130386L169.64999999999998,142.8507972061634L170.13333333333333,142.60603311657906L170.61666666666667,142.30253148078918L171.1,143.11512279510498L171.58333333333334,141.83670255541801L172.0666666666667,142.58236038684845L172.54999999999998,142.77625131607056L173.03333333333333,141.6294037103653L173.51666666666668,142.04043391346931L174,142.12138536572456L174.48333333333335,142.0780583024025L174.96666666666667,141.61734852194786L175.45,141.72410789132118L175.93333333333334,141.79372030496597L176.41666666666666,142.608353972435L176.9,142.20490965247154L177.38333333333335,141.24081286787987L177.86666666666665,141.5906122624874L178.35,141.2931050658226L178.83333333333334,141.44299256801605L179.31666666666666,140.8911328315735L179.8,141.22935447096825L180.28333333333333,141.26993629336357L180.76666666666665,140.88730010390282L181.25,140.79701218008995L181.73333333333335,141.08157563209534L182.21666666666667,141.0939756333828L182.7,140.81577795743942L183.18333333333334,140.20300570130348L183.66666666666666,140.59776338934898L184.15,140.50641450285912L184.63333333333335,140.1457800269127L185.11666666666665,140.5651653110981L185.6,139.69806703925133L186.08333333333334,139.552914083004L186.56666666666666,140.36874133348465L187.05,139.70882254838943L187.53333333333333,139.45701631903648L188.01666666666665,139.8979126214981L188.5,139.87177315354347L188.98333333333332,138.94035401940346L189.46666666666667,139.17746591567993L189.95000000000002,139.36820048093796L190.4333333333333,139.36430144309998L190.91666666666666,139.51121824979782L191.4,138.94177305698395L191.88333333333333,138.4979856312275L192.36666666666667,138.15688613057137L192.85000000000002,138.97044557332993L193.33333333333331,138.60868382453918L193.81666666666666,138.63568532466888L194.3,137.83060032129288L194.78333333333333,138.88360577821732L195.26666666666668,138.86640492081642L195.75,138.1886487007141L196.23333333333332,138.4532527923584L196.71666666666667,138.0747013092041L197.20000000000002,137.68873634934425L197.68333333333334,138.39618626236916L198.16666666666666,138.09743243455887L198.65,138.18526688218117L199.13333333333333,137.64517056941986L199.61666666666667,137.93982642889023L200.1,137.8056411743164L200.58333333333334,137.93676289916039L201.06666666666666,137.39122915267944L201.54999999999998,137.7609879076481L202.03333333333333,138.03285959362984L202.51666666666668,137.0199452638626L203,137.66998383402824L203.48333333333332,137.20041501522064L203.96666666666667,137.13763254880905L204.45,137.86516118049622L204.93333333333334,137.1485869884491L205.41666666666669,137.11499425768852L205.89999999999998,136.32516059279442L206.38333333333333,136.75233069062233L206.86666666666667,137.20395597815514L207.35,136.62546607851982L207.83333333333334,136.6159174144268L208.3166666666667,136.81730139255524L208.79999999999998,136.35656508803368L209.28333333333333,136.55393067002296L209.76666666666668,135.99111649394035L210.25,135.91454151272774L210.73333333333335,137.0413634479046L211.21666666666667,136.4856577217579L211.7,136.50732788443565L212.18333333333334,135.79135048389435L212.66666666666666,136.06075543165207L213.15,135.9273261129856L213.63333333333335,136.4030219912529L214.11666666666665,135.827211022377L214.6,135.58409142494202L215.08333333333334,135.6938347518444L215.56666666666666,135.3813945055008L216.05,135.6158407330513L216.53333333333333,136.1491070985794L217.01666666666665,135.67733678221703L217.5,135.65265613794327L217.98333333333335,135.4355699121952L218.46666666666667,135.26246058940887L218.95,135.3641538619995L219.43333333333334,134.90069884061813L219.91666666666666,135.28822872042656L220.4,135.29991257190704L220.88333333333335,134.38473942875862L221.36666666666665,135.27825567126274L221.85,134.95903852581978L222.33333333333334,135.09862142801285L222.81666666666666,134.65386587381363L223.3,134.64117410779L223.78333333333333,135.11050420999527L224.26666666666665,134.53116554021835L224.75,134.13679245114326L225.23333333333332,133.88515862822533L225.71666666666667,133.9249447286129L226.20000000000002,134.19986668229103L226.6833333333333,133.67612245678902L227.16666666666666,134.12410068511963L227.65,134.1955963075161L228.13333333333333,133.9857378900051L228.61666666666667,133.66083133220673L229.10000000000002,133.18098443746567L229.58333333333331,133.6100907921791L230.06666666666666,133.31348541378975L230.55,134.17672443389893L231.03333333333333,133.3956039249897L231.51666666666668,133.0623555481434L232,132.88952472805977L232.48333333333332,133.2922661602497L232.96666666666667,133.16585245728493L233.45000000000002,132.61712256073952L233.93333333333334,133.03729030489922L234.41666666666666,133.02499639987946L234.9,133.0995820760727L235.38333333333333,132.99778270721436L235.86666666666667,132.55704554915428L236.35,132.6957266330719L236.83333333333334,132.92159232497215L237.31666666666666,133.17400860786438L237.79999999999998,132.49044361710548L238.28333333333333,131.9152294397354L238.76666666666668,132.54880982637405L239.25,132.11417320370674L239.73333333333332,132.46086928248405L240.21666666666667,132.44979548454285L240.7,131.99234816432L241.18333333333334,131.66335690021515L241.66666666666669,132.1400209069252L242.14999999999998,131.57569485902786L242.63333333333333,131.65451112389565L243.11666666666667,131.54374662041664L243.6,131.47796693444252L244.08333333333334,132.16739374399185L244.5666666666667,131.17650765180588L245.04999999999998,132.4178605079651L245.53333333333333,132.08437341451645L246.01666666666668,131.26813504099846L246.5,131.2060819864273L246.98333333333335,130.63481989502907L247.46666666666667,130.7896010875702L247.95,130.98569351434708L248.43333333333334,130.59451657533646L248.91666666666666,130.99285501241684L249.4,131.23883920907974L249.88333333333335,131.15333887934685L250.36666666666665,130.3485191166401L250.85,130.76622012257576L251.33333333333334,130.58495464920998L251.81666666666666,130.64255166053772L252.3,130.5745041668415L252.78333333333333,129.97405233979225L253.26666666666665,129.80168569087982L253.75,130.50627100467682L254.23333333333335,129.762522906065L254.71666666666667,130.41246864199638L255.2,129.97211608290672L255.68333333333334,129.73837274312973L256.1666666666667,130.08910048007965L256.65,129.6340535879135L257.1333333333333,129.9075432419777L257.6166666666667,129.4780655503273L258.1,130.0334927737713L258.58333333333337,129.3220775127411L259.06666666666666,129.94108292460442L259.55,129.22655108571053L260.0333333333333,129.25531643629074L260.51666666666665,129.52133956551552L261,129.53672352433205L261.4833333333333,129.38675644993782L261.96666666666664,128.93995854258537L262.45,129.19637995958328L262.93333333333334,128.75181007385254L263.4166666666667,129.2620933353901L263.90000000000003,129.1463688313961L264.3833333333333,129.02784603834152L264.8666666666667,128.50910159945488L265.35,128.60611337423325" style="fill: none;" fill="none"></path></g></g></g></g></g></g><g transform="translate(40, 178)" clip-path="url(#clip_1)"><clipPath id="clip_1"><rect width="290" height="22"></rect></clipPath><g><g><line x1="0" y1="0" x2="0" y2="5" style="visibility: inherit;" fill="rgb(0, 0, 0)" stroke="rgb(204, 204, 204)" stroke-width="1px"></line><line x1="24.166666666666664" y1="0" x2="24.166666666666664" y2="5" style="visibility: inherit;" fill="rgb(0, 0, 0)" stroke="rgb(204, 204, 204)" stroke-width="1px"></line><line x1="48.33333333333333" y1="0" x2="48.33333333333333" y2="5" style="visibility: inherit;" fill="rgb(0, 0, 0)" stroke="rgb(204, 204, 204)" stroke-width="1px"></line><line x1="72.5" y1="0" x2="72.5" y2="5" style="visibility: inherit;" fill="rgb(0, 0, 0)" stroke="rgb(204, 204, 204)" stroke-width="1px"></line><line x1="96.66666666666666" y1="0" x2="96.66666666666666" y2="5" style="visibility: inherit;" fill="rgb(0, 0, 0)" stroke="rgb(204, 204, 204)" stroke-width="1px"></line><line x1="120.83333333333334" y1="0" x2="120.83333333333334" y2="5" style="visibility: inherit;" fill="rgb(0, 0, 0)" stroke="rgb(204, 204, 204)" stroke-width="1px"></line><line x1="145" y1="0" x2="145" y2="5" style="visibility: inherit;" fill="rgb(0, 0, 0)" stroke="rgb(204, 204, 204)" stroke-width="1px"></line><line x1="169.16666666666669" y1="0" x2="169.16666666666669" y2="5" style="visibility: inherit;" fill="rgb(0, 0, 0)" stroke="rgb(204, 204, 204)" stroke-width="1px"></line><line x1="193.33333333333331" y1="0" x2="193.33333333333331" y2="5" style="visibility: inherit;" fill="rgb(0, 0, 0)" stroke="rgb(204, 204, 204)" stroke-width="1px"></line><line x1="217.5" y1="0" x2="217.5" y2="5" style="visibility: inherit;" fill="rgb(0, 0, 0)" stroke="rgb(204, 204, 204)" stroke-width="1px"></line><line x1="241.66666666666669" y1="0" x2="241.66666666666669" y2="5" style="visibility: inherit;" fill="rgb(0, 0, 0)" stroke="rgb(204, 204, 204)" stroke-width="1px"></line><line x1="265.8333333333333" y1="0" x2="265.8333333333333" y2="5" style="visibility: inherit;" fill="rgb(0, 0, 0)" stroke="rgb(204, 204, 204)" stroke-width="1px"></line><line x1="290" y1="0" x2="290" y2="5" style="visibility: inherit;" fill="rgb(0, 0, 0)" stroke="rgb(204, 204, 204)" stroke-width="1px"></line></g><g transform="translate(0, 8)"><text x="0" y="0" dx="0em" dy="0.95em" style="text-anchor: middle; visibility: hidden; font-family: Roboto, sans-serif; font-size: 12px; font-weight: 200;" fill="rgb(50, 49, 63)" stroke="none" stroke-width="1px">-50</text><text x="24.166666666666664" y="0" dx="0em" dy="0.95em" style="text-anchor: middle; visibility: inherit; font-family: Roboto, sans-serif; font-size: 12px; font-weight: 200;" fill="rgb(50, 49, 63)" stroke="none" stroke-width="1px">0</text><text x="48.33333333333333" y="0" dx="0em" dy="0.95em" style="text-anchor: middle; visibility: hidden; font-family: Roboto, sans-serif; font-size: 12px; font-weight: 200;" fill="rgb(50, 49, 63)" stroke="none" stroke-width="1px">50</text><text x="72.5" y="0" dx="0em" dy="0.95em" style="text-anchor: middle; visibility: inherit; font-family: Roboto, sans-serif; font-size: 12px; font-weight: 200;" fill="rgb(50, 49, 63)" stroke="none" stroke-width="1px">100</text><text x="96.66666666666666" y="0" dx="0em" dy="0.95em" style="text-anchor: middle; visibility: hidden; font-family: Roboto, sans-serif; font-size: 12px; font-weight: 200;" fill="rgb(50, 49, 63)" stroke="none" stroke-width="1px">150</text><text x="120.83333333333334" y="0" dx="0em" dy="0.95em" style="text-anchor: middle; visibility: inherit; font-family: Roboto, sans-serif; font-size: 12px; font-weight: 200;" fill="rgb(50, 49, 63)" stroke="none" stroke-width="1px">200</text><text x="145" y="0" dx="0em" dy="0.95em" style="text-anchor: middle; visibility: hidden; font-family: Roboto, sans-serif; font-size: 12px; font-weight: 200;" fill="rgb(50, 49, 63)" stroke="none" stroke-width="1px">250</text><text x="169.16666666666669" y="0" dx="0em" dy="0.95em" style="text-anchor: middle; visibility: inherit; font-family: Roboto, sans-serif; font-size: 12px; font-weight: 200;" fill="rgb(50, 49, 63)" stroke="none" stroke-width="1px">300</text><text x="193.33333333333331" y="0" dx="0em" dy="0.95em" style="text-anchor: middle; visibility: hidden; font-family: Roboto, sans-serif; font-size: 12px; font-weight: 200;" fill="rgb(50, 49, 63)" stroke="none" stroke-width="1px">350</text><text x="217.5" y="0" dx="0em" dy="0.95em" style="text-anchor: middle; visibility: inherit; font-family: Roboto, sans-serif; font-size: 12px; font-weight: 200;" fill="rgb(50, 49, 63)" stroke="none" stroke-width="1px">400</text><text x="241.66666666666669" y="0" dx="0em" dy="0.95em" style="text-anchor: middle; visibility: hidden; font-family: Roboto, sans-serif; font-size: 12px; font-weight: 200;" fill="rgb(50, 49, 63)" stroke="none" stroke-width="1px">450</text><text x="265.8333333333333" y="0" dx="0em" dy="0.95em" style="text-anchor: middle; visibility: inherit; font-family: Roboto, sans-serif; font-size: 12px; font-weight: 200;" fill="rgb(50, 49, 63)" stroke="none" stroke-width="1px">500</text><text x="290" y="0" dx="0em" dy="0.95em" style="text-anchor: middle; visibility: hidden; font-family: Roboto, sans-serif; font-size: 12px; font-weight: 200;" fill="rgb(50, 49, 63)" stroke="none" stroke-width="1px">550</text></g><line x1="0" y1="0" x2="290" y2="0" fill="rgb(0, 0, 0)" stroke="rgb(204, 204, 204)" stroke-width="1px"></line></g></g></g></g></svg>