<svg viewBox="0 0 330 200" xmlns="http://www.w3.org/2000/svg"><g><g><g><g><g><line x1="40" y1="178" x2="35" y2="178" style="visibility: inherit;" fill="rgb(0, 0, 0)" stroke="rgb(204, 204, 204)" stroke-width="1px"></line><line x1="40" y1="158.22222222222223" x2="35" y2="158.22222222222223" style="visibility: inherit;" fill="rgb(0, 0, 0)" stroke="rgb(204, 204, 204)" stroke-width="1px"></line><line x1="40" y1="138.44444444444443" x2="35" y2="138.44444444444443" style="visibility: inherit;" fill="rgb(0, 0, 0)" stroke="rgb(204, 204, 204)" stroke-width="1px"></line><line x1="40" y1="118.66666666666666" x2="35" y2="118.66666666666666" style="visibility: inherit;" fill="rgb(0, 0, 0)" stroke="rgb(204, 204, 204)" stroke-width="1px"></line><line x1="40" y1="98.8888888888889" x2="35" y2="98.8888888888889" style="visibility: inherit;" fill="rgb(0, 0, 0)" stroke="rgb(204, 204, 204)" stroke-width="1px"></line><line x1="40" y1="79.11111111111109" x2="35" y2="79.11111111111109" style="visibility: inherit;" fill="rgb(0, 0, 0)" stroke="rgb(204, 204, 204)" stroke-width="1px"></line><line x1="40" y1="59.33333333333334" x2="35" y2="59.33333333333334" style="visibility: inherit;" fill="rgb(0, 0, 0)" stroke="rgb(204, 204, 204)" stroke-width="1px"></line><line x1="40" y1="39.55555555555555" x2="35" y2="39.55555555555555" style="visibility: inherit;" fill="rgb(0, 0, 0)" stroke="rgb(204, 204, 204)" stroke-width="1px"></line><line x1="40" y1="19.777777777777786" x2="35" y2="19.777777777777786" style="visibility: inherit;" fill="rgb(0, 0, 0)" stroke="rgb(204, 204, 204)" stroke-width="1px"></line><line x1="40" y1="0" x2="35" y2="0" style="visibility: inherit;" fill="rgb(0, 0, 0)" stroke="rgb(204, 204, 204)" stroke-width="1px"></line></g><g transform="translate(30, 0)"><text x="0" y="178" dx="0em" dy="0.3em" style="text-anchor: end; visibility: hidden; font-family: Roboto, sans-serif; font-size: 12px; font-weight: 200;" fill="rgb(50, 49, 63)" stroke="none" stroke-width="1px">0.6</text><text x="0" y="158.22222222222223" dx="0em" dy="0.3em" style="text-anchor: end; visibility: inherit; font-family: Roboto, sans-serif; font-size: 12px; font-weight: 200;" fill="rgb(50, 49, 63)" stroke="none" stroke-width="1px">0.7</text><text x="0" y="138.44444444444443" dx="0em" dy="0.3em" style="text-anchor: end; visibility: hidden; font-family: Roboto, sans-serif; font-size: 12px; font-weight: 200;" fill="rgb(50, 49, 63)" stroke="none" stroke-width="1px">0.8</text><text x="0" y="118.66666666666666" dx="0em" dy="0.3em" style="text-anchor: end; visibility: inherit; font-family: Roboto, sans-serif; font-size: 12px; font-weight: 200;" fill="rgb(50, 49, 63)" stroke="none" stroke-width="1px">0.9</text><text x="0" y="98.8888888888889" dx="0em" dy="0.3em" style="text-anchor: end; visibility: hidden; font-family: Roboto, sans-serif; font-size: 12px; font-weight: 200;" fill="rgb(50, 49, 63)" stroke="none" stroke-width="1px">1</text><text x="0" y="79.11111111111109" dx="0em" dy="0.3em" style="text-anchor: end; visibility: inherit; font-family: Roboto, sans-serif; font-size: 12px; font-weight: 200;" fill="rgb(50, 49, 63)" stroke="none" stroke-width="1px">1.1</text><text x="0" y="59.33333333333334" dx="0em" dy="0.3em" style="text-anchor: end; visibility: hidden; font-family: Roboto, sans-serif; font-size: 12px; font-weight: 200;" fill="rgb(50, 49, 63)" stroke="none" stroke-width="1px">1.2</text><text x="0" y="39.55555555555555" dx="0em" dy="0.3em" style="text-anchor: end; visibility: inherit; font-family: Roboto, sans-serif; font-size: 12px; font-weight: 200;" fill="rgb(50, 49, 63)" stroke="none" stroke-width="1px">1.3</text><text x="0" y="19.777777777777786" dx="0em" dy="0.3em" style="text-anchor: end; visibility: hidden; font-family: Roboto, sans-serif; font-size: 12px; font-weight: 200;" fill="rgb(50, 49, 63)" stroke="none" stroke-width="1px">1.4</text><text x="0" y="0" dx="0em" dy="0.3em" style="text-anchor: end; visibility: hidden; font-family: Roboto, sans-serif; font-size: 12px; font-weight: 200;" fill="rgb(50, 49, 63)" stroke="none" stroke-width="1px">1.5</text></g><line x1="40" y1="0" x2="40" y2="178" fill="rgb(0, 0, 0)" stroke="rgb(204, 204, 204)" stroke-width="1px"></line></g></g><g transform="translate(40, 0)" clip-path="url(#clip_0)"><clipPath id="clip_0"><rect width="290" height="178"></rect></clipPath><g><g><g><line x1="0" y1="0" x2="0" y2="178" fill="rgb(0, 0, 0)" stroke="rgb(60, 60, 60)" stroke-width="1px" opacity="0.25"></line><line x1="24.166666666666664" y1="0" x2="24.166666666666664" y2="178" fill="rgb(0, 0, 0)" stroke="rgb(60, 60, 60)" stroke-width="1px" opacity="0.25"></line><line x1="48.33333333333333" y1="0" x2="48.33333333333333" y2="178" fill="rgb(0, 0, 0)" stroke="rgb(60, 60, 60)" stroke-width="1px" opacity="0.25"></line><line x1="72.5" y1="0" x2="72.5" y2="178" fill="rgb(0, 0, 0)" stroke="rgb(60, 60, 60)" stroke-width="1px" opacity="0.25"></line><line x1="96.66666666666666" y1="0" x2="96.66666666666666" y2="178" fill="rgb(0, 0, 0)" stroke="rgb(60, 60, 60)" stroke-width="1px" opacity="0.25"></line><line x1="120.83333333333334" y1="0" x2="120.83333333333334" y2="178" fill="rgb(0, 0, 0)" stroke="rgb(60, 60, 60)" stroke-width="1px" opacity="0.25"></line><line x1="145" y1="0" x2="145" y2="178" fill="rgb(0, 0, 0)" stroke="rgb(60, 60, 60)" stroke-width="1px" opacity="0.25"></line><line x1="169.16666666666669" y1="0" x2="169.16666666666669" y2="178" fill="rgb(0, 0, 0)" stroke="rgb(60, 60, 60)" stroke-width="1px" opacity="0.25"></line><line x1="193.33333333333331" y1="0" x2="193.33333333333331" y2="178" fill="rgb(0, 0, 0)" stroke="rgb(60, 60, 60)" stroke-width="1px" opacity="0.25"></line><line x1="217.5" y1="0" x2="217.5" y2="178" fill="rgb(0, 0, 0)" stroke="rgb(60, 60, 60)" stroke-width="1px" opacity="0.25"></line><line x1="241.66666666666669" y1="0" x2="241.66666666666669" y2="178" fill="rgb(0, 0, 0)" stroke="rgb(60, 60, 60)" stroke-width="1px" opacity="0.25"></line><line x1="265.8333333333333" y1="0" x2="265.8333333333333" y2="178" fill="rgb(0, 0, 0)" stroke="rgb(60, 60, 60)" stroke-width="1px" opacity="0.25"></line><line x1="290" y1="0" x2="290" y2="178" fill="rgb(0, 0, 0)" stroke="rgb(60, 60, 60)" stroke-width="1px" opacity="0.25"></line></g><g><line x1="0" y1="178" x2="290" y2="178" fill="rgb(0, 0, 0)" stroke="rgb(60, 60, 60)" stroke-width="1px" opacity="0.25"></line><line x1="0" y1="158.22222222222223" x2="290" y2="158.22222222222223" fill="rgb(0, 0, 0)" stroke="rgb(60, 60, 60)" stroke-width="1px" opacity="0.25"></line><line x1="0" y1="138.44444444444443" x2="290" y2="138.44444444444443" fill="rgb(0, 0, 0)" stroke="rgb(60, 60, 60)" stroke-width="1px" opacity="0.25"></line><line x1="0" y1="118.66666666666666" x2="290" y2="118.66666666666666" fill="rgb(0, 0, 0)" stroke="rgb(60, 60, 60)" stroke-width="1px" opacity="0.25"></line><line x1="0" y1="98.8888888888889" x2="290" y2="98.8888888888889" fill="rgb(0, 0, 0)" stroke="rgb(60, 60, 60)" stroke-width="1px" opacity="0.25"></line><line x1="0" y1="79.11111111111109" x2="290" y2="79.11111111111109" fill="rgb(0, 0, 0)" stroke="rgb(60, 60, 60)" stroke-width="1px" opacity="0.25"></line><line x1="0" y1="59.33333333333334" x2="290" y2="59.33333333333334" fill="rgb(0, 0, 0)" stroke="rgb(60, 60, 60)" stroke-width="1px" opacity="0.25"></line><line x1="0" y1="39.55555555555555" x2="290" y2="39.55555555555555" fill="rgb(0, 0, 0)" stroke="rgb(60, 60, 60)" stroke-width="1px" opacity="0.25"></line><line x1="0" y1="19.777777777777786" x2="290" y2="19.777777777777786" fill="rgb(0, 0, 0)" stroke="rgb(60, 60, 60)" stroke-width="1px" opacity="0.25"></line><line x1="0" y1="0" x2="290" y2="0" fill="rgb(0, 0, 0)" stroke="rgb(60, 60, 60)" stroke-width="1px" opacity="0.25"></line></g></g></g><g><g><line x1="0" y1="296.66666666666663" x2="290" y2="296.66666666666663" fill="rgb(0, 0, 0)" stroke="rgb(153, 153, 153)" stroke-width="1.5px"></line></g></g><g><g><line x1="24.166666666666664" y1="0" x2="24.166666666666664" y2="178" fill="rgb(0, 0, 0)" stroke="rgb(153, 153, 153)" stroke-width="1.5px"></line></g></g><g><g><g><g><g><path stroke="rgb(255, 112, 67)" stroke-width="2px" d="M24.166666666666664,172.43246396382648L25.375,150.89123182826572L26.583333333333332,148.86230574713812L27.791666666666668,148.7685638003879L29,146.70622918340894L30.208333333333336,142.18861473931204L31.416666666666668,138.1993950737847L32.625,135.79128093189664L33.833333333333336,135.93453447024027L35.041666666666664,140.0024539894528L36.25,144.69497402509052L37.458333333333336,147.22048958142597L38.666666666666664,148.32967890633475L39.875,149.17057434717813L41.083333333333336,148.36972435315448L42.29166666666667,147.56958166758218L43.5,148.74191006024677L44.708333333333336,150.03951456811694L45.916666666666664,149.7637939453125L47.125,141.98625379138522L48.33333333333333,147.20759299066333L49.541666666666664,148.83351829316882L50.75,148.89531347486707L51.958333333333336,143.8884066210853L53.166666666666664,145.2797648641798L54.375,146.47152066230774L24.166666666666664,3.255457878112793L25.375,80.7087747255961L26.583333333333332,87.29468875461156L27.791666666666668,76.27043777041966L29,56.80724249945745L30.208333333333336,67.27418157789442L31.416666666666668,83.51806243260702L32.625,92.34593205981786L33.833333333333336,98.32676728566486L35.041666666666664,101.13493508762782L36.25,102.42638601197136L37.458333333333336,105.67297895749408L38.666666666666664,107.30492817031013L39.875,105.27383300993178L41.083333333333336,110.06687336497838L42.29166666666667,111.17540253533257L43.5,111.41997800932991L44.708333333333336,108.06109984715778L45.916666666666664,111.9889015621609L47.125,113.41744065284729L48.33333333333333,112.73109210862053L49.541666666666664,113.8288348250919L50.75,112.23314695888097L51.958333333333336,114.91343339284259L53.166666666666664,114.13524084621007L54.375,112.1691944864061L55.583333333333336,113.13607335090637L56.791666666666664,114.86034989356995L58,111.15876899825203L59.208333333333336,113.84753134515549L60.41666666666667,114.11333786116707L61.625,112.13945216602748L62.833333333333336,110.93238313992816L64.04166666666667,111.8623051378462L65.25,110.87439563539293L66.45833333333333,112.27033959494698L67.66666666666667,110.10757896635268L68.875,111.64563298225403L70.08333333333333,109.4341977437337L71.29166666666666,109.96822741296556L72.5,108.03604933950636L73.70833333333333,108.35272312164307L74.91666666666667,106.92141373952228L76.125,108.25703607665169L77.33333333333333,106.46524694230821L78.54166666666666,105.37660492791069L79.75,105.83894888559976L80.95833333333333,104.70320012834337L82.16666666666667,104.15768848525154L83.375,104.88435361120436L84.58333333333334,104.19075515535143L85.79166666666667,103.76232663790384L87,102.41548167334663L88.20833333333333,103.16132664680481L89.41666666666667,102.51061466005113L90.625,101.61851008733112L91.83333333333333,101.565709511439L93.04166666666667,101.1729293399387L94.25,101.89150757259792L95.45833333333333,101.13929682307774L96.66666666666666,101.57021270857918L97.875,99.41319306691486L99.08333333333333,101.93781269921196L100.29166666666667,99.53558100594414L101.5,99.4078410996331L102.70833333333334,100.14932433764139L103.91666666666667,98.57493824428981L105.125,97.6009980837504L106.33333333333333,98.13690212037828L107.54166666666667,97.46741109424168L108.75,96.75104909472996L109.95833333333333,97.4945953157213L111.16666666666667,96.60836140314737L112.375,96.06462981965807L113.58333333333333,96.30641142527261L114.79166666666666,96.42314089669121L116,94.52986478805542L117.20833333333333,94.10352283053929L118.41666666666667,94.62339454227025L119.625,93.84773651758829L120.83333333333334,94.40285576714409L122.04166666666667,93.01089631186592L123.25,93.47526788711548L124.45833333333333,93.2183027267456L125.66666666666667,92.67631583743626L126.875,92.80186308754814L128.08333333333334,91.13532649146187L129.29166666666669,90.00000211927626L130.5,90.79390870200264L131.70833333333334,90.21514177322388L132.91666666666666,88.73639557096693L134.125,89.0584095319112L135.33333333333334,88.84258614646063L136.54166666666666,88.00492074754503L137.75,86.9742308722602L138.95833333333334,86.19147618611655L140.16666666666666,86.48545715543959L141.375,86.41291088528102L142.58333333333331,85.72189410527548L143.79166666666666,86.3686097992791L145,84.63348786036173L146.20833333333334,83.59508832295737L147.41666666666666,84.3383044666714L148.625,81.86706304550171L149.83333333333334,82.48246855205959L151.04166666666669,81.91749413808188L152.25,81.09489440917969L153.45833333333334,78.92763058344522L154.66666666666666,79.3325882487827L155.875,78.93826378716362L157.08333333333331,80.42964723375108L158.29166666666666,78.57199589411417L159.5,77.56438785129124L160.70833333333334,77.64466736051772L161.91666666666666,76.31386650933159L163.125,76.04339175754124L164.33333333333334,75.13084597057765L165.54166666666666,75.85812409718832L166.75,73.3555489116245L167.95833333333334,73.71120717790392L169.16666666666669,72.4101604355706L170.375,73.03230894936455L171.58333333333334,72.51059823566014L172.79166666666666,71.55427005555894L174,72.11290227042304L175.20833333333331,70.27281575732762L176.41666666666666,69.40289709303114L177.625,67.90592590967813L178.83333333333334,68.51142909791734L180.04166666666666,69.26046874788072L181.25,66.76982349819606L182.45833333333334,66.70413812001547L183.66666666666666,66.23149103588527L184.875,66.28941959804958L186.08333333333334,64.83731534745958L187.29166666666669,63.821290334065765L188.5,62.95905775494045L189.70833333333334,62.96141544977823L190.91666666666666,62.97042184405857L192.125,62.16335932413736L193.33333333333331,59.11745336320666L194.54166666666666,59.38988500171238L195.75,59.434162510765915L196.95833333333334,59.36442189746433L198.16666666666666,57.50153647528753L199.375,56.93795310126409L200.58333333333334,56.55562930636936L201.79166666666666,55.37303315268621L203,55.45508093304104L204.20833333333334,56.0046124458313L205.41666666666669,54.4991299841139L206.625,54.66605477862888L207.83333333333334,52.54917489157781L209.04166666666666,52.16739336649576L210.25,50.75628942913479L211.45833333333331,51.349886258443206L212.66666666666666,49.76124789979723L213.875,49.950759410858154L215.08333333333334,49.121911790635856L216.29166666666666,46.97728183534411L217.5,46.28874063491821L218.70833333333334,46.65644672181872L219.91666666666666,45.50450060102674L221.125,44.957963360680466L222.33333333333334,42.873077392578125L223.54166666666669,43.19426616032919L224.75,42.06476529439291L225.95833333333334,41.116571161482064L227.16666666666666,40.96452342139351L228.375,41.50394042332968L229.58333333333331,40.62734948264229L230.79166666666666,39.631388452317985L232,37.39546855290732L233.20833333333334,36.90827449162802L234.41666666666666,36.28200001186794L235.625,35.48811700608996L236.83333333333334,34.8448199696011L238.04166666666666,32.88394874996609L239.25,32.93018314573499L240.45833333333334,32.13415463765463L241.66666666666669,31.487203174167213L242.875,31.56976964738634L244.08333333333334,30.732905864715576L245.29166666666666,28.596056302388515L246.5,28.995756308237706L247.70833333333331,27.273648844824905L248.91666666666666,24.562724166446266L250.125,26.853649086422386L251.33333333333334,26.963753435346813L252.54166666666666,24.141050444708938L253.75,21.54454469680786L254.95833333333334,23.45324012968275L256.1666666666667,23.275941477881545L257.375,20.239702065785732L258.58333333333337,19.8824405670166L259.7916666666667,18.4538189570109L261,17.706028885311547L262.2083333333333,17.28103081385294L263.4166666666667,15.579623911115856L264.625,14.747263325585251" style="fill: none;" fill="none"></path></g></g></g></g></g></g><g transform="translate(40, 178)" clip-path="url(#clip_1)"><clipPath id="clip_1"><rect width="290" height="22"></rect></clipPath><g><g><line x1="0" y1="0" x2="0" y2="5" style="visibility: inherit;" fill="rgb(0, 0, 0)" stroke="rgb(204, 204, 204)" stroke-width="1px"></line><line x1="24.166666666666664" y1="0" x2="24.166666666666664" y2="5" style="visibility: inherit;" fill="rgb(0, 0, 0)" stroke="rgb(204, 204, 204)" stroke-width="1px"></line><line x1="48.33333333333333" y1="0" x2="48.33333333333333" y2="5" style="visibility: inherit;" fill="rgb(0, 0, 0)" stroke="rgb(204, 204, 204)" stroke-width="1px"></line><line x1="72.5" y1="0" x2="72.5" y2="5" style="visibility: inherit;" fill="rgb(0, 0, 0)" stroke="rgb(204, 204, 204)" stroke-width="1px"></line><line x1="96.66666666666666" y1="0" x2="96.66666666666666" y2="5" style="visibility: inherit;" fill="rgb(0, 0, 0)" stroke="rgb(204, 204, 204)" stroke-width="1px"></line><line x1="120.83333333333334" y1="0" x2="120.83333333333334" y2="5" style="visibility: inherit;" fill="rgb(0, 0, 0)" stroke="rgb(204, 204, 204)" stroke-width="1px"></line><line x1="145" y1="0" x2="145" y2="5" style="visibility: inherit;" fill="rgb(0, 0, 0)" stroke="rgb(204, 204, 204)" stroke-width="1px"></line><line x1="169.16666666666669" y1="0" x2="169.16666666666669" y2="5" style="visibility: inherit;" fill="rgb(0, 0, 0)" stroke="rgb(204, 204, 204)" stroke-width="1px"></line><line x1="193.33333333333331" y1="0" x2="193.33333333333331" y2="5" style="visibility: inherit;" fill="rgb(0, 0, 0)" stroke="rgb(204, 204, 204)" stroke-width="1px"></line><line x1="217.5" y1="0" x2="217.5" y2="5" style="visibility: inherit;" fill="rgb(0, 0, 0)" stroke="rgb(204, 204, 204)" stroke-width="1px"></line><line x1="241.66666666666669" y1="0" x2="241.66666666666669" y2="5" style="visibility: inherit;" fill="rgb(0, 0, 0)" stroke="rgb(204, 204, 204)" stroke-width="1px"></line><line x1="265.8333333333333" y1="0" x2="265.8333333333333" y2="5" style="visibility: inherit;" fill="rgb(0, 0, 0)" stroke="rgb(204, 204, 204)" stroke-width="1px"></line><line x1="290" y1="0" x2="290" y2="5" style="visibility: inherit;" fill="rgb(0, 0, 0)" stroke="rgb(204, 204, 204)" stroke-width="1px"></line></g><g transform="translate(0, 8)"><text x="0" y="0" dx="0em" dy="0.95em" style="text-anchor: middle; visibility: hidden; font-family: Roboto, sans-serif; font-size: 12px; font-weight: 200;" fill="rgb(50, 49, 63)" stroke="none" stroke-width="1px">-20</text><text x="24.166666666666664" y="0" dx="0em" dy="0.95em" style="text-anchor: middle; visibility: inherit; font-family: Roboto, sans-serif; font-size: 12px; font-weight: 200;" fill="rgb(50, 49, 63)" stroke="none" stroke-width="1px">0</text><text x="48.33333333333333" y="0" dx="0em" dy="0.95em" style="text-anchor: middle; visibility: hidden; font-family: Roboto, sans-serif; font-size: 12px; font-weight: 200;" fill="rgb(50, 49, 63)" stroke="none" stroke-width="1px">20</text><text x="72.5" y="0" dx="0em" dy="0.95em" style="text-anchor: middle; visibility: inherit; font-family: Roboto, sans-serif; font-size: 12px; font-weight: 200;" fill="rgb(50, 49, 63)" stroke="none" stroke-width="1px">40</text><text x="96.66666666666666" y="0" dx="0em" dy="0.95em" style="text-anchor: middle; visibility: hidden; font-family: Roboto, sans-serif; font-size: 12px; font-weight: 200;" fill="rgb(50, 49, 63)" stroke="none" stroke-width="1px">60</text><text x="120.83333333333334" y="0" dx="0em" dy="0.95em" style="text-anchor: middle; visibility: inherit; font-family: Roboto, sans-serif; font-size: 12px; font-weight: 200;" fill="rgb(50, 49, 63)" stroke="none" stroke-width="1px">80</text><text x="145" y="0" dx="0em" dy="0.95em" style="text-anchor: middle; visibility: hidden; font-family: Roboto, sans-serif; font-size: 12px; font-weight: 200;" fill="rgb(50, 49, 63)" stroke="none" stroke-width="1px">100</text><text x="169.16666666666669" y="0" dx="0em" dy="0.95em" style="text-anchor: middle; visibility: inherit; font-family: Roboto, sans-serif; font-size: 12px; font-weight: 200;" fill="rgb(50, 49, 63)" stroke="none" stroke-width="1px">120</text><text x="193.33333333333331" y="0" dx="0em" dy="0.95em" style="text-anchor: middle; visibility: hidden; font-family: Roboto, sans-serif; font-size: 12px; font-weight: 200;" fill="rgb(50, 49, 63)" stroke="none" stroke-width="1px">140</text><text x="217.5" y="0" dx="0em" dy="0.95em" style="text-anchor: middle; visibility: inherit; font-family: Roboto, sans-serif; font-size: 12px; font-weight: 200;" fill="rgb(50, 49, 63)" stroke="none" stroke-width="1px">160</text><text x="241.66666666666669" y="0" dx="0em" dy="0.95em" style="text-anchor: middle; visibility: hidden; font-family: Roboto, sans-serif; font-size: 12px; font-weight: 200;" fill="rgb(50, 49, 63)" stroke="none" stroke-width="1px">180</text><text x="265.8333333333333" y="0" dx="0em" dy="0.95em" style="text-anchor: middle; visibility: inherit; font-family: Roboto, sans-serif; font-size: 12px; font-weight: 200;" fill="rgb(50, 49, 63)" stroke="none" stroke-width="1px">200</text><text x="290" y="0" dx="0em" dy="0.95em" style="text-anchor: middle; visibility: hidden; font-family: Roboto, sans-serif; font-size: 12px; font-weight: 200;" fill="rgb(50, 49, 63)" stroke="none" stroke-width="1px">220</text></g><line x1="0" y1="0" x2="290" y2="0" fill="rgb(0, 0, 0)" stroke="rgb(204, 204, 204)" stroke-width="1px"></line></g></g></g></g></svg>