<svg viewBox="0 0 330 200" xmlns="http://www.w3.org/2000/svg"><g><g><g><g><g><line x1="50" y1="178" x2="45" y2="178" style="visibility: inherit;" fill="rgb(0, 0, 0)" stroke="rgb(204, 204, 204)" stroke-width="1px"></line><line x1="50" y1="155.74999999999997" x2="45" y2="155.74999999999997" style="visibility: inherit;" fill="rgb(0, 0, 0)" stroke="rgb(204, 204, 204)" stroke-width="1px"></line><line x1="50" y1="133.49999999999994" x2="45" y2="133.49999999999994" style="visibility: inherit;" fill="rgb(0, 0, 0)" stroke="rgb(204, 204, 204)" stroke-width="1px"></line><line x1="50" y1="111.24999999999991" x2="45" y2="111.24999999999991" style="visibility: inherit;" fill="rgb(0, 0, 0)" stroke="rgb(204, 204, 204)" stroke-width="1px"></line><line x1="50" y1="88.99999999999989" x2="45" y2="88.99999999999989" style="visibility: inherit;" fill="rgb(0, 0, 0)" stroke="rgb(204, 204, 204)" stroke-width="1px"></line><line x1="50" y1="66.74999999999984" x2="45" y2="66.74999999999984" style="visibility: inherit;" fill="rgb(0, 0, 0)" stroke="rgb(204, 204, 204)" stroke-width="1px"></line><line x1="50" y1="44.49999999999982" x2="45" y2="44.49999999999982" style="visibility: inherit;" fill="rgb(0, 0, 0)" stroke="rgb(204, 204, 204)" stroke-width="1px"></line><line x1="50" y1="22.25000000000004" x2="45" y2="22.25000000000004" style="visibility: inherit;" fill="rgb(0, 0, 0)" stroke="rgb(204, 204, 204)" stroke-width="1px"></line><line x1="50" y1="0" x2="45" y2="0" style="visibility: inherit;" fill="rgb(0, 0, 0)" stroke="rgb(204, 204, 204)" stroke-width="1px"></line></g><g transform="translate(40, 0)"><text x="0" y="178" dx="0em" dy="0.3em" style="text-anchor: end; visibility: hidden; font-family: Roboto, sans-serif; font-size: 12px; font-weight: 200;" fill="rgb(50, 49, 63)" stroke="none" stroke-width="1px">1.24</text><text x="0" y="155.74999999999997" dx="0em" dy="0.3em" style="text-anchor: end; visibility: inherit; font-family: Roboto, sans-serif; font-size: 12px; font-weight: 200;" fill="rgb(50, 49, 63)" stroke="none" stroke-width="1px">1.26</text><text x="0" y="133.49999999999994" dx="0em" dy="0.3em" style="text-anchor: end; visibility: hidden; font-family: Roboto, sans-serif; font-size: 12px; font-weight: 200;" fill="rgb(50, 49, 63)" stroke="none" stroke-width="1px">1.28</text><text x="0" y="111.24999999999991" dx="0em" dy="0.3em" style="text-anchor: end; visibility: inherit; font-family: Roboto, sans-serif; font-size: 12px; font-weight: 200;" fill="rgb(50, 49, 63)" stroke="none" stroke-width="1px">1.3</text><text x="0" y="88.99999999999989" dx="0em" dy="0.3em" style="text-anchor: end; visibility: hidden; font-family: Roboto, sans-serif; font-size: 12px; font-weight: 200;" fill="rgb(50, 49, 63)" stroke="none" stroke-width="1px">1.32</text><text x="0" y="66.74999999999984" dx="0em" dy="0.3em" style="text-anchor: end; visibility: inherit; font-family: Roboto, sans-serif; font-size: 12px; font-weight: 200;" fill="rgb(50, 49, 63)" stroke="none" stroke-width="1px">1.34</text><text x="0" y="44.49999999999982" dx="0em" dy="0.3em" style="text-anchor: end; visibility: hidden; font-family: Roboto, sans-serif; font-size: 12px; font-weight: 200;" fill="rgb(50, 49, 63)" stroke="none" stroke-width="1px">1.36</text><text x="0" y="22.25000000000004" dx="0em" dy="0.3em" style="text-anchor: end; visibility: inherit; font-family: Roboto, sans-serif; font-size: 12px; font-weight: 200;" fill="rgb(50, 49, 63)" stroke="none" stroke-width="1px">1.38</text><text x="0" y="0" dx="0em" dy="0.3em" style="text-anchor: end; visibility: hidden; font-family: Roboto, sans-serif; font-size: 12px; font-weight: 200;" fill="rgb(50, 49, 63)" stroke="none" stroke-width="1px">1.4</text></g><line x1="50" y1="0" x2="50" y2="178" fill="rgb(0, 0, 0)" stroke="rgb(204, 204, 204)" stroke-width="1px"></line></g></g><g transform="translate(50, 0)" clip-path="url(#clip_0)"><clipPath id="clip_0"><rect width="280" height="178"></rect></clipPath><g><g><g><line x1="0" y1="0" x2="0" y2="178" fill="rgb(0, 0, 0)" stroke="rgb(60, 60, 60)" stroke-width="1px" opacity="0.25"></line><line x1="23.333333333333332" y1="0" x2="23.333333333333332" y2="178" fill="rgb(0, 0, 0)" stroke="rgb(60, 60, 60)" stroke-width="1px" opacity="0.25"></line><line x1="46.666666666666664" y1="0" x2="46.666666666666664" y2="178" fill="rgb(0, 0, 0)" stroke="rgb(60, 60, 60)" stroke-width="1px" opacity="0.25"></line><line x1="70" y1="0" x2="70" y2="178" fill="rgb(0, 0, 0)" stroke="rgb(60, 60, 60)" stroke-width="1px" opacity="0.25"></line><line x1="93.33333333333333" y1="0" x2="93.33333333333333" y2="178" fill="rgb(0, 0, 0)" stroke="rgb(60, 60, 60)" stroke-width="1px" opacity="0.25"></line><line x1="116.66666666666667" y1="0" x2="116.66666666666667" y2="178" fill="rgb(0, 0, 0)" stroke="rgb(60, 60, 60)" stroke-width="1px" opacity="0.25"></line><line x1="140" y1="0" x2="140" y2="178" fill="rgb(0, 0, 0)" stroke="rgb(60, 60, 60)" stroke-width="1px" opacity="0.25"></line><line x1="163.33333333333334" y1="0" x2="163.33333333333334" y2="178" fill="rgb(0, 0, 0)" stroke="rgb(60, 60, 60)" stroke-width="1px" opacity="0.25"></line><line x1="186.66666666666666" y1="0" x2="186.66666666666666" y2="178" fill="rgb(0, 0, 0)" stroke="rgb(60, 60, 60)" stroke-width="1px" opacity="0.25"></line><line x1="210" y1="0" x2="210" y2="178" fill="rgb(0, 0, 0)" stroke="rgb(60, 60, 60)" stroke-width="1px" opacity="0.25"></line><line x1="233.33333333333334" y1="0" x2="233.33333333333334" y2="178" fill="rgb(0, 0, 0)" stroke="rgb(60, 60, 60)" stroke-width="1px" opacity="0.25"></line><line x1="256.66666666666663" y1="0" x2="256.66666666666663" y2="178" fill="rgb(0, 0, 0)" stroke="rgb(60, 60, 60)" stroke-width="1px" opacity="0.25"></line><line x1="280" y1="0" x2="280" y2="178" fill="rgb(0, 0, 0)" stroke="rgb(60, 60, 60)" stroke-width="1px" opacity="0.25"></line></g><g><line x1="0" y1="178" x2="280" y2="178" fill="rgb(0, 0, 0)" stroke="rgb(60, 60, 60)" stroke-width="1px" opacity="0.25"></line><line x1="0" y1="155.74999999999997" x2="280" y2="155.74999999999997" fill="rgb(0, 0, 0)" stroke="rgb(60, 60, 60)" stroke-width="1px" opacity="0.25"></line><line x1="0" y1="133.49999999999994" x2="280" y2="133.49999999999994" fill="rgb(0, 0, 0)" stroke="rgb(60, 60, 60)" stroke-width="1px" opacity="0.25"></line><line x1="0" y1="111.24999999999991" x2="280" y2="111.24999999999991" fill="rgb(0, 0, 0)" stroke="rgb(60, 60, 60)" stroke-width="1px" opacity="0.25"></line><line x1="0" y1="88.99999999999989" x2="280" y2="88.99999999999989" fill="rgb(0, 0, 0)" stroke="rgb(60, 60, 60)" stroke-width="1px" opacity="0.25"></line><line x1="0" y1="66.74999999999984" x2="280" y2="66.74999999999984" fill="rgb(0, 0, 0)" stroke="rgb(60, 60, 60)" stroke-width="1px" opacity="0.25"></line><line x1="0" y1="44.49999999999982" x2="280" y2="44.49999999999982" fill="rgb(0, 0, 0)" stroke="rgb(60, 60, 60)" stroke-width="1px" opacity="0.25"></line><line x1="0" y1="22.25000000000004" x2="280" y2="22.25000000000004" fill="rgb(0, 0, 0)" stroke="rgb(60, 60, 60)" stroke-width="1px" opacity="0.25"></line><line x1="0" y1="0" x2="280" y2="0" fill="rgb(0, 0, 0)" stroke="rgb(60, 60, 60)" stroke-width="1px" opacity="0.25"></line></g></g></g><g><g><line x1="0" y1="1557.5000000000007" x2="280" y2="1557.5000000000007" fill="rgb(0, 0, 0)" stroke="rgb(153, 153, 153)" stroke-width="1.5px"></line></g></g><g><g><line x1="23.333333333333332" y1="0" x2="23.333333333333332" y2="178" fill="rgb(0, 0, 0)" stroke="rgb(153, 153, 153)" stroke-width="1.5px"></line></g></g><g><g><g><g><g><path stroke="rgb(255, 112, 67)" stroke-width="2px" d="M31.5,195.18249781108932L32.666666666666664,168.70449041991446L33.833333333333336,148.5348496495834L35,135.60220104208344L36.16666666666667,122.81650364780562L37.333333333333336,113.41583279245803L38.5,108.38841114047838L39.666666666666664,101.56425760635335L40.833333333333336,95.15927646350535L42,86.44993164469354L43.16666666666667,79.689262770078L44.33333333333333,74.27815679646633L45.5,69.77123450281424L46.666666666666664,68.9116045668839L47.833333333333336,61.76738710500756L49,54.655285645349316L50.166666666666664,51.80487698851426L51.33333333333333,45.75476026980375L52.5,43.06625418083881L53.66666666666667,39.41456464036555L54.833333333333336,38.22791424301958L56,38.012879572003754L57.166666666666664,36.92262642223481L58.333333333333336,36.170070385285676L59.5,34.404587495096884L60.66666666666667,33.47935049154947L61.83333333333333,32.271504060105016L63,31.376458662665836L64.16666666666666,31.330604110433654L65.33333333333333,31.897814011670913L66.5,31.5673462951418L67.66666666666667,30.663048051025456L68.83333333333333,29.017280112823865L70,29.004578811588363L71.16666666666666,30.113249911998075L72.33333333333334,29.128973897491377L73.5,28.73675526146905L74.66666666666667,28.16531110378995L75.83333333333333,27.3398657355562L77,27.488178474542288L78.16666666666667,27.765327848700885L79.33333333333333,27.23085162502317L80.5,28.43073759951209L81.66666666666667,28.92845055150076L82.83333333333333,28.053918842593657L84,28.20296416528231L85.16666666666666,29.045197426363124L86.33333333333334,29.68453696911623L87.5,29.86167735782316L88.66666666666666,30.257763546270404L89.83333333333334,30.831209946609807L91,30.61869676645834L92.16666666666667,31.509606932021875L93.33333333333333,32.09831517602079L94.5,32.05267120400117L95.66666666666667,31.771343404048864L96.83333333333333,31.89118162035582L98,32.71504184746513L99.16666666666667,33.51666582312443L100.33333333333333,33.58816166333136L101.5,33.43828224904405L102.66666666666666,33.479807876152165L103.83333333333334,33.43761736309652L105,33.846555078960414L106.16666666666666,34.445006087384755L107.33333333333334,34.36430766282206L108.5,34.85915454684364L109.66666666666667,35.725003912798535L110.83333333333333,35.3909690587233L112,36.453252876312234L113.16666666666667,36.70634248525548L114.33333333333333,36.56855343979974L115.5,37.55177616597653L116.66666666666667,37.49176406575105L117.83333333333333,37.481166861729754L119,37.96258613006873L120.16666666666666,38.205073622087426L121.33333333333334,39.44489607049205L122.5,40.87677078743695L123.66666666666666,40.09013031303841L124.83333333333334,39.51815029609169L126,38.88807797806245L127.16666666666667,38.63485684619393L128.33333333333331,39.74711424485475L129.5,40.70167128071556L130.66666666666666,40.38770594492762L131.83333333333334,40.33958600935481L133,40.218092006308716L134.16666666666669,40.631275654949384L135.33333333333334,41.71586101121755L136.5,42.37881329576405L137.66666666666666,42.29915146184113L138.83333333333334,41.68930938334549L140,41.12208646828689L141.16666666666666,41.23446549352856L142.33333333333331,41.82680419312008L143.5,42.20103950039178L144.66666666666669,42.14161402425548L145.83333333333334,40.8916339066111L147,40.95742003837113L148.16666666666666,41.50397882890043L149.33333333333334,41.01173690576175L150.5,41.457474181764404L151.66666666666666,42.405577152796305L152.83333333333331,42.322636514799456L154,41.17440442436732L155.16666666666669,41.3440492164718L156.33333333333334,41.63898434708272L157.5,41.83371655028913L158.66666666666666,41.95713384081045L159.83333333333331,41.69995166736303L161,42.06280862019938L162.16666666666669,42.18779465393122L163.33333333333334,42.751677875732824L164.5,42.061881926664846L165.66666666666666,42.36192614257887L166.83333333333334,42.57521385205129L168,43.25987359435758L169.16666666666666,43.55831349224674L170.33333333333331,43.71080031592154L171.5,43.938466969719414L172.66666666666669,42.81894020056188L173.83333333333334,43.14739365467696L175,43.68832373076243L176.16666666666666,43.79888560446243L177.33333333333331,44.14680222315883L178.5,44.179909823198656L179.66666666666669,43.58574223390767L180.83333333333334,44.24309761447625L182,44.21227700187521L183.16666666666666,44.47663728400317L184.33333333333334,43.70611538889556L185.5,42.67586893083171L186.66666666666666,43.080807365426445L187.83333333333331,43.254012130170594L189,42.67621342090943L190.16666666666669,42.46045698969448L191.33333333333334,42.448823036246964L192.5,42.68252204745612L193.66666666666666,43.44292718702318L194.83333333333331,43.590270987354316L196,43.972988314153326L197.16666666666669,43.86772584123712L198.33333333333334,44.66538042547273L199.5,44.431961123478246L200.66666666666666,44.29710825939891L201.83333333333334,44.38536703979911L203,44.90413797137699L204.16666666666666,45.31507797382812L205.33333333333331,45.470611377612L206.5,45.694748117956536L207.66666666666669,45.21838090087948L208.83333333333334,45.04794026175721L210,45.85338249659297L211.16666666666666,44.56330177101937L212.33333333333331,43.924526076993004L213.5,44.39814716665775L214.66666666666669,43.964260280661534L215.83333333333334,43.65793541701593L217,43.161262605380735L218.16666666666666,43.150938948268696L219.33333333333334,44.62616693989934L220.5,44.14478380689926L221.66666666666666,44.15923010832019L222.83333333333331,44.287415334737L224,44.971780651304606L225.16666666666669,44.29486004918412L226.33333333333334,44.09591369873041L227.5,45.0961267533644L228.66666666666666,45.22412619487912L229.83333333333331,45.20506788192063L231,44.913114362346214L232.16666666666669,44.43843248688422L233.33333333333334,44.66707624914191L234.5,44.66994463158818L235.66666666666666,45.797718398291664L236.83333333333334,45.21470167190964L238,45.07204459876505L239.16666666666666,44.82820777160336L240.33333333333331,44.62572770155919L241.5,44.29820070765871L242.66666666666669,44.238071263447125L243.83333333333334,44.89538575447476L245,44.356869967203565L246.16666666666666,45.11016017879312L247.33333333333331,45.434129158766524L248.5,45.62251610762551L249.66666666666669,45.447656054536615L250.83333333333334,45.3544106121303L252,45.176240446295786L253.16666666666666,45.8420374644557L254.33333333333334,44.38748339729074L255.5,44.19827616165026" style="fill: none;" fill="none"></path></g></g></g></g><g opacity="0.2"><g><g><g><path stroke="rgb(255, 112, 67)" stroke-width="2px" d="M28,216.25286608934402L29.166666666666668,176.7281603813171L30.333333333333336,142.7741718292236L31.5,133.45454305410382L32.666666666666664,129.6545726060867L33.833333333333336,118.58528375625606L35,116.32052630186077L36.16666666666667,103.7075367569923L37.333333333333336,99.34552133083339L38.5,100.85712790489193L39.666666666666664,91.3360488414764L40.833333333333336,85.55632203817362L42,73.3895999193191L43.16666666666667,69.54997599124903L44.33333333333333,66.16232216358179L45.5,63.01126301288599L46.666666666666664,67.62220680713648L47.833333333333336,51.0512959957122L49,43.98727387189857L50.166666666666664,47.52929776906959L51.33333333333333,36.67962819337837L52.5,39.03350651264183L53.66666666666667,33.93703967332832L54.833333333333336,36.44794046878807L56,37.690327763557356L57.166666666666664,35.28724730014793L58.333333333333336,35.041236579418104L59.5,31.756363511085432L60.66666666666667,32.091495096683424L61.83333333333333,30.45973449945442L63,30.03389060497276L64.16666666666666,31.261822283267897L65.33333333333333,32.74862885475151L66.5,31.071644723415297L67.66666666666667,29.306600689887922L68.83333333333333,26.548628211021345L70,28.985526859760206L71.16666666666666,31.77625656127922L72.33333333333334,27.652559876441877L73.5,28.148427307605665L74.66666666666667,27.30814486742012L75.83333333333333,26.101697683334272L77,27.710647583007734L78.16666666666667,28.181051909923475L79.33333333333333,26.429137289524L80.5,30.230566561222L81.66666666666667,29.67501997947685L82.83333333333333,26.742121279239576L84,28.426532149314802L85.16666666666666,30.308547317981642L86.33333333333334,30.64354628324501L87.5,30.12738794088356L88.66666666666666,30.851892828941267L89.83333333333334,31.691379547119062L91,30.299926996231L92.16666666666667,32.84597218036644L93.33333333333333,32.98137754201881L94.5,31.9842052459716L95.66666666666667,31.349351704120558L96.83333333333333,32.07093894481651L98,33.95083218812935L99.16666666666667,34.719101786613386L100.33333333333333,33.69540542364113L101.5,33.21346312761299L102.66666666666666,33.542096316814344L103.83333333333334,33.37433159351341L105,34.45996165275566L106.16666666666666,35.342682600021284L107.33333333333334,34.24326002597801L108.5,35.601424872875135L109.66666666666667,37.02377796173088L110.83333333333333,34.8899167776107L112,38.04667860269539L113.16666666666667,37.08597689867012L114.33333333333333,36.361869871616285L115.5,39.026610255241316L116.66666666666667,37.401745915412825L117.83333333333333,37.46527105569832L119,38.68471503257744L120.16666666666666,38.56880486011497L121.33333333333334,41.304629743099134L122.5,43.024582862853926L123.66666666666666,38.91016960144035L124.83333333333334,38.660180270671766L126,37.942969501018446L127.16666666666667,38.255025148391645L128.33333333333331,41.41550034284584L129.5,42.13350683450691L130.66666666666666,39.916757941245955L131.83333333333334,40.2674061059951L133,40.035851001739424L134.16666666666669,41.251051127910536L135.33333333333334,43.342739045619886L136.5,43.37324172258369L137.66666666666666,42.179658710956495L138.83333333333334,40.774546265602034L140,40.27125209569923L141.16666666666666,41.403034031391066L142.33333333333331,42.715312242507856L143.5,42.76239246129982L144.66666666666669,42.052475810050886L145.83333333333334,39.01666373014442L147,41.05609923601143L148.16666666666666,42.323817014694136L149.33333333333334,40.273374021053236L150.5,42.1260800957679L151.66666666666666,43.827731609344404L152.83333333333331,42.19822555780403L154,39.4520562887191L155.16666666666669,41.598516404628676L156.33333333333334,42.08138704299919L157.5,42.125814855098646L158.66666666666666,42.14225977659218L159.83333333333331,41.31417840719215L161,42.60709404945366L162.16666666666669,42.37527370452873L163.33333333333334,43.59750270843498L164.5,41.027188003063124L165.66666666666666,42.81199246644966L166.83333333333334,42.89514541625969L168,44.286863207817L169.16666666666666,44.00597333908073L170.33333333333331,43.939530551433485L171.5,44.27996695041649L172.66666666666669,41.13965004682533L173.83333333333334,43.640073835849684L175,44.499718844890516L176.16666666666666,43.96472841501228L177.33333333333331,44.66867715120308L178.5,44.229571223258894L179.66666666666669,42.69449084997169L180.83333333333334,45.22913068532936L182,44.1660460829734L183.16666666666666,44.873177707195204L184.33333333333334,42.55033254623405L185.5,41.13049924373619L186.66666666666666,43.68821501731865L187.83333333333331,43.51381927728645L189,41.80951535701744L190.16666666666669,42.13682234287254L191.33333333333334,42.43137210607521L192.5,43.03307056426994L193.66666666666666,44.58353489637367L194.83333333333331,43.811286687850874L196,44.54706430435173L197.16666666666669,43.70983213186256L198.33333333333334,45.8618623018264L199.5,44.08183217048637L200.66666666666666,44.094828963279646L201.83333333333334,44.51775521039955L203,45.68229436874382L204.16666666666666,45.93148797750465L205.33333333333331,45.70391148328773L206.5,46.030953228473585L207.66666666666669,44.5038300752639L208.83333333333334,44.792279303073805L210,47.06154584884636L211.16666666666666,42.62818068265907L212.33333333333331,42.966362535953444L213.5,45.10857880115501L214.66666666666669,43.31342995166771L215.83333333333334,43.19844812154762L217,42.41625338792793L218.16666666666666,43.13545346260063L219.33333333333334,46.8390089273452L220.5,43.42270910739891L221.66666666666666,44.18089956045143L222.83333333333331,44.479693174362104L224,45.998328626155775L225.16666666666669,43.279479146003645L226.33333333333334,43.79749417304985L227.5,46.596446335315626L228.66666666666666,45.41612535715095L229.83333333333331,45.17648041248314L231,44.475184082984846L232.16666666666669,43.72640967369072L233.33333333333334,45.010041892528456L234.5,44.67424720525734L235.66666666666666,47.489379048347395L236.83333333333334,44.34017658233635L238,44.858058989047926L239.16666666666666,44.46245253086082L240.33333333333331,44.32200759649269L241.5,43.80691021680824L242.66666666666669,44.147877097129744L243.83333333333334,45.88135749101631L245,43.549096286296766L246.16666666666666,46.240095496177595L247.33333333333331,45.92008262872688L248.5,45.90509653091423L249.66666666666669,45.18536597490303L250.83333333333334,45.21454244852058L252,44.90898519754402L253.16666666666666,46.840732991695326L254.33333333333334,42.20565229654304L255.5,43.914465308189314" style="fill: none;" fill="none"></path></g></g></g></g></g></g><g transform="translate(50, 178)" clip-path="url(#clip_1)"><clipPath id="clip_1"><rect width="280" height="22"></rect></clipPath><g><g><line x1="0" y1="0" x2="0" y2="5" style="visibility: inherit;" fill="rgb(0, 0, 0)" stroke="rgb(204, 204, 204)" stroke-width="1px"></line><line x1="23.333333333333332" y1="0" x2="23.333333333333332" y2="5" style="visibility: inherit;" fill="rgb(0, 0, 0)" stroke="rgb(204, 204, 204)" stroke-width="1px"></line><line x1="46.666666666666664" y1="0" x2="46.666666666666664" y2="5" style="visibility: inherit;" fill="rgb(0, 0, 0)" stroke="rgb(204, 204, 204)" stroke-width="1px"></line><line x1="70" y1="0" x2="70" y2="5" style="visibility: inherit;" fill="rgb(0, 0, 0)" stroke="rgb(204, 204, 204)" stroke-width="1px"></line><line x1="93.33333333333333" y1="0" x2="93.33333333333333" y2="5" style="visibility: inherit;" fill="rgb(0, 0, 0)" stroke="rgb(204, 204, 204)" stroke-width="1px"></line><line x1="116.66666666666667" y1="0" x2="116.66666666666667" y2="5" style="visibility: inherit;" fill="rgb(0, 0, 0)" stroke="rgb(204, 204, 204)" stroke-width="1px"></line><line x1="140" y1="0" x2="140" y2="5" style="visibility: inherit;" fill="rgb(0, 0, 0)" stroke="rgb(204, 204, 204)" stroke-width="1px"></line><line x1="163.33333333333334" y1="0" x2="163.33333333333334" y2="5" style="visibility: inherit;" fill="rgb(0, 0, 0)" stroke="rgb(204, 204, 204)" stroke-width="1px"></line><line x1="186.66666666666666" y1="0" x2="186.66666666666666" y2="5" style="visibility: inherit;" fill="rgb(0, 0, 0)" stroke="rgb(204, 204, 204)" stroke-width="1px"></line><line x1="210" y1="0" x2="210" y2="5" style="visibility: inherit;" fill="rgb(0, 0, 0)" stroke="rgb(204, 204, 204)" stroke-width="1px"></line><line x1="233.33333333333334" y1="0" x2="233.33333333333334" y2="5" style="visibility: inherit;" fill="rgb(0, 0, 0)" stroke="rgb(204, 204, 204)" stroke-width="1px"></line><line x1="256.66666666666663" y1="0" x2="256.66666666666663" y2="5" style="visibility: inherit;" fill="rgb(0, 0, 0)" stroke="rgb(204, 204, 204)" stroke-width="1px"></line><line x1="280" y1="0" x2="280" y2="5" style="visibility: inherit;" fill="rgb(0, 0, 0)" stroke="rgb(204, 204, 204)" stroke-width="1px"></line></g><g transform="translate(0, 8)"><text x="0" y="0" dx="0em" dy="0.95em" style="text-anchor: middle; visibility: hidden; font-family: Roboto, sans-serif; font-size: 12px; font-weight: 200;" fill="rgb(50, 49, 63)" stroke="none" stroke-width="1px">-20</text><text x="23.333333333333332" y="0" dx="0em" dy="0.95em" style="text-anchor: middle; visibility: inherit; font-family: Roboto, sans-serif; font-size: 12px; font-weight: 200;" fill="rgb(50, 49, 63)" stroke="none" stroke-width="1px">0</text><text x="46.666666666666664" y="0" dx="0em" dy="0.95em" style="text-anchor: middle; visibility: hidden; font-family: Roboto, sans-serif; font-size: 12px; font-weight: 200;" fill="rgb(50, 49, 63)" stroke="none" stroke-width="1px">20</text><text x="70" y="0" dx="0em" dy="0.95em" style="text-anchor: middle; visibility: inherit; font-family: Roboto, sans-serif; font-size: 12px; font-weight: 200;" fill="rgb(50, 49, 63)" stroke="none" stroke-width="1px">40</text><text x="93.33333333333333" y="0" dx="0em" dy="0.95em" style="text-anchor: middle; visibility: hidden; font-family: Roboto, sans-serif; font-size: 12px; font-weight: 200;" fill="rgb(50, 49, 63)" stroke="none" stroke-width="1px">60</text><text x="116.66666666666667" y="0" dx="0em" dy="0.95em" style="text-anchor: middle; visibility: inherit; font-family: Roboto, sans-serif; font-size: 12px; font-weight: 200;" fill="rgb(50, 49, 63)" stroke="none" stroke-width="1px">80</text><text x="140" y="0" dx="0em" dy="0.95em" style="text-anchor: middle; visibility: hidden; font-family: Roboto, sans-serif; font-size: 12px; font-weight: 200;" fill="rgb(50, 49, 63)" stroke="none" stroke-width="1px">100</text><text x="163.33333333333334" y="0" dx="0em" dy="0.95em" style="text-anchor: middle; visibility: inherit; font-family: Roboto, sans-serif; font-size: 12px; font-weight: 200;" fill="rgb(50, 49, 63)" stroke="none" stroke-width="1px">120</text><text x="186.66666666666666" y="0" dx="0em" dy="0.95em" style="text-anchor: middle; visibility: hidden; font-family: Roboto, sans-serif; font-size: 12px; font-weight: 200;" fill="rgb(50, 49, 63)" stroke="none" stroke-width="1px">140</text><text x="210" y="0" dx="0em" dy="0.95em" style="text-anchor: middle; visibility: inherit; font-family: Roboto, sans-serif; font-size: 12px; font-weight: 200;" fill="rgb(50, 49, 63)" stroke="none" stroke-width="1px">160</text><text x="233.33333333333334" y="0" dx="0em" dy="0.95em" style="text-anchor: middle; visibility: hidden; font-family: Roboto, sans-serif; font-size: 12px; font-weight: 200;" fill="rgb(50, 49, 63)" stroke="none" stroke-width="1px">180</text><text x="256.66666666666663" y="0" dx="0em" dy="0.95em" style="text-anchor: middle; visibility: inherit; font-family: Roboto, sans-serif; font-size: 12px; font-weight: 200;" fill="rgb(50, 49, 63)" stroke="none" stroke-width="1px">200</text><text x="280" y="0" dx="0em" dy="0.95em" style="text-anchor: middle; visibility: hidden; font-family: Roboto, sans-serif; font-size: 12px; font-weight: 200;" fill="rgb(50, 49, 63)" stroke="none" stroke-width="1px">220</text></g><line x1="0" y1="0" x2="280" y2="0" fill="rgb(0, 0, 0)" stroke="rgb(204, 204, 204)" stroke-width="1px"></line></g></g></g></g></svg>