<svg viewBox="0 0 330 200" xmlns="http://www.w3.org/2000/svg"><g><g><g><g><g><line x1="40" y1="178" x2="35" y2="178" style="visibility: inherit;" fill="rgb(0, 0, 0)" stroke="rgb(204, 204, 204)" stroke-width="1px"></line><line x1="40" y1="155.75" x2="35" y2="155.75" style="visibility: inherit;" fill="rgb(0, 0, 0)" stroke="rgb(204, 204, 204)" stroke-width="1px"></line><line x1="40" y1="133.5" x2="35" y2="133.5" style="visibility: inherit;" fill="rgb(0, 0, 0)" stroke="rgb(204, 204, 204)" stroke-width="1px"></line><line x1="40" y1="111.25" x2="35" y2="111.25" style="visibility: inherit;" fill="rgb(0, 0, 0)" stroke="rgb(204, 204, 204)" stroke-width="1px"></line><line x1="40" y1="88.99999999999999" x2="35" y2="88.99999999999999" style="visibility: inherit;" fill="rgb(0, 0, 0)" stroke="rgb(204, 204, 204)" stroke-width="1px"></line><line x1="40" y1="66.75" x2="35" y2="66.75" style="visibility: inherit;" fill="rgb(0, 0, 0)" stroke="rgb(204, 204, 204)" stroke-width="1px"></line><line x1="40" y1="44.5" x2="35" y2="44.5" style="visibility: inherit;" fill="rgb(0, 0, 0)" stroke="rgb(204, 204, 204)" stroke-width="1px"></line><line x1="40" y1="22.24999999999998" x2="35" y2="22.24999999999998" style="visibility: inherit;" fill="rgb(0, 0, 0)" stroke="rgb(204, 204, 204)" stroke-width="1px"></line><line x1="40" y1="0" x2="35" y2="0" style="visibility: inherit;" fill="rgb(0, 0, 0)" stroke="rgb(204, 204, 204)" stroke-width="1px"></line></g><g transform="translate(30, 0)"><text x="0" y="178" dx="0em" dy="0.3em" style="text-anchor: end; visibility: hidden; font-family: Roboto, sans-serif; font-size: 12px; font-weight: 200;" fill="rgb(50, 49, 63)" stroke="none" stroke-width="1px">0.4</text><text x="0" y="155.75" dx="0em" dy="0.3em" style="text-anchor: end; visibility: inherit; font-family: Roboto, sans-serif; font-size: 12px; font-weight: 200;" fill="rgb(50, 49, 63)" stroke="none" stroke-width="1px">0.5</text><text x="0" y="133.5" dx="0em" dy="0.3em" style="text-anchor: end; visibility: hidden; font-family: Roboto, sans-serif; font-size: 12px; font-weight: 200;" fill="rgb(50, 49, 63)" stroke="none" stroke-width="1px">0.6</text><text x="0" y="111.25" dx="0em" dy="0.3em" style="text-anchor: end; visibility: inherit; font-family: Roboto, sans-serif; font-size: 12px; font-weight: 200;" fill="rgb(50, 49, 63)" stroke="none" stroke-width="1px">0.7</text><text x="0" y="88.99999999999999" dx="0em" dy="0.3em" style="text-anchor: end; visibility: hidden; font-family: Roboto, sans-serif; font-size: 12px; font-weight: 200;" fill="rgb(50, 49, 63)" stroke="none" stroke-width="1px">0.8</text><text x="0" y="66.75" dx="0em" dy="0.3em" style="text-anchor: end; visibility: inherit; font-family: Roboto, sans-serif; font-size: 12px; font-weight: 200;" fill="rgb(50, 49, 63)" stroke="none" stroke-width="1px">0.9</text><text x="0" y="44.5" dx="0em" dy="0.3em" style="text-anchor: end; visibility: hidden; font-family: Roboto, sans-serif; font-size: 12px; font-weight: 200;" fill="rgb(50, 49, 63)" stroke="none" stroke-width="1px">1</text><text x="0" y="22.24999999999998" dx="0em" dy="0.3em" style="text-anchor: end; visibility: inherit; font-family: Roboto, sans-serif; font-size: 12px; font-weight: 200;" fill="rgb(50, 49, 63)" stroke="none" stroke-width="1px">1.1</text><text x="0" y="0" dx="0em" dy="0.3em" style="text-anchor: end; visibility: hidden; font-family: Roboto, sans-serif; font-size: 12px; font-weight: 200;" fill="rgb(50, 49, 63)" stroke="none" stroke-width="1px">1.2</text></g><line x1="40" y1="0" x2="40" y2="178" fill="rgb(0, 0, 0)" stroke="rgb(204, 204, 204)" stroke-width="1px"></line></g></g><g transform="translate(40, 0)" clip-path="url(#clip_0)"><clipPath id="clip_0"><rect width="290" height="178"></rect></clipPath><g><g><g><line x1="0" y1="0" x2="0" y2="178" fill="rgb(0, 0, 0)" stroke="rgb(60, 60, 60)" stroke-width="1px" opacity="0.25"></line><line x1="24.166666666666664" y1="0" x2="24.166666666666664" y2="178" fill="rgb(0, 0, 0)" stroke="rgb(60, 60, 60)" stroke-width="1px" opacity="0.25"></line><line x1="48.33333333333333" y1="0" x2="48.33333333333333" y2="178" fill="rgb(0, 0, 0)" stroke="rgb(60, 60, 60)" stroke-width="1px" opacity="0.25"></line><line x1="72.5" y1="0" x2="72.5" y2="178" fill="rgb(0, 0, 0)" stroke="rgb(60, 60, 60)" stroke-width="1px" opacity="0.25"></line><line x1="96.66666666666666" y1="0" x2="96.66666666666666" y2="178" fill="rgb(0, 0, 0)" stroke="rgb(60, 60, 60)" stroke-width="1px" opacity="0.25"></line><line x1="120.83333333333334" y1="0" x2="120.83333333333334" y2="178" fill="rgb(0, 0, 0)" stroke="rgb(60, 60, 60)" stroke-width="1px" opacity="0.25"></line><line x1="145" y1="0" x2="145" y2="178" fill="rgb(0, 0, 0)" stroke="rgb(60, 60, 60)" stroke-width="1px" opacity="0.25"></line><line x1="169.16666666666669" y1="0" x2="169.16666666666669" y2="178" fill="rgb(0, 0, 0)" stroke="rgb(60, 60, 60)" stroke-width="1px" opacity="0.25"></line><line x1="193.33333333333331" y1="0" x2="193.33333333333331" y2="178" fill="rgb(0, 0, 0)" stroke="rgb(60, 60, 60)" stroke-width="1px" opacity="0.25"></line><line x1="217.5" y1="0" x2="217.5" y2="178" fill="rgb(0, 0, 0)" stroke="rgb(60, 60, 60)" stroke-width="1px" opacity="0.25"></line><line x1="241.66666666666669" y1="0" x2="241.66666666666669" y2="178" fill="rgb(0, 0, 0)" stroke="rgb(60, 60, 60)" stroke-width="1px" opacity="0.25"></line><line x1="265.8333333333333" y1="0" x2="265.8333333333333" y2="178" fill="rgb(0, 0, 0)" stroke="rgb(60, 60, 60)" stroke-width="1px" opacity="0.25"></line><line x1="290" y1="0" x2="290" y2="178" fill="rgb(0, 0, 0)" stroke="rgb(60, 60, 60)" stroke-width="1px" opacity="0.25"></line></g><g><line x1="0" y1="178" x2="290" y2="178" fill="rgb(0, 0, 0)" stroke="rgb(60, 60, 60)" stroke-width="1px" opacity="0.25"></line><line x1="0" y1="155.75" x2="290" y2="155.75" fill="rgb(0, 0, 0)" stroke="rgb(60, 60, 60)" stroke-width="1px" opacity="0.25"></line><line x1="0" y1="133.5" x2="290" y2="133.5" fill="rgb(0, 0, 0)" stroke="rgb(60, 60, 60)" stroke-width="1px" opacity="0.25"></line><line x1="0" y1="111.25" x2="290" y2="111.25" fill="rgb(0, 0, 0)" stroke="rgb(60, 60, 60)" stroke-width="1px" opacity="0.25"></line><line x1="0" y1="88.99999999999999" x2="290" y2="88.99999999999999" fill="rgb(0, 0, 0)" stroke="rgb(60, 60, 60)" stroke-width="1px" opacity="0.25"></line><line x1="0" y1="66.75" x2="290" y2="66.75" fill="rgb(0, 0, 0)" stroke="rgb(60, 60, 60)" stroke-width="1px" opacity="0.25"></line><line x1="0" y1="44.5" x2="290" y2="44.5" fill="rgb(0, 0, 0)" stroke="rgb(60, 60, 60)" stroke-width="1px" opacity="0.25"></line><line x1="0" y1="22.24999999999998" x2="290" y2="22.24999999999998" fill="rgb(0, 0, 0)" stroke="rgb(60, 60, 60)" stroke-width="1px" opacity="0.25"></line><line x1="0" y1="0" x2="290" y2="0" fill="rgb(0, 0, 0)" stroke="rgb(60, 60, 60)" stroke-width="1px" opacity="0.25"></line></g></g></g><g><g><line x1="0" y1="267" x2="290" y2="267" fill="rgb(0, 0, 0)" stroke="rgb(153, 153, 153)" stroke-width="1.5px"></line></g></g><g><g><line x1="24.166666666666664" y1="0" x2="24.166666666666664" y2="178" fill="rgb(0, 0, 0)" stroke="rgb(153, 153, 153)" stroke-width="1.5px"></line></g></g><g><g><g><g><g><path stroke="rgb(255, 112, 67)" stroke-width="2px" d="M24.166666666666664,113.59592375159264L24.650000000000002,67.87147435173392L25.133333333333333,92.28070451349629L25.616666666666667,127.27651466949679L26.099999999999998,151.2971307357759L26.583333333333332,165.6381326484565L27.066666666666666,175.52266485188758L27.55,168.2782827752051L28.03333333333333,160.21023494260777L28.516666666666666,146.5200305962L29,145.33560030303798L29.483333333333334,147.68345591825468L29.966666666666665,152.84939597222717L30.45,154.11396366357033L30.933333333333334,149.7319650688121L31.416666666666668,149.44057540179884L31.9,148.66974528954515L32.38333333333333,148.95272741341364L32.86666666666667,150.93589480076952L33.35,148.7709426492668L33.833333333333336,150.62209461390745L34.31666666666666,149.916176816343L34.8,150.0584373387074L35.28333333333334,150.53251028059006L35.766666666666666,152.6738149783606L36.25,152.62107575847259L36.733333333333334,152.6612277019511L37.21666666666666,156.1480564720964L37.7,160.8750223140777L38.18333333333333,163.0062836841178L38.666666666666664,161.32278692656595L39.150000000000006,159.69940744792103L39.63333333333333,161.63334871201727L40.11666666666667,163.55265716966915L40.6,163.91437139690015L41.083333333333336,162.25837905236747L41.56666666666667,161.70188171536245L42.05,160.46612259805605L42.53333333333333,156.71447994505232L43.01666666666667,151.36312269565295L43.5,147.09198225034535L43.983333333333334,145.92988542556427L44.46666666666666,145.34791684038322L44.95,144.01082559733402L45.43333333333334,144.79077918721686L45.916666666666664,144.548139759248L46.4,145.4304750969415L46.88333333333333,148.7726846344271L47.36666666666667,148.78916155141604L47.85,144.01528900167668L48.33333333333333,145.23507763923595L48.81666666666667,150.3425226985448L49.300000000000004,154.76332972521558L49.78333333333333,154.63777070090146L50.266666666666666,155.11331363227978L50.75,160.39575238053413L51.233333333333334,160.09832115187882L51.71666666666667,164.6715216887876L52.199999999999996,165.29203130918057L52.68333333333334,166.1330067343552L53.166666666666664,162.50580811661703L53.65,155.64294625617387L54.13333333333333,153.72866295157266L54.61666666666667,149.55690634476179L55.1,145.88484126464743L55.583333333333336,143.63651660761965L56.06666666666666,144.1192049126728L56.550000000000004,144.96118689423227L57.03333333333333,140.50770177153004L57.516666666666666,139.12869078938513L58,130.8228659690878L58.483333333333334,129.7713624156392L58.96666666666667,128.43270799618224L59.449999999999996,130.9161708301381L59.93333333333333,125.91371925747846L60.41666666666667,121.87073308275016L60.9,119.60785750178022L61.38333333333333,121.14165330903245L61.86666666666667,111.9067143379242L62.35,109.98553811184115L62.833333333333336,108.51875029010505L63.31666666666666,104.63946342470007L63.8,105.6653450012312L64.28333333333333,107.75107114792497L64.76666666666667,101.77116559315103L65.25,95.18043794851528L65.73333333333333,96.43280831945553L66.21666666666667,92.88405863030323L66.7,89.3576482867215L67.18333333333334,88.57413779109801L67.66666666666667,85.3133283162718L68.14999999999999,81.32365619567663L68.63333333333333,78.8462702836253L69.11666666666667,76.95515574250567L69.6,78.81021618386472L70.08333333333333,75.1887011977456L70.56666666666668,74.80768390014302L71.05,69.1203940243395L71.53333333333333,69.37969363515805L72.01666666666667,66.4285837101056L72.5,65.91451134008848L72.98333333333333,66.73713370396305L73.46666666666667,66.39107186933522L73.95,65.95226161086657L74.43333333333332,65.82353204729615L74.91666666666667,65.16540132905519L75.4,63.19389522639203L75.88333333333333,61.960012308164146L76.36666666666666,62.07676534140332L76.85000000000001,61.16317744424478L77.33333333333333,62.29394509417138L77.81666666666666,61.663840842380054L78.30000000000001,60.471881992896755L78.78333333333333,59.6561221166136L79.26666666666667,59.009198110323055L79.75,59.07864221395308L80.23333333333333,57.57575921095166L80.71666666666667,56.55861258433314L81.2,57.10422222570213L81.68333333333334,55.79496820423382L82.16666666666667,55.964070008119194L82.64999999999999,54.11902530546204L83.13333333333334,55.2821456286622L83.61666666666666,55.39703474600987L84.1,55.43085565662309L84.58333333333334,53.538752368068245L85.06666666666666,52.0403812235448L85.55,53.37498734628278L86.03333333333335,52.63575838944386L86.51666666666667,52.87004354561015L87,52.797270959404955L87.48333333333333,53.23396886932124L87.96666666666667,52.374825915975975L88.45,51.639779222776646L88.93333333333332,51.545277531606025L89.41666666666667,50.936127946175375L89.9,50.37244506203964L90.38333333333333,49.78011355116267L90.86666666666667,48.48735942431866L91.35,48.33119775050033L91.83333333333333,48.40069802518576L92.31666666666668,47.65840512463981L92.8,46.31018727987725L93.28333333333333,46.17434720974991L93.76666666666667,45.47976057995458L94.25,45.013726885730605L94.73333333333333,44.888503262766946L95.21666666666665,44.93152319751307L95.7,43.97653882123306L96.18333333333334,43.75958605061336L96.66666666666666,44.45654619604566L97.15,44.15894911807905L97.63333333333334,43.909624660743056L98.11666666666666,43.4849860219555L98.60000000000001,44.31249086549268L99.08333333333333,44.425275400223626L99.56666666666666,44.66453561481376L100.05,44.43763540563903L100.53333333333333,45.097323384153356L101.01666666666667,44.93688404933663L101.5,45.42050020918875L101.98333333333333,45.49023899451273L102.46666666666667,45.359803146215526L102.94999999999999,44.8079013741566L103.43333333333334,44.61655275324307L103.91666666666667,44.522167112227216L104.39999999999999,43.95004579174276L104.88333333333334,43.36107526271199L105.36666666666667,44.03575516968166L105.85,44.29377892750018L106.33333333333333,44.066423816308436L106.81666666666668,44.42880643774572L107.3,43.55769360881745L107.78333333333333,43.95105578197058L108.26666666666667,43.57865873392234L108.75,43.71312565455321L109.23333333333333,43.72557529717376L109.71666666666667,43.31695674007948L110.2,43.2207341560472L110.68333333333332,43.706086180731596L111.16666666666667,43.855414856746734L111.65,43.11090442495044L112.13333333333333,44.00192887161076L112.61666666666666,43.95774065598188L113.10000000000001,43.84420756783686L113.58333333333333,43.876454784194266L114.06666666666666,42.955047508311075L114.55000000000001,43.11450165523992L115.03333333333333,42.89763575800603L115.51666666666667,43.609310531665955L116,43.07052637580039L116.48333333333333,42.8114122953594L116.96666666666667,43.52551416197898L117.45,43.50858845495869L117.93333333333334,42.94487575402074L118.41666666666667,43.004328773678594L118.89999999999999,43.55764427558257L119.38333333333334,43.525224726055086L119.86666666666666,43.02069025078657L120.35,42.93697348141221L120.83333333333334,43.36424028219911L121.31666666666666,43.44056560601073L121.8,44.07052154544163L122.28333333333335,43.48883845331173L122.76666666666667,43.06779984189213L123.25,43.220231005866175L123.73333333333333,43.619846313785814L124.21666666666667,42.74028926467375L124.7,43.15700279102017L125.18333333333332,43.016023721845684L125.66666666666667,43.273236016363974L126.15,43.43985995050137L126.63333333333333,43.29371218917289L127.11666666666667,43.17627413891269L127.6,43.20763189686843L128.08333333333334,42.819005054792825L128.56666666666666,43.31745820198124L129.05,42.627500682793055L129.53333333333333,42.507762950493095L130.01666666666665,42.34230096449444L130.5,42.947343846023L130.98333333333332,42.179701650059194L131.46666666666667,42.47641027207132L131.95000000000002,42.29387788912626L132.43333333333334,42.25969741905317L132.91666666666666,42.33163081505649L133.4,41.747454231373965L133.88333333333333,42.25716621005084L134.36666666666667,41.91508470966545L134.85,42.31299309130983L135.33333333333334,42.42659757254409L135.81666666666666,42.430805431114955L136.29999999999998,42.83864971775255L136.78333333333333,42.279783158173785L137.26666666666665,42.33154484550393L137.75,42.054965120078535L138.23333333333335,41.948187173319724L138.71666666666667,42.45391041094834L139.2,41.81235550674661L139.68333333333334,41.77699915667093L140.16666666666666,41.77504181921314L140.65,42.723619985937084L141.13333333333335,42.708643274521236L141.61666666666667,42.621506736883774L142.1,41.6841909683998L142.58333333333331,41.72554231865739L143.06666666666666,41.850454957387065L143.55,41.53285695976089L144.03333333333333,42.058352481520615L144.51666666666668,42.40548928451326L145,42.05256454868187L145.48333333333335,41.75568867160719L145.96666666666667,41.425145247184304L146.45,41.88480702555363L146.93333333333334,42.05251321504224L147.41666666666666,42.2388627130372L147.9,42.102640557204644L148.38333333333335,42.739465455958225L148.86666666666665,42.814199507682886L149.35,42.62133125093541L149.83333333333334,42.650378654163845L150.31666666666666,42.8632152019511L150.8,43.13181297412934L151.28333333333333,43.16799023408547L151.76666666666665,42.86624089872155L152.25,42.769601488085485L152.73333333333332,43.28635193346256L153.21666666666667,43.49136689566559L153.70000000000002,43.89420477904669L154.1833333333333,43.40471325133917L154.66666666666666,43.43090919145749L155.15,43.59122535877708L155.63333333333333,43.54555373962688L156.11666666666667,43.81094463810899L156.60000000000002,43.628262735280906L157.08333333333331,43.87942334227177L157.56666666666666,44.13201456196554L158.05,44.75273759917883L158.53333333333333,43.81618749950208L159.01666666666668,44.15921616467167L159.5,44.422622417881044L159.98333333333332,44.87254230706329L160.46666666666667,44.940847674181654L160.95000000000002,44.56488847683107L161.43333333333334,44.84025179118059L161.91666666666666,44.96785865289059L162.4,44.914985323322334L162.88333333333333,45.40952533744128L163.36666666666667,45.84555905021638L163.85,45.435855144008464L164.33333333333334,45.628152032938274L164.81666666666666,45.72009350076118L165.29999999999998,45.73381187447785L165.78333333333333,45.025866567664615L166.26666666666668,45.926411521180434L166.75,46.01737836107252L167.23333333333332,45.691518468288386L167.71666666666667,45.6216470376419L168.2,45.97539960001508L168.68333333333334,46.90376911553503L169.16666666666669,46.36967558856462L169.64999999999998,46.17238132474217L170.13333333333333,46.05096510837908L170.61666666666667,45.67849951857589L171.1,46.006444906438944L171.58333333333334,46.05480998471114L172.0666666666667,45.44277416297634L172.54999999999998,46.528827516012406L173.03333333333333,45.932953088148224L173.51666666666668,46.37226444999203L174,47.03103864502802L174.48333333333335,46.34478963799414L174.96666666666667,46.16900894276582L175.45,46.151531465245974L175.93333333333334,46.53556925499062L176.41666666666666,46.26206118132842L176.9,46.583601392901954L177.38333333333335,46.463615797517924L177.86666666666665,46.9138037458409L178.35,46.70018119188242L178.83333333333334,47.19314825875813L179.31666666666666,46.71696675028354L179.8,47.2144498837349L180.28333333333333,47.139369500419924L180.76666666666665,46.96634795233096L181.25,47.20496072747996L181.73333333333335,47.372148587576675L182.21666666666667,47.54511072294243L182.7,47.9214440110703L183.18333333333334,48.00009907027361L183.66666666666666,47.869368664862364L184.15,48.208111555839544L184.63333333333335,47.98287690369186L185.11666666666665,48.62995737008987L185.6,48.195280559138894L186.08333333333334,47.92412478165412L186.56666666666666,48.127458133915574L187.05,48.335921298634695L187.53333333333333,48.588415510160736L188.01666666666665,48.48367363614023L188.5,48.672403981698636L188.98333333333332,48.42336056853121L189.46666666666667,48.99814764395228L189.95000000000002,48.99825476249976L190.4333333333333,49.00780403996063L190.91666666666666,49.78469963302942L191.4,49.483511647169166L191.88333333333333,49.93762056862374L192.36666666666667,49.154581897467736L192.85000000000002,50.15145471871515L193.33333333333331,49.770925218943475L193.81666666666666,48.995644125392275L194.3,49.78464475455894L194.78333333333333,50.22351079692251L195.26666666666668,50.21633268302564L195.75,50.29620259348085L196.23333333333332,49.889873369595584L196.71666666666667,50.33073096517392L197.20000000000002,49.467447501681264L197.68333333333334,50.12031870023134L198.16666666666666,49.90656062922312L198.65,49.75861962414643L199.13333333333333,50.56912698612724L199.61666666666667,49.816359616912074L200.1,50.47118247604172L200.58333333333334,49.60640042457461L201.06666666666666,50.032689794501565L201.54999999999998,50.04330146586948L202.03333333333333,50.60943237707649L202.51666666666668,50.22321086982271L203,50.40902513181794L203.48333333333332,50.43827316710727L203.96666666666667,50.28563827007639L204.45,50.32771210509315L204.93333333333334,50.831726423727105L205.41666666666669,51.23334563483395L205.89999999999998,50.9449975771284L206.38333333333333,50.658916645203576L206.86666666666667,51.414682086083026L207.35,51.33701282487672L207.83333333333334,50.650608335413686L208.3166666666667,50.55801461605916L208.79999999999998,50.75335483830387L209.28333333333333,51.09029495168456L209.76666666666668,51.30073983340698L210.25,51.29396204274438L210.73333333333335,51.042356861362094L211.21666666666667,50.59328976436211L211.7,51.262382395051425L212.18333333333334,51.05238396345524L212.66666666666666,50.968446769827274L213.15,51.0968619695387L213.63333333333335,51.278484875624265L214.11666666666665,51.093693968453955L214.6,51.52008561897213L215.08333333333334,51.67973903779944L215.56666666666666,52.14929232576346L216.05,51.73995034443647L216.53333333333333,51.598796931191146L217.01666666666665,51.6322430773281L217.5,51.786098158580224L217.98333333333335,52.04038307441601L218.46666666666667,52.03215982540447L218.95,51.69694819464683L219.43333333333334,52.077085533227894L219.91666666666666,51.669693731359466L220.4,52.16152430957069L220.88333333333335,52.218229647788476L221.36666666666665,51.706398163028396L221.85,51.613284834496866L222.33333333333334,52.958428661985806L222.81666666666666,52.28505294380405L223.3,52.23983978544364L223.78333333333333,52.53892077991181L224.26666666666665,52.307256948881225L224.75,52.67081014629177L225.23333333333332,52.5378801245449L225.71666666666667,53.1346502673005L226.20000000000002,53.93064591713995L226.6833333333333,53.24543351786285L227.16666666666666,52.61235799108117L227.65,53.02681829758981L228.13333333333333,52.99044033425153L228.61666666666667,53.328868738037926L229.10000000000002,53.297506076826224L229.58333333333331,53.255697418888545L230.06666666666666,53.421909099602786L230.55,53.833925167193456L231.03333333333333,53.96855605809121L231.51666666666668,53.862414188195636L232,53.686187450295314L232.48333333333332,53.912951805714144L232.96666666666667,53.79122301252088L233.45000000000002,53.815863265463136L233.93333333333334,53.85547924868371L234.41666666666666,53.91827635068955L234.9,53.61840403139152L235.38333333333333,54.10046830212806L235.86666666666667,53.53057111761413L236.35,54.16480865157512L236.83333333333334,54.24782010362665L237.31666666666666,54.30683082608054L237.79999999999998,54.18219634454052L238.28333333333333,54.238996246818324L238.76666666666668,54.68976927957751L239.25,54.18472773529181L239.73333333333332,54.0686603468483L240.21666666666667,54.46965765248686L240.7,54.883972759788925L241.18333333333334,54.2747045372401L241.66666666666669,54.95037767973387L242.14999999999998,54.914474139731176L242.63333333333333,54.78459181196754L243.11666666666667,55.36954659108675L243.6,55.041476821210125L244.08333333333334,55.38960374313959L244.5666666666667,55.33242228578549L245.04999999999998,55.3333320674361L245.53333333333333,54.93144418341284L246.01666666666668,54.95426835741021L246.5,55.26487857178104L246.98333333333335,55.11206023737938L247.46666666666667,55.34029192236153L247.95,55.63245507780963L248.43333333333334,55.71744382801205L248.91666666666666,55.46485852254958L249.4,55.62010591658074L249.88333333333335,56.00990482230255L250.36666666666665,55.73935476576847L250.85,56.10027030489183L251.33333333333334,55.825588604100574L251.81666666666666,55.931606221370714L252.3,55.57226402054598L252.78333333333333,55.88162303263169L253.26666666666665,55.83473907884492L253.75,56.00036701546031L254.23333333333335,55.827548497831344L254.71666666666667,55.88241825933187L255.2,56.7059217598136L255.68333333333334,56.44298455155466L256.1666666666667,56.806420141676526L256.65,56.818357666861665L257.1333333333333,56.33733942540388L257.6166666666667,56.12591882009447L258.1,56.1728362289616L258.58333333333337,56.08552741095712L259.06666666666666,56.73327669552141L259.55,56.67352630526526L260.0333333333333,56.68883569139661L260.51666666666665,56.545736045231926L261,56.559113401526496L261.4833333333333,56.28061092993873L261.96666666666664,56.82235983074463L262.45,56.69495102799387L262.93333333333334,56.97680345199377L263.4166666666667,56.43735098255795L263.90000000000003,56.48181233056258L264.3833333333333,57.069871015834046L264.8666666666667,57.566609899692104L265.35,57.444299817378734" style="fill: none;" fill="none"></path></g></g></g></g><g opacity="0.2"><g><g><g><path stroke="rgb(255, 112, 67)" stroke-width="2px" d="M24.166666666666664,113.59592375159264L24.650000000000002,40.436804711818695L25.133333333333333,115.71356546878815L25.616666666666667,168.43158741295338L26.099999999999998,182.6584470719099L27.066666666666666,189.6577040553093L27.55,157.71590416133404L28.03333333333333,148.31143152713776L28.516666666666666,126.19167265295982L29,143.56969755887985L29.483333333333334,151.1924624145031L29.966666666666665,160.58143836259842L30.45,156.00833778083324L30.933333333333334,143.16411805152893L31.416666666666668,149.00369641184807L31.9,147.5138263106346L32.38333333333333,149.37712875008583L32.86666666666667,153.91034376621246L33.35,145.52371230721474L33.833333333333336,153.3987210392952L34.31666666666666,148.8573233485222L34.8,150.27182531356812L35.28333333333334,151.24361407756805L35.766666666666666,155.88575680553913L36.25,152.5419671535492L36.733333333333334,152.721455514431L37.21666666666666,161.37829427421093L37.7,167.96546672284603L38.18333333333333,166.20317456126213L38.666666666666664,158.79754234850407L39.150000000000006,157.2643385529518L39.63333333333333,164.53426037728786L40.11666666666667,166.43161971867085L40.6,164.45694272220135L41.083333333333336,159.77439057826996L41.56666666666667,160.86713571846485L42.05,158.612483933568L42.53333333333333,151.08701598644257L43.01666666666667,143.33608683943748L43.5,140.6852715909481L43.983333333333334,144.18674018979073L44.46666666666666,144.47496396303177L44.95,142.0051887333393L45.43333333333334,145.96070957183838L45.916666666666664,144.18418061733246L46.4,146.75397810339928L46.88333333333333,153.78599894046783L47.36666666666667,148.81387692689896L47.85,136.85448017716408L48.33333333333333,147.06476059556007L48.81666666666667,158.00369028747082L49.300000000000004,161.39454026520252L49.78333333333333,154.44943216443062L50.266666666666666,155.82662802934647L50.75,168.3194105029106L51.233333333333334,159.65217430889606L51.71666666666667,171.5313224941492L52.199999999999996,166.22279573976994L52.68333333333334,167.39446987211704L53.166666666666664,157.06501019001007L53.65,145.34865346550941L54.13333333333333,150.85723799467087L54.61666666666667,143.29927143454552L55.1,140.37674364447594L55.583333333333336,140.26402962207794L56.06666666666666,144.8432373702526L56.550000000000004,146.22415986657143L57.03333333333333,133.82747408747673L57.516666666666666,137.06017431616783L58,118.36412873864174L58.483333333333334,128.19410708546638L58.96666666666667,126.42472636699677L59.449999999999996,134.64136508107185L59.93333333333333,118.410041898489L60.41666666666667,115.80625382065773L60.9,116.21354413032532L61.38333333333333,123.44234701991081L61.86666666666667,98.05430588126183L62.35,107.10377377271652L62.833333333333336,106.31856855750084L63.31666666666666,98.82053312659264L63.8,107.20416736602783L64.28333333333333,110.8796603679657L64.76666666666667,92.80130726099014L65.25,85.29434648156166L65.73333333333333,98.31136387586594L66.21666666666667,87.56093409657478L66.7,84.06803277134895L67.18333333333334,87.39887204766273L67.66666666666667,80.42211410403252L68.14999999999999,75.33914801478386L68.63333333333333,75.13019141554832L69.11666666666667,74.11848393082619L69.6,81.5928068459034L70.08333333333333,69.7564287185669L70.56666666666668,74.23615795373917L71.05,60.58945921063423L71.53333333333333,69.76864305138588L72.01666666666667,62.00191882252693L72.5,65.14340278506279L72.98333333333333,67.97106724977493L73.46666666666667,65.8719791173935L73.95,65.2940462231636L74.43333333333332,65.63043770194054L74.91666666666667,64.17820525169373L75.4,60.23663607239723L75.88333333333333,60.10918793082237L76.36666666666666,62.251894891262054L76.85000000000001,59.79279559850693L77.33333333333333,63.99009656906128L77.81666666666666,60.71868446469307L78.30000000000001,58.6839437186718L78.78333333333333,58.43248230218887L79.26666666666667,58.0388121008873L79.75,59.18280836939812L80.23333333333333,55.32143470644951L80.71666666666667,55.032892644405365L81.2,57.922636687755585L81.68333333333334,53.8310871720314L82.16666666666667,56.217722713947296L82.64999999999999,51.35145825147629L83.13333333333334,57.02682611346245L83.61666666666666,55.5693684220314L84.1,55.48158702254295L84.58333333333334,50.70059743523598L85.06666666666666,49.792824506759644L85.55,55.376896530389786L86.03333333333335,51.526914954185486L86.51666666666667,53.22147127985954L87,52.6881120800972L87.48333333333333,53.88901573419571L87.96666666666667,51.0861114859581L88.45,50.537209182977676L88.93333333333332,51.40352499485016L89.41666666666667,50.022403568029404L89.9,49.52692073583603L90.38333333333333,48.89161628484726L90.86666666666667,46.54822823405266L91.35,48.0969552397728L91.83333333333333,48.5049484372139L92.31666666666668,46.54496577382088L92.8,44.28786051273346L93.28333333333333,45.970587104558945L93.76666666666667,44.437880635261536L94.25,44.314676344394684L94.73333333333333,44.70066782832146L95.21666666666665,44.99605309963226L95.7,42.54406225681305L96.18333333333334,43.43415689468384L96.66666666666666,45.50198641419411L97.15,43.71255350112915L97.63333333333334,43.535637974739075L98.11666666666666,42.84802806377411L98.60000000000001,45.55374813079834L99.08333333333333,44.5944522023201L99.56666666666666,45.023425936698914L100.05,44.097285091876984L100.53333333333333,46.086855351924896L101.01666666666667,44.69622504711151L101.5,46.14592444896698L101.98333333333333,45.5948471724987L102.46666666666667,45.16414937376976L102.94999999999999,43.98004871606827L103.43333333333334,44.32952982187271L103.91666666666667,44.38058865070343L104.39999999999999,43.09186381101608L104.88333333333334,42.4776194691658L105.36666666666667,45.04777503013611L105.85,44.68081456422806L106.33333333333333,43.725391149520874L106.81666666666668,44.97238036990166L107.3,42.25102436542511L107.78333333333333,44.54109904170036L108.26666666666667,43.020063161849976L108.75,43.91482603549957L109.23333333333333,43.744249761104584L109.71666666666667,42.70402890443802L110.2,43.07640027999878L110.68333333333332,44.43411421775818L111.16666666666667,44.0794078707695L111.65,41.99413877725601L112.13333333333333,45.33846554160118L112.61666666666666,43.891458332538605L113.10000000000001,43.673907935619354L113.58333333333333,43.924825608730316L114.06666666666666,41.57293659448624L114.55000000000001,43.35368287563324L115.03333333333333,42.57233691215515L115.51666666666667,44.67682269215584L116,42.262350142002106L116.48333333333333,42.422741174697876L116.96666666666667,44.59666696190834L117.45,43.48319989442825L117.93333333333334,42.09930670261383L118.41666666666667,43.093508303165436L118.89999999999999,44.38761752843857L119.38333333333334,43.476595401763916L119.86666666666666,42.26388853788376L120.35,42.81139832735062L120.83333333333334,44.005140483379364L121.31666666666666,43.55505359172821L121.8,45.015455454587936L122.28333333333335,42.61631381511688L122.76666666666667,42.436241924762726L123.25,43.44887775182724L123.73333333333333,44.21926927566528L124.21666666666667,41.42095369100571L124.7,43.7820730805397L125.18333333333332,42.804555118083954L125.66666666666667,43.65905445814133L126.15,43.68979585170746L126.63333333333333,43.074490547180176L127.11666666666667,43.00011706352234L127.6,43.25466853380203L128.08333333333334,42.23606479167938L128.56666666666666,44.065137922763824L129.05,41.59256440401077L129.53333333333333,42.32815635204315L130.01666666666665,42.09410798549652L130.5,43.85490816831589L130.98333333333332,41.028238356113434L131.46666666666667,42.92147320508957L131.95000000000002,42.02007931470871L132.43333333333334,42.20842671394348L132.91666666666666,42.43953090906143L133.4,40.87118935585022L133.88333333333333,43.021734178066254L134.36666666666667,41.40196245908737L134.85,42.9098556637764L135.33333333333334,42.59700429439545L135.81666666666666,42.43711721897125L136.29999999999998,43.45041614770889L136.78333333333333,41.441483318805695L137.26666666666665,42.409187376499176L137.75,41.64009553194046L138.23333333333335,41.78802025318146L138.71666666666667,43.212495267391205L139.2,40.85002315044403L139.68333333333334,41.723964631557465L140.16666666666666,41.77210581302643L140.65,44.14648723602295L141.13333333333335,42.68617820739746L141.61666666666667,42.49080193042755L142.1,40.27821731567383L142.58333333333331,41.78756934404373L143.06666666666666,42.03782391548157L143.55,41.056459963321686L144.03333333333333,42.846595764160156L144.51666666666668,42.92619448900223L145,41.523177444934845L145.48333333333335,41.31037485599518L145.96666666666667,40.92933011054993L146.45,42.574299693107605L146.93333333333334,42.30407249927521L147.41666666666666,42.5183869600296L147.9,41.89830732345581L148.38333333333335,43.69470280408859L148.86666666666665,42.92630058526993L149.35,42.33202886581421L149.83333333333334,42.6939497590065L150.31666666666666,43.18247002363205L150.8,43.5347096323967L151.28333333333333,43.22225612401962L151.76666666666665,42.41361689567566L152.25,42.62464237213135L152.73333333333332,44.06147760152817L153.21666666666667,43.798889338970184L153.70000000000002,44.49846160411835L154.1833333333333,42.67047595977783L154.66666666666666,43.47020310163498L155.15,43.83169960975647L155.63333333333333,43.47704631090164L156.11666666666667,44.209030985832214L156.60000000000002,43.354239881038666L157.08333333333331,44.256164252758026L157.56666666666666,44.510901391506195L158.05,45.68382215499878L158.53333333333333,42.41136234998703L159.01666666666668,44.673759162425995L159.5,44.81773179769516L159.98333333333332,45.547422140836716L160.46666666666667,45.04330572485924L160.95000000000002,44.000949680805206L161.43333333333334,45.25329676270485L161.91666666666666,45.15926894545555L162.4,44.835675328969955L162.88333333333333,46.15133535861969L163.36666666666667,46.499609619379044L163.85,44.82129928469658L164.33333333333334,45.91659736633301L164.81666666666666,45.858005702495575L165.29999999999998,45.75438943505287L165.78333333333333,43.96394860744476L166.26666666666668,47.27722895145416L166.75,46.153828620910645L167.23333333333332,45.202728629112244L167.71666666666667,45.516839891672134L168.2,46.506028443574905L168.68333333333334,48.296323388814926L169.16666666666669,45.568535298109055L169.64999999999998,45.876439929008484L170.13333333333333,45.86884078383446L170.61666666666667,45.11980113387108L171.1,46.498362988233566L171.58333333333334,46.127357602119446L172.0666666666667,44.524720430374146L172.54999999999998,48.15790754556656L173.03333333333333,45.039141446352005L173.51666666666668,47.0312314927578L174,48.019199937582016L174.48333333333335,45.315416127443314L174.96666666666667,45.905337899923325L175.45,46.12531524896622L175.93333333333334,47.11162593960762L176.41666666666666,45.85179907083511L176.9,47.0659117102623L177.38333333333335,46.28363740444183L177.86666666666665,47.589085668325424L178.35,46.37974736094475L178.83333333333334,47.93259885907173L179.31666666666666,46.002694487571716L179.8,47.960674583911896L180.28333333333333,47.026748925447464L180.76666666666665,46.706815630197525L181.25,47.562879890203476L181.73333333333335,47.62293037772179L182.21666666666667,47.80455392599106L182.7,48.4859439432621L183.18333333333334,48.1180816590786L183.66666666666666,47.67327305674553L184.15,48.716225892305374L184.63333333333335,47.64502492547035L185.11666666666665,49.60057806968689L185.6,47.5432653427124L186.08333333333334,47.51739111542702L186.56666666666666,48.43245816230774L187.05,48.648616045713425L187.53333333333333,48.9671568274498L188.01666666666665,48.32656082510948L188.5,48.95549950003624L188.98333333333332,48.04979544878006L189.46666666666667,49.86032825708389L189.95000000000002,48.99841544032097L190.4333333333333,49.02212795615196L190.91666666666666,50.9500430226326L191.4,49.03172966837883L191.88333333333333,50.618783950805664L192.36666666666667,47.98002389073372L192.85000000000002,51.64676395058632L193.33333333333331,49.200130969285965L193.81666666666666,47.83272248506546L194.3,50.968145698308945L194.78333333333333,50.88180986046791L195.26666666666668,50.20556551218033L195.75,50.416007459163666L196.23333333333332,49.2803795337677L196.71666666666667,50.99201735854149L197.20000000000002,48.17252230644226L197.68333333333334,51.09962549805641L198.16666666666666,49.5859235227108L198.65,49.53670811653137L199.13333333333333,51.78488802909851L199.61666666666667,48.68720856308937L200.1,51.453416764736176L200.58333333333334,48.30922734737396L201.06666666666666,50.67212384939194L201.54999999999998,50.05921897292137L202.03333333333333,51.45862874388695L202.51666666666668,49.64387860894203L203,50.68774652481079L203.48333333333332,50.482145220041275L203.96666666666667,50.05668592453003L204.45,50.39082285761833L204.93333333333334,51.587747901678085L205.41666666666669,51.83577445149422L205.89999999999998,50.51247549057007L206.38333333333333,50.22979524731636L206.86666666666667,52.54833024740219L207.35,51.22050893306732L207.83333333333334,49.62100160121918L208.3166666666667,50.41912403702736L208.79999999999998,51.046365171670914L209.28333333333333,51.5957051217556L209.76666666666668,51.6164071559906L210.25,51.28379535675049L210.73333333333335,50.66494908928871L211.21666666666667,49.91968911886215L211.7,52.266021341085434L212.18333333333334,50.73738631606102L212.66666666666666,50.842540979385376L213.15,51.28948476910591L213.63333333333335,51.550919234752655L214.11666666666665,50.81650760769844L214.6,52.15967309474945L215.08333333333334,51.91921916604042L215.56666666666666,52.8536222577095L216.05,51.12593737244606L216.53333333333333,51.387066811323166L217.01666666666665,51.682412296533585L217.5,52.01688078045845L217.98333333333335,52.42181044816971L218.46666666666667,52.01982495188713L218.95,51.19413074851036L219.43333333333334,52.64729154109955L219.91666666666666,51.058606028556824L220.4,52.89927017688751L220.88333333333335,52.30328765511513L221.36666666666665,50.93865093588829L221.85,51.4736148416996L222.33333333333334,54.97614440321922L222.81666666666666,51.27498936653137L223.3,52.17202004790306L223.78333333333333,52.987542271614075L224.26666666666665,51.95976120233536L224.75,53.21613994240761L225.23333333333332,52.33848509192467L225.71666666666667,54.02980548143387L226.20000000000002,55.12463939189911L226.6833333333333,52.21761491894722L227.16666666666666,51.66274470090866L227.65,53.64850875735283L228.13333333333333,52.93587338924408L228.61666666666667,53.836511343717575L229.10000000000002,53.25046208500862L229.58333333333331,53.19298443198204L230.06666666666666,53.67122662067413L230.55,54.45194926857948L231.03333333333333,54.17050239443779L231.51666666666668,53.70320138335228L232,53.421847343444824L232.48333333333332,54.25309833884239L232.96666666666667,53.60862982273102L233.45000000000002,53.85282364487648L233.93333333333334,53.91490322351456L234.41666666666666,54.01247200369835L234.9,53.16859555244446L235.38333333333333,54.82356470823288L235.86666666666667,52.6757253408432L236.35,55.116164952516556L236.83333333333334,54.37233728170395L237.31666666666666,54.39534690976143L237.79999999999998,53.99524462223053L238.28333333333333,54.324196100234985L238.76666666666668,55.36592882871628L239.25,53.4271654188633L239.73333333333332,53.894559264183044L240.21666666666667,55.07115361094475L240.7,55.505445420742035L241.18333333333334,53.360802203416824L241.66666666666669,55.96388739347458L242.14999999999998,54.86061882972717L242.63333333333333,54.58976832032204L243.11666666666667,56.246978759765625L243.6,54.54937216639519L244.08333333333334,55.91179412603378L244.5666666666667,55.24665009975433L245.04999999999998,55.33469673991203L245.53333333333333,54.328612357378006L246.01666666666668,54.988504618406296L246.5,55.73079389333725L246.98333333333335,54.8828327357769L247.46666666666667,55.682639449834824L247.95,56.07069981098175L248.43333333333334,55.844926953315735L248.91666666666666,55.08598056435585L249.4,55.85297700762749L249.88333333333335,56.594603180885315L250.36666666666665,55.33352968096733L250.85,56.64164361357689L251.33333333333334,55.413566052913666L251.81666666666666,56.090632647275925L252.3,55.03325071930885L252.78333333333333,56.34566155076027L253.26666666666665,55.76441314816475L253.75,56.24880892038345L254.23333333333335,55.56832072138786L254.71666666666667,55.96472290158272L255.2,57.941177010536194L255.68333333333334,56.04857873916626L256.1666666666667,57.35157352685928L256.65,56.836263954639435L257.1333333333333,55.61581206321716L257.6166666666667,55.808787912130356L258.1,56.24321234226227L258.58333333333337,55.954564183950424L259.06666666666666,57.70490062236786L259.55,56.58390071988106L260.0333333333333,56.71179977059364L260.51666666666665,56.331086575984955L261,56.5791794359684L261.4833333333333,55.86285722255707L261.96666666666664,57.63498318195343L262.45,56.5038378238678L262.93333333333334,57.39958208799362L263.4166666666667,55.628172278404236L263.90000000000003,56.54850435256958L264.3833333333333,57.951959043741226L264.8666666666667,58.311718225479126L265.35,57.26083469390869" style="fill: none;" fill="none"></path></g></g></g></g></g></g><g transform="translate(40, 178)" clip-path="url(#clip_1)"><clipPath id="clip_1"><rect width="290" height="22"></rect></clipPath><g><g><line x1="0" y1="0" x2="0" y2="5" style="visibility: inherit;" fill="rgb(0, 0, 0)" stroke="rgb(204, 204, 204)" stroke-width="1px"></line><line x1="24.166666666666664" y1="0" x2="24.166666666666664" y2="5" style="visibility: inherit;" fill="rgb(0, 0, 0)" stroke="rgb(204, 204, 204)" stroke-width="1px"></line><line x1="48.33333333333333" y1="0" x2="48.33333333333333" y2="5" style="visibility: inherit;" fill="rgb(0, 0, 0)" stroke="rgb(204, 204, 204)" stroke-width="1px"></line><line x1="72.5" y1="0" x2="72.5" y2="5" style="visibility: inherit;" fill="rgb(0, 0, 0)" stroke="rgb(204, 204, 204)" stroke-width="1px"></line><line x1="96.66666666666666" y1="0" x2="96.66666666666666" y2="5" style="visibility: inherit;" fill="rgb(0, 0, 0)" stroke="rgb(204, 204, 204)" stroke-width="1px"></line><line x1="120.83333333333334" y1="0" x2="120.83333333333334" y2="5" style="visibility: inherit;" fill="rgb(0, 0, 0)" stroke="rgb(204, 204, 204)" stroke-width="1px"></line><line x1="145" y1="0" x2="145" y2="5" style="visibility: inherit;" fill="rgb(0, 0, 0)" stroke="rgb(204, 204, 204)" stroke-width="1px"></line><line x1="169.16666666666669" y1="0" x2="169.16666666666669" y2="5" style="visibility: inherit;" fill="rgb(0, 0, 0)" stroke="rgb(204, 204, 204)" stroke-width="1px"></line><line x1="193.33333333333331" y1="0" x2="193.33333333333331" y2="5" style="visibility: inherit;" fill="rgb(0, 0, 0)" stroke="rgb(204, 204, 204)" stroke-width="1px"></line><line x1="217.5" y1="0" x2="217.5" y2="5" style="visibility: inherit;" fill="rgb(0, 0, 0)" stroke="rgb(204, 204, 204)" stroke-width="1px"></line><line x1="241.66666666666669" y1="0" x2="241.66666666666669" y2="5" style="visibility: inherit;" fill="rgb(0, 0, 0)" stroke="rgb(204, 204, 204)" stroke-width="1px"></line><line x1="265.8333333333333" y1="0" x2="265.8333333333333" y2="5" style="visibility: inherit;" fill="rgb(0, 0, 0)" stroke="rgb(204, 204, 204)" stroke-width="1px"></line><line x1="290" y1="0" x2="290" y2="5" style="visibility: inherit;" fill="rgb(0, 0, 0)" stroke="rgb(204, 204, 204)" stroke-width="1px"></line></g><g transform="translate(0, 8)"><text x="0" y="0" dx="0em" dy="0.95em" style="text-anchor: middle; visibility: hidden; font-family: Roboto, sans-serif; font-size: 12px; font-weight: 200;" fill="rgb(50, 49, 63)" stroke="none" stroke-width="1px">-50</text><text x="24.166666666666664" y="0" dx="0em" dy="0.95em" style="text-anchor: middle; visibility: inherit; font-family: Roboto, sans-serif; font-size: 12px; font-weight: 200;" fill="rgb(50, 49, 63)" stroke="none" stroke-width="1px">0</text><text x="48.33333333333333" y="0" dx="0em" dy="0.95em" style="text-anchor: middle; visibility: hidden; font-family: Roboto, sans-serif; font-size: 12px; font-weight: 200;" fill="rgb(50, 49, 63)" stroke="none" stroke-width="1px">50</text><text x="72.5" y="0" dx="0em" dy="0.95em" style="text-anchor: middle; visibility: inherit; font-family: Roboto, sans-serif; font-size: 12px; font-weight: 200;" fill="rgb(50, 49, 63)" stroke="none" stroke-width="1px">100</text><text x="96.66666666666666" y="0" dx="0em" dy="0.95em" style="text-anchor: middle; visibility: hidden; font-family: Roboto, sans-serif; font-size: 12px; font-weight: 200;" fill="rgb(50, 49, 63)" stroke="none" stroke-width="1px">150</text><text x="120.83333333333334" y="0" dx="0em" dy="0.95em" style="text-anchor: middle; visibility: inherit; font-family: Roboto, sans-serif; font-size: 12px; font-weight: 200;" fill="rgb(50, 49, 63)" stroke="none" stroke-width="1px">200</text><text x="145" y="0" dx="0em" dy="0.95em" style="text-anchor: middle; visibility: hidden; font-family: Roboto, sans-serif; font-size: 12px; font-weight: 200;" fill="rgb(50, 49, 63)" stroke="none" stroke-width="1px">250</text><text x="169.16666666666669" y="0" dx="0em" dy="0.95em" style="text-anchor: middle; visibility: inherit; font-family: Roboto, sans-serif; font-size: 12px; font-weight: 200;" fill="rgb(50, 49, 63)" stroke="none" stroke-width="1px">300</text><text x="193.33333333333331" y="0" dx="0em" dy="0.95em" style="text-anchor: middle; visibility: hidden; font-family: Roboto, sans-serif; font-size: 12px; font-weight: 200;" fill="rgb(50, 49, 63)" stroke="none" stroke-width="1px">350</text><text x="217.5" y="0" dx="0em" dy="0.95em" style="text-anchor: middle; visibility: inherit; font-family: Roboto, sans-serif; font-size: 12px; font-weight: 200;" fill="rgb(50, 49, 63)" stroke="none" stroke-width="1px">400</text><text x="241.66666666666669" y="0" dx="0em" dy="0.95em" style="text-anchor: middle; visibility: hidden; font-family: Roboto, sans-serif; font-size: 12px; font-weight: 200;" fill="rgb(50, 49, 63)" stroke="none" stroke-width="1px">450</text><text x="265.8333333333333" y="0" dx="0em" dy="0.95em" style="text-anchor: middle; visibility: inherit; font-family: Roboto, sans-serif; font-size: 12px; font-weight: 200;" fill="rgb(50, 49, 63)" stroke="none" stroke-width="1px">500</text><text x="290" y="0" dx="0em" dy="0.95em" style="text-anchor: middle; visibility: hidden; font-family: Roboto, sans-serif; font-size: 12px; font-weight: 200;" fill="rgb(50, 49, 63)" stroke="none" stroke-width="1px">550</text></g><line x1="0" y1="0" x2="290" y2="0" fill="rgb(0, 0, 0)" stroke="rgb(204, 204, 204)" stroke-width="1px"></line></g></g></g></g></svg>