<svg viewBox="0 0 330 200" xmlns="http://www.w3.org/2000/svg"><g><g><g><g><g><line x1="50" y1="178" x2="45" y2="178" style="visibility: inherit;" fill="rgb(0, 0, 0)" stroke="rgb(204, 204, 204)" stroke-width="1px"></line><line x1="50" y1="155.75000000000003" x2="45" y2="155.75000000000003" style="visibility: inherit;" fill="rgb(0, 0, 0)" stroke="rgb(204, 204, 204)" stroke-width="1px"></line><line x1="50" y1="133.5" x2="45" y2="133.5" style="visibility: inherit;" fill="rgb(0, 0, 0)" stroke="rgb(204, 204, 204)" stroke-width="1px"></line><line x1="50" y1="111.25" x2="45" y2="111.25" style="visibility: inherit;" fill="rgb(0, 0, 0)" stroke="rgb(204, 204, 204)" stroke-width="1px"></line><line x1="50" y1="88.99999999999999" x2="45" y2="88.99999999999999" style="visibility: inherit;" fill="rgb(0, 0, 0)" stroke="rgb(204, 204, 204)" stroke-width="1px"></line><line x1="50" y1="66.75000000000006" x2="45" y2="66.75000000000006" style="visibility: inherit;" fill="rgb(0, 0, 0)" stroke="rgb(204, 204, 204)" stroke-width="1px"></line><line x1="50" y1="44.50000000000004" x2="45" y2="44.50000000000004" style="visibility: inherit;" fill="rgb(0, 0, 0)" stroke="rgb(204, 204, 204)" stroke-width="1px"></line><line x1="50" y1="22.25000000000002" x2="45" y2="22.25000000000002" style="visibility: inherit;" fill="rgb(0, 0, 0)" stroke="rgb(204, 204, 204)" stroke-width="1px"></line><line x1="50" y1="0" x2="45" y2="0" style="visibility: inherit;" fill="rgb(0, 0, 0)" stroke="rgb(204, 204, 204)" stroke-width="1px"></line></g><g transform="translate(40, 0)"><text x="0" y="178" dx="0em" dy="0.3em" style="text-anchor: end; visibility: hidden; font-family: Roboto, sans-serif; font-size: 12px; font-weight: 200;" fill="rgb(50, 49, 63)" stroke="none" stroke-width="1px">0.9</text><text x="0" y="155.75000000000003" dx="0em" dy="0.3em" style="text-anchor: end; visibility: inherit; font-family: Roboto, sans-serif; font-size: 12px; font-weight: 200;" fill="rgb(50, 49, 63)" stroke="none" stroke-width="1px">0.95</text><text x="0" y="133.5" dx="0em" dy="0.3em" style="text-anchor: end; visibility: hidden; font-family: Roboto, sans-serif; font-size: 12px; font-weight: 200;" fill="rgb(50, 49, 63)" stroke="none" stroke-width="1px">1</text><text x="0" y="111.25" dx="0em" dy="0.3em" style="text-anchor: end; visibility: inherit; font-family: Roboto, sans-serif; font-size: 12px; font-weight: 200;" fill="rgb(50, 49, 63)" stroke="none" stroke-width="1px">1.05</text><text x="0" y="88.99999999999999" dx="0em" dy="0.3em" style="text-anchor: end; visibility: hidden; font-family: Roboto, sans-serif; font-size: 12px; font-weight: 200;" fill="rgb(50, 49, 63)" stroke="none" stroke-width="1px">1.1</text><text x="0" y="66.75000000000006" dx="0em" dy="0.3em" style="text-anchor: end; visibility: inherit; font-family: Roboto, sans-serif; font-size: 12px; font-weight: 200;" fill="rgb(50, 49, 63)" stroke="none" stroke-width="1px">1.15</text><text x="0" y="44.50000000000004" dx="0em" dy="0.3em" style="text-anchor: end; visibility: hidden; font-family: Roboto, sans-serif; font-size: 12px; font-weight: 200;" fill="rgb(50, 49, 63)" stroke="none" stroke-width="1px">1.2</text><text x="0" y="22.25000000000002" dx="0em" dy="0.3em" style="text-anchor: end; visibility: inherit; font-family: Roboto, sans-serif; font-size: 12px; font-weight: 200;" fill="rgb(50, 49, 63)" stroke="none" stroke-width="1px">1.25</text><text x="0" y="0" dx="0em" dy="0.3em" style="text-anchor: end; visibility: hidden; font-family: Roboto, sans-serif; font-size: 12px; font-weight: 200;" fill="rgb(50, 49, 63)" stroke="none" stroke-width="1px">1.3</text></g><line x1="50" y1="0" x2="50" y2="178" fill="rgb(0, 0, 0)" stroke="rgb(204, 204, 204)" stroke-width="1px"></line></g></g><g transform="translate(50, 0)" clip-path="url(#clip_0)"><clipPath id="clip_0"><rect width="280" height="178"></rect></clipPath><g><g><g><line x1="0" y1="0" x2="0" y2="178" fill="rgb(0, 0, 0)" stroke="rgb(60, 60, 60)" stroke-width="1px" opacity="0.25"></line><line x1="23.333333333333332" y1="0" x2="23.333333333333332" y2="178" fill="rgb(0, 0, 0)" stroke="rgb(60, 60, 60)" stroke-width="1px" opacity="0.25"></line><line x1="46.666666666666664" y1="0" x2="46.666666666666664" y2="178" fill="rgb(0, 0, 0)" stroke="rgb(60, 60, 60)" stroke-width="1px" opacity="0.25"></line><line x1="70" y1="0" x2="70" y2="178" fill="rgb(0, 0, 0)" stroke="rgb(60, 60, 60)" stroke-width="1px" opacity="0.25"></line><line x1="93.33333333333333" y1="0" x2="93.33333333333333" y2="178" fill="rgb(0, 0, 0)" stroke="rgb(60, 60, 60)" stroke-width="1px" opacity="0.25"></line><line x1="116.66666666666667" y1="0" x2="116.66666666666667" y2="178" fill="rgb(0, 0, 0)" stroke="rgb(60, 60, 60)" stroke-width="1px" opacity="0.25"></line><line x1="140" y1="0" x2="140" y2="178" fill="rgb(0, 0, 0)" stroke="rgb(60, 60, 60)" stroke-width="1px" opacity="0.25"></line><line x1="163.33333333333334" y1="0" x2="163.33333333333334" y2="178" fill="rgb(0, 0, 0)" stroke="rgb(60, 60, 60)" stroke-width="1px" opacity="0.25"></line><line x1="186.66666666666666" y1="0" x2="186.66666666666666" y2="178" fill="rgb(0, 0, 0)" stroke="rgb(60, 60, 60)" stroke-width="1px" opacity="0.25"></line><line x1="210" y1="0" x2="210" y2="178" fill="rgb(0, 0, 0)" stroke="rgb(60, 60, 60)" stroke-width="1px" opacity="0.25"></line><line x1="233.33333333333334" y1="0" x2="233.33333333333334" y2="178" fill="rgb(0, 0, 0)" stroke="rgb(60, 60, 60)" stroke-width="1px" opacity="0.25"></line><line x1="256.66666666666663" y1="0" x2="256.66666666666663" y2="178" fill="rgb(0, 0, 0)" stroke="rgb(60, 60, 60)" stroke-width="1px" opacity="0.25"></line><line x1="280" y1="0" x2="280" y2="178" fill="rgb(0, 0, 0)" stroke="rgb(60, 60, 60)" stroke-width="1px" opacity="0.25"></line></g><g><line x1="0" y1="178" x2="280" y2="178" fill="rgb(0, 0, 0)" stroke="rgb(60, 60, 60)" stroke-width="1px" opacity="0.25"></line><line x1="0" y1="155.75000000000003" x2="280" y2="155.75000000000003" fill="rgb(0, 0, 0)" stroke="rgb(60, 60, 60)" stroke-width="1px" opacity="0.25"></line><line x1="0" y1="133.5" x2="280" y2="133.5" fill="rgb(0, 0, 0)" stroke="rgb(60, 60, 60)" stroke-width="1px" opacity="0.25"></line><line x1="0" y1="111.25" x2="280" y2="111.25" fill="rgb(0, 0, 0)" stroke="rgb(60, 60, 60)" stroke-width="1px" opacity="0.25"></line><line x1="0" y1="88.99999999999999" x2="280" y2="88.99999999999999" fill="rgb(0, 0, 0)" stroke="rgb(60, 60, 60)" stroke-width="1px" opacity="0.25"></line><line x1="0" y1="66.75000000000006" x2="280" y2="66.75000000000006" fill="rgb(0, 0, 0)" stroke="rgb(60, 60, 60)" stroke-width="1px" opacity="0.25"></line><line x1="0" y1="44.50000000000004" x2="280" y2="44.50000000000004" fill="rgb(0, 0, 0)" stroke="rgb(60, 60, 60)" stroke-width="1px" opacity="0.25"></line><line x1="0" y1="22.25000000000002" x2="280" y2="22.25000000000002" fill="rgb(0, 0, 0)" stroke="rgb(60, 60, 60)" stroke-width="1px" opacity="0.25"></line><line x1="0" y1="0" x2="280" y2="0" fill="rgb(0, 0, 0)" stroke="rgb(60, 60, 60)" stroke-width="1px" opacity="0.25"></line></g></g></g><g><g><line x1="0" y1="578.5" x2="280" y2="578.5" fill="rgb(0, 0, 0)" stroke="rgb(153, 153, 153)" stroke-width="1.5px"></line></g></g><g><g><line x1="23.333333333333332" y1="0" x2="23.333333333333332" y2="178" fill="rgb(0, 0, 0)" stroke="rgb(153, 153, 153)" stroke-width="1.5px"></line></g></g><g><g><g><g><g><path stroke="rgb(255, 112, 67)" stroke-width="2px" d="M24.5,178.14292282352648L25.666666666666664,146.13120172983585L26.833333333333336,138.1828326483637L28,136.23595832952498L29.166666666666668,128.5118731015062L30.333333333333336,114.30211199053387L31.5,99.6661006248599L32.666666666666664,86.56337031088775L33.833333333333336,76.65987735372036L35,69.12402863052652L36.16666666666667,62.655715158075836L37.333333333333336,55.93947612804685L38.5,52.11161727270006L39.666666666666664,48.07904407607293L40.833333333333336,45.98315518920738L42,44.23482797261647L43.16666666666667,41.84557068037502L44.33333333333333,41.18990844395675L45.5,40.898741831150815L46.666666666666664,39.39566075685204L47.833333333333336,38.26979012586582L49,37.53848775586829L50.166666666666664,37.2785237095558L51.33333333333333,37.80453372690761L52.5,37.70144042367457L53.66666666666667,37.77021031427346L54.833333333333336,38.22728486718434L56,38.46138265457383L57.166666666666664,39.130582723731024L58.333333333333336,40.09880535781109L59.5,40.26216517858791L60.66666666666667,41.07995938601554L61.83333333333333,42.389444465155485L63,42.65110480740258L64.16666666666666,43.31356485272888L65.33333333333333,43.946659469484395L66.5,44.26831182544312L67.66666666666667,45.767645365244974L68.83333333333333,46.224548200882474L70,46.96772028250515L71.16666666666666,47.3734767035405L72.33333333333334,47.976809096188155L73.5,47.93644904604192L74.66666666666667,48.92256655407521L75.83333333333333,49.02339328594923L77,49.07130630772182L78.16666666666667,49.45413980461199L79.33333333333333,50.22493086801814L80.5,51.08392969696252L81.66666666666667,51.618192910723636L82.83333333333333,52.3461392876952L84,53.04727779373309L85.16666666666666,53.73201328840759L86.33333333333334,53.54245580629636L87.5,53.768674977994806L88.66666666666666,54.16476672195003L89.83333333333334,54.40806608976495L91,55.21003893364416L92.16666666666667,55.8475448808011L93.33333333333333,55.95171550041062L94.5,55.76718332246316L95.66666666666667,55.464450990411L96.83333333333333,56.29246611312173L98,56.45468999692881L99.16666666666667,57.7115928754157L100.33333333333333,57.822663904723285L101.5,58.92909238427693L102.66666666666666,59.91560944133877L103.83333333333334,60.32516141065286L105,60.72662069397166L106.16666666666666,60.68059073684805L107.33333333333334,60.816339795578706L108.5,61.96753667878461L109.66666666666667,62.91437119893639L110.83333333333333,63.09021279008636L112,63.26311009401952L113.16666666666667,63.77850199505609L114.33333333333333,64.20329719045714L115.5,64.81395753180352L116.66666666666667,64.65407381031139L117.83333333333333,65.52777858718171L119,66.62407252874338L120.16666666666666,66.69579433015802L121.33333333333334,66.80872363216771L122.5,68.33804217795785L123.66666666666666,68.35835595023777L124.83333333333334,69.1827323621043L126,69.28809100303226L127.16666666666667,69.38846110053767L128.33333333333331,70.15140117852638L129.5,70.77225640802837L130.66666666666666,71.84458052747998L131.83333333333334,72.42416870375612L133,72.97418353426532L134.16666666666669,74.16751898210094L135.33333333333334,73.85224330950285L136.5,74.57936771231002L137.66666666666666,74.86511296938123L138.83333333333334,75.64903265780367L140,75.97373551455833L141.16666666666666,76.01853710608302L142.33333333333331,76.97944716332336L143.5,77.6690493805288L144.66666666666669,78.102884124701L145.83333333333334,78.60113768040229L147,79.2749491468614L148.16666666666666,80.21355805012864L149.33333333333334,81.23015762098596L150.5,81.8548010869501L151.66666666666666,83.34718403122893L152.83333333333331,83.85001516879841L154,84.61287188852572L155.16666666666669,85.66587085917433L156.33333333333334,87.12853133317736L157.5,87.67124535821031L158.66666666666666,87.37608329166267L159.83333333333331,87.8507566434699L161,88.11461725131028L162.16666666666669,88.93062437948794L163.33333333333334,89.631678517921L164.5,90.03926116005375L165.66666666666666,90.93967665300251L166.83333333333334,91.8029254261582L168,92.11969494723843L169.16666666666666,92.60279455127454L170.33333333333331,93.47334040607295L171.5,94.10863922479922L172.66666666666669,95.50161618258468L173.83333333333334,95.73299313942141L175,95.84340673303335L176.16666666666666,97.01025513181526L177.33333333333331,98.42180330377482L178.5,98.73691405547665L179.66666666666669,99.89869230802663L180.83333333333334,101.13109980711819L182,101.82789360695764L183.16666666666666,101.82304894455483L184.33333333333334,102.62829863743916L185.5,103.83485524485668L186.66666666666666,104.09145636934137L187.83333333333331,105.6541632865554L189,106.92280779210842L190.16666666666669,107.49488850789136L191.33333333333334,108.1457524559311L192.5,109.25346037515475L193.66666666666666,110.39539101581856L194.83333333333331,110.21760479725054L196,111.34400510857498L197.16666666666669,112.14444475215674L198.33333333333334,113.56518829370738L199.5,113.74901573959117L200.66666666666666,114.06021609963854L201.83333333333334,115.27492427266769L203,115.9522500481435L204.16666666666666,116.81288607396053L205.33333333333331,118.71628541634901L206.5,119.31757356456768L207.66666666666669,119.60191470224773L208.83333333333334,120.01938418054054L210,121.38205182256378L211.16666666666666,122.27116129220775L212.33333333333331,122.85852387798579L213.5,124.65266239197697L214.66666666666669,124.50082657069949L215.83333333333334,124.8981710751712L217,126.50901787757041L218.16666666666666,127.74363122748834L219.33333333333334,128.87892881850902L220.5,129.906532906416L221.66666666666666,129.79816078121834L222.83333333333331,131.5272996602975L224,132.1935839759423L225.16666666666669,133.21509991330586L226.33333333333334,134.20044981385874L227.5,135.38130037156108L228.66666666666666,136.3650880823574L229.83333333333331,136.80871444761996L231,137.23781169545796L232.16666666666669,138.05220118219944L233.33333333333334,138.5187456313091L234.5,139.2839248003553L235.66666666666666,141.19523557555624L236.83333333333334,142.91178021748033L238,144.36271821212273L239.16666666666666,145.02060043067635L240.33333333333331,146.09776217490966L241.5,146.25624980181775L242.66666666666669,146.68594878703547L243.83333333333334,147.86268917197106L245,148.56292993708917L246.16666666666666,149.99554046919627L247.33333333333331,150.61376960832285L248.5,151.52242419575694L249.66666666666669,152.2402992335262L250.83333333333334,153.15191619916575L252,154.7952003319491L253.16666666666666,155.64214226242478L254.33333333333334,155.83922255418642L255.5,156.59469552267757" style="fill: none;" fill="none"></path></g></g></g></g><g opacity="0.2"><g><g><g><path stroke="rgb(255, 112, 67)" stroke-width="2px" d="M23.333333333333332,250.2840078473091L24.5,131.91333031654358L25.666666666666664,108.4854177236557L26.833333333333336,127.80544197559357L28,133.54273027181625L29.166666666666668,117.46630764007568L30.333333333333336,93.58414387702942L31.5,78.0808267593384L32.666666666666664,67.10734283924104L33.833333333333336,61.8944618701935L35,57.86126530170443L36.16666666666667,52.97436511516573L37.333333333333336,45.87827539443972L38.5,46.37432849407198L39.666666666666664,42.03302836418154L40.833333333333336,42.840208768844626L42,41.612781047821066L43.16666666666667,38.2620487213135L44.33333333333333,40.20647501945498L45.5,40.4620078802109L46.666666666666664,37.141088604927084L47.833333333333336,36.58100640773775L49,36.44154286384585L50.166666666666664,36.88857948780062L51.33333333333333,38.59354650974276L52.5,37.54680073261263L53.66666666666667,37.87336504459383L54.833333333333336,38.912896275520346L56,38.81252920627596L57.166666666666664,40.134382605552695L58.333333333333336,41.55113911628725L59.5,40.50720489025118L60.66666666666667,42.306650638580344L61.83333333333333,44.35367202758791L63,43.0435953140259L64.16666666666666,44.30725491046908L65.33333333333333,44.89630138874056L66.5,44.75079035758974L67.66666666666667,48.016645669937155L68.83333333333333,46.90990245342257L70,48.082478404045126L71.16666666666666,47.98211133480074L72.33333333333334,48.8818076848984L73.5,47.875908970832846L74.66666666666667,50.401742815971396L75.83333333333333,49.17463338375094L77,49.14317584037783L78.16666666666667,50.02839004993441L79.33333333333333,51.3811174631119L80.5,52.372427940368674L81.66666666666667,52.41958773136141L82.83333333333333,53.438058853149435L84,54.0989855527878L85.16666666666666,54.75911653041842L86.33333333333334,53.258119583129904L87.5,54.10800373554232L88.66666666666666,54.75890433788302L89.83333333333334,54.77301514148714L91,56.41299819946291L92.16666666666667,56.80380380153658L93.33333333333333,56.10797142982485L94.5,55.49038505554201L95.66666666666667,55.01035249233248L96.83333333333333,57.53448879718783L98,56.69802582263949L99.16666666666667,59.59694719314577L100.33333333333333,57.989270448684714L101.5,60.5887351036072L102.66666666666666,61.395385026931784L103.83333333333334,60.939489364624045L105,61.32880961894991L106.16666666666666,60.61154580116274L107.33333333333334,61.01996338367464L108.5,63.694332003593466L109.66666666666667,64.33462297916414L110.83333333333333,63.35397517681124L112,63.52245604991915L113.16666666666667,64.55158984661104L114.33333333333333,64.84048998355867L115.5,65.72994804382326L116.66666666666667,64.41424822807313L117.83333333333333,66.8383357524872L119,68.26851344108583L120.16666666666666,66.80337703227998L121.33333333333334,66.9781175851822L122.5,70.63201999664308L123.66666666666666,68.38882660865785L124.83333333333334,70.41929697990419L126,69.44612896442415L127.16666666666667,69.53901624679567L128.33333333333331,71.29581129550935L129.5,71.7035392522812L130.66666666666666,73.45306670665742L131.83333333333334,73.29355096817018L133,73.79920578002931L134.16666666666669,75.95752215385438L135.33333333333334,73.37932980060579L136.5,75.6700543165207L137.66666666666666,75.29373085498811L138.83333333333334,76.82491219043733L140,76.46078979969026L141.16666666666666,76.08573949337007L142.33333333333331,78.42081224918367L143.5,78.70345270633699L144.66666666666669,78.75363624095918L145.83333333333334,79.34851801395418L147,80.28566634655L148.16666666666666,81.62147140502931L149.33333333333334,82.75505697727205L150.5,82.79176628589632L151.66666666666666,85.58575844764711L152.83333333333331,84.6042618751526L154,85.75715696811677L155.16666666666669,87.24536931514741L156.33333333333334,89.32252204418182L157.5,88.4853163957596L158.66666666666666,86.93334019184114L159.83333333333331,88.56276667118074L161,88.5104081630707L162.16666666666669,90.15463507175446L163.33333333333334,90.68325972557068L164.5,90.65063512325287L165.66666666666666,92.29029989242554L166.83333333333334,93.09779858589172L168,92.59484922885895L169.16666666666666,93.3274439573288L170.33333333333331,94.77915918827057L171.5,95.06158745288849L172.66666666666669,97.5910816192627L173.83333333333334,96.08005857467651L175,96.00902712345123L176.16666666666666,98.7605277299881L177.33333333333331,100.53912556171417L178.5,99.20958018302917L179.66666666666669,101.6413596868515L180.83333333333334,102.97971105575562L182,102.87308430671692L183.16666666666666,101.81578195095062L184.33333333333334,103.83617317676544L185.5,105.64469015598297L186.66666666666666,104.47635805606842L187.83333333333331,107.9982236623764L189,108.82577455043793L190.16666666666669,108.35300958156586L191.33333333333334,109.12204837799072L192.5,110.91502225399017L193.66666666666666,112.10828697681427L194.83333333333331,109.9509254693985L196,113.03360557556152L197.16666666666669,113.3451042175293L198.33333333333334,115.69630360603333L199.5,114.02475690841675L200.66666666666666,114.52701663970947L201.83333333333334,117.0969865322113L203,116.96823871135712L204.16666666666666,118.10384011268616L205.33333333333331,121.57138442993164L206.5,120.21950578689575L207.66666666666669,120.0284264087677L208.83333333333334,120.64558839797974L210,123.42605328559875L211.16666666666666,123.60482549667358L212.33333333333331,123.73956775665283L213.5,127.34387016296387L214.66666666666669,124.27307283878326L215.83333333333334,125.49418783187866L217,128.92528808116913L218.16666666666666,129.5955512523651L219.33333333333334,130.58187520503998L220.5,131.44793903827667L221.66666666666666,129.63560259342194L222.83333333333331,134.12100797891617L224,133.19301044940948L225.16666666666669,134.7473738193512L226.33333333333334,135.6784746646881L227.5,137.15257620811462L228.66666666666666,137.84076964855194L229.83333333333331,137.47415399551392L231,137.88145756721497L232.16666666666669,139.27378541231155L233.33333333333334,139.2185623049736L234.5,140.43169355392456L235.66666666666666,144.06220173835754L236.83333333333334,145.48659718036652L238,146.5391252040863L239.16666666666666,146.00742375850677L240.33333333333331,147.71350479125977L241.5,146.49398124217987L242.66666666666669,147.33049726486206L243.83333333333334,149.6277997493744L245,149.6132910847664L246.16666666666666,152.14445626735687L247.33333333333331,151.5411133170128L248.5,152.8854060769081L249.66666666666669,153.3171117901802L250.83333333333334,154.51934164762497L252,157.26012653112411L253.16666666666666,156.91255515813828L254.33333333333334,156.13484299182892L255.5,157.72790497541428" style="fill: none;" fill="none"></path></g></g></g></g></g><g><g opacity="0.588437"><span fill="rgb(0, 0, 0)" stroke="none" stroke-width="1px">Alt + Scroll to Zoom</span></g></g></g><g transform="translate(50, 178)" clip-path="url(#clip_1)"><clipPath id="clip_1"><rect width="280" height="22"></rect></clipPath><g><g><line x1="0" y1="0" x2="0" y2="5" style="visibility: inherit;" fill="rgb(0, 0, 0)" stroke="rgb(204, 204, 204)" stroke-width="1px"></line><line x1="23.333333333333332" y1="0" x2="23.333333333333332" y2="5" style="visibility: inherit;" fill="rgb(0, 0, 0)" stroke="rgb(204, 204, 204)" stroke-width="1px"></line><line x1="46.666666666666664" y1="0" x2="46.666666666666664" y2="5" style="visibility: inherit;" fill="rgb(0, 0, 0)" stroke="rgb(204, 204, 204)" stroke-width="1px"></line><line x1="70" y1="0" x2="70" y2="5" style="visibility: inherit;" fill="rgb(0, 0, 0)" stroke="rgb(204, 204, 204)" stroke-width="1px"></line><line x1="93.33333333333333" y1="0" x2="93.33333333333333" y2="5" style="visibility: inherit;" fill="rgb(0, 0, 0)" stroke="rgb(204, 204, 204)" stroke-width="1px"></line><line x1="116.66666666666667" y1="0" x2="116.66666666666667" y2="5" style="visibility: inherit;" fill="rgb(0, 0, 0)" stroke="rgb(204, 204, 204)" stroke-width="1px"></line><line x1="140" y1="0" x2="140" y2="5" style="visibility: inherit;" fill="rgb(0, 0, 0)" stroke="rgb(204, 204, 204)" stroke-width="1px"></line><line x1="163.33333333333334" y1="0" x2="163.33333333333334" y2="5" style="visibility: inherit;" fill="rgb(0, 0, 0)" stroke="rgb(204, 204, 204)" stroke-width="1px"></line><line x1="186.66666666666666" y1="0" x2="186.66666666666666" y2="5" style="visibility: inherit;" fill="rgb(0, 0, 0)" stroke="rgb(204, 204, 204)" stroke-width="1px"></line><line x1="210" y1="0" x2="210" y2="5" style="visibility: inherit;" fill="rgb(0, 0, 0)" stroke="rgb(204, 204, 204)" stroke-width="1px"></line><line x1="233.33333333333334" y1="0" x2="233.33333333333334" y2="5" style="visibility: inherit;" fill="rgb(0, 0, 0)" stroke="rgb(204, 204, 204)" stroke-width="1px"></line><line x1="256.66666666666663" y1="0" x2="256.66666666666663" y2="5" style="visibility: inherit;" fill="rgb(0, 0, 0)" stroke="rgb(204, 204, 204)" stroke-width="1px"></line><line x1="280" y1="0" x2="280" y2="5" style="visibility: inherit;" fill="rgb(0, 0, 0)" stroke="rgb(204, 204, 204)" stroke-width="1px"></line></g><g transform="translate(0, 8)"><text x="0" y="0" dx="0em" dy="0.95em" style="text-anchor: middle; visibility: hidden; font-family: Roboto, sans-serif; font-size: 12px; font-weight: 200;" fill="rgb(50, 49, 63)" stroke="none" stroke-width="1px">-20</text><text x="23.333333333333332" y="0" dx="0em" dy="0.95em" style="text-anchor: middle; visibility: inherit; font-family: Roboto, sans-serif; font-size: 12px; font-weight: 200;" fill="rgb(50, 49, 63)" stroke="none" stroke-width="1px">0</text><text x="46.666666666666664" y="0" dx="0em" dy="0.95em" style="text-anchor: middle; visibility: hidden; font-family: Roboto, sans-serif; font-size: 12px; font-weight: 200;" fill="rgb(50, 49, 63)" stroke="none" stroke-width="1px">20</text><text x="70" y="0" dx="0em" dy="0.95em" style="text-anchor: middle; visibility: inherit; font-family: Roboto, sans-serif; font-size: 12px; font-weight: 200;" fill="rgb(50, 49, 63)" stroke="none" stroke-width="1px">40</text><text x="93.33333333333333" y="0" dx="0em" dy="0.95em" style="text-anchor: middle; visibility: hidden; font-family: Roboto, sans-serif; font-size: 12px; font-weight: 200;" fill="rgb(50, 49, 63)" stroke="none" stroke-width="1px">60</text><text x="116.66666666666667" y="0" dx="0em" dy="0.95em" style="text-anchor: middle; visibility: inherit; font-family: Roboto, sans-serif; font-size: 12px; font-weight: 200;" fill="rgb(50, 49, 63)" stroke="none" stroke-width="1px">80</text><text x="140" y="0" dx="0em" dy="0.95em" style="text-anchor: middle; visibility: hidden; font-family: Roboto, sans-serif; font-size: 12px; font-weight: 200;" fill="rgb(50, 49, 63)" stroke="none" stroke-width="1px">100</text><text x="163.33333333333334" y="0" dx="0em" dy="0.95em" style="text-anchor: middle; visibility: inherit; font-family: Roboto, sans-serif; font-size: 12px; font-weight: 200;" fill="rgb(50, 49, 63)" stroke="none" stroke-width="1px">120</text><text x="186.66666666666666" y="0" dx="0em" dy="0.95em" style="text-anchor: middle; visibility: hidden; font-family: Roboto, sans-serif; font-size: 12px; font-weight: 200;" fill="rgb(50, 49, 63)" stroke="none" stroke-width="1px">140</text><text x="210" y="0" dx="0em" dy="0.95em" style="text-anchor: middle; visibility: inherit; font-family: Roboto, sans-serif; font-size: 12px; font-weight: 200;" fill="rgb(50, 49, 63)" stroke="none" stroke-width="1px">160</text><text x="233.33333333333334" y="0" dx="0em" dy="0.95em" style="text-anchor: middle; visibility: hidden; font-family: Roboto, sans-serif; font-size: 12px; font-weight: 200;" fill="rgb(50, 49, 63)" stroke="none" stroke-width="1px">180</text><text x="256.66666666666663" y="0" dx="0em" dy="0.95em" style="text-anchor: middle; visibility: inherit; font-family: Roboto, sans-serif; font-size: 12px; font-weight: 200;" fill="rgb(50, 49, 63)" stroke="none" stroke-width="1px">200</text><text x="280" y="0" dx="0em" dy="0.95em" style="text-anchor: middle; visibility: hidden; font-family: Roboto, sans-serif; font-size: 12px; font-weight: 200;" fill="rgb(50, 49, 63)" stroke="none" stroke-width="1px">220</text></g><line x1="0" y1="0" x2="280" y2="0" fill="rgb(0, 0, 0)" stroke="rgb(204, 204, 204)" stroke-width="1px"></line></g></g></g></g></svg>